SplineFontDB: 3.0
FontName: Experiment-Sinhala-Italic
FullName: Experiment-Sinhala
FamilyName: Experiment-Sinhala
Weight: Italic
Copyright: Copyright (c) 2015, Pathum Egodawatta
UComments: "2015-9-29: Created with FontForge (http://fontforge.org)"
Version: 0.001
ItalicAngle: 0
UnderlinePosition: -99
UnderlineWidth: 49
Ascent: 750
Descent: 250
InvalidEm: 0
LayerCount: 2
Layer: 0 0 "Back" 1
Layer: 1 0 "Fore" 0
PreferredKerning: 4
XUID: [1021 779 -1439063335 14876943]
FSType: 0
OS2Version: 0
OS2_WeightWidthSlopeOnly: 0
OS2_UseTypoMetrics: 1
CreationTime: 1443542790
ModificationTime: 1464317259
PfmFamily: 17
TTFWeight: 400
TTFWidth: 5
LineGap: 122
VLineGap: 0
OS2TypoAscent: 879
OS2TypoAOffset: 0
OS2TypoDescent: -250
OS2TypoDOffset: 0
OS2TypoLinegap: 122
OS2WinAscent: 879
OS2WinAOffset: 0
OS2WinDescent: 49
OS2WinDOffset: 0
HheadAscent: 779
HheadAOffset: 0
HheadDescent: -27
HheadDOffset: 0
OS2Vendor: 'PfEd'
Lookup: 4 0 0 "'abvs' Above Base Substitutions in Sinhala lookup 0" { "'abvs' Above Base Substitutions in Sinhala lookup 0-1"  "'abvs' Above Base Substitutions in Sinhala lookup 0-2"  } ['abvs' ('DFLT' <'dflt' > 'sinh' <'dflt' > ) ]
Lookup: 4 0 0 "si_akhands" { "si_akhands subtable"  } ['akhn' ('sinh' <'dflt' > ) ]
Lookup: 4 0 0 "si_reph" { "si_reph subtable"  } ['rphf' ('sinh' <'dflt' > ) ]
Lookup: 4 0 0 "si_halant_1" { "si_halant_1 subtable"  } ['abvs' ('sinh' <'dflt' > ) ]
Lookup: 4 0 0 "si_halant_2" { "si_halant_2 subtable"  } ['abvs' ('sinh' <'dflt' > ) ]
Lookup: 4 0 0 "si_halant_3" { "si_halant_3 subtable"  } ['abvs' ('sinh' <'dflt' > ) ]
Lookup: 4 0 0 "si_abvs_1" { "si_abvs_1 subtable"  } ['abvs' ('sinh' <'dflt' > ) ]
Lookup: 4 0 0 "si_abvs_2" { "si_abvs_2 subtable"  } ['abvs' ('sinh' <'dflt' > ) ]
Lookup: 4 0 0 "si_abvs_3" { "si_abvs_3 subtable"  } ['abvs' ('sinh' <'dflt' > ) ]
Lookup: 4 0 0 "si_abvs_4" { "si_abvs_4 subtable"  } ['abvs' ('sinh' <'dflt' > ) ]
Lookup: 4 0 0 "si_abvs_5" { "si_abvs_5 subtable"  } ['abvs' ('sinh' <'dflt' > ) ]

StartChar: si_Tta
Encoding: 34 3495 0
GlifName: si_T_ta
Width: 760
Flags: HMW
LayerCount: 2
Back
SplineSet
353.442382812 334 m 1
 327.442382812 346 293.442382812 352 260.442382812 350 c 0
 190.369140625 345.8515625 117.307617188 292.790039062 116.442382812 208 c 0
 115.355802726 108.803477281 199.944466063 42.2948424889 367.442382812 43 c 4
 557.228705606 43.7949037201 650.722119379 185.697659139 656.442382812 327 c 0
 665.150342129 540.589788945 569.467974964 673.364858982 358.442382812 676 c 0
 223.275384718 677.536957205 121.442382812 595 118.442382812 595 c 1
 85.4423828125 648 l 0
 136.296506486 685.638514727 246.850823715 734.567254144 360.442382812 734 c 0
 588.166195662 732.855778392 728.943480374 561.636312573 728.442382812 332 c 0
 727.995573089 105.602165284 585.341587056 -56.8921832884 361.442382812 -59 c 0
 155.835286459 -60.677734375 38.7778735192 38.0029296875 35.4423828125 176 c 0
 32.1533989173 320.966632951 154.427734375 394.418945312 265.442382812 398 c 0
 327.442382812 400 367.442382812 379 367.442382812 379 c 1
 353.442382812 334 l 1
EndSplineSet
Fore
SplineSet
65 156 m 0
 69.4127404995 348.980166129 268.839740824 437.675639362 378 437 c 0
 387 437 397 437 405 436 c 1
 418.869759676 422.371665303 426.038085938 394.943359375 417 371 c 1
 392 375 367 378 341 378 c 0
 242.564041842 378 126 313.123046875 126 205 c 0
 126 114 208.000976562 60.4541015625 329 61 c 0
 550.81640625 62 697 228.951171875 697 441 c 0
 697 602 584 689 397 689 c 0
 272 689 172.143554688 618.359375 171 620 c 4
 165.647460938 627.676757812 176.112304688 661.780273438 185 676 c 5
 230 704 301 747 423 747 c 0
 608 747 751 622 751 405 c 0
 751 137.304170979 584.515750405 -44.9082508351 333 -49 c 0
 332 -49 331 -49 330 -49 c 0
 163 -49 65 41 65 156 c 0
EndSplineSet
Colour: ff00
EndChar

StartChar: si_Pa
Encoding: 46 3508 1
GlifName: si_P_a
Width: 788
Flags: HMW
LayerCount: 2
Back
SplineSet
500 352 m 1
 452 333 l 1
 444 358 437 384 437 426 c 0
 438 512 519 556 580 556 c 0
 663 556 715 507 715 427 c 0
 715 349 618 309 618 309 c 1
 602 326 l 1
 636.051288152 347.130311028 650.883587155 377.105818001 651 417 c 0
 651.13422914 462.999749757 617 494 558 494 c 0
 511 494 475 462 475 419 c 0
 475 367 500 352 500 352 c 1
119 209 m 0
 118 124 203 45 388 45 c 0
 563 45 663.451154009 127.008854445 665 216 c 0
 666.775330903 318.004157759 549 348 452 333 c 1
 472 373 l 1
 617 402 740 331 736 193 c 0
 731 29 564 -59 383 -59 c 0
 189 -59 38 33 40 180 c 0
 42 339 208 394 316 384 c 1
 292 345 l 1
 299 365 312.3731417 386.33162663 308 415 c 0
 299 474 239 505 171 490 c 0
 204 511 l 1
 149 409 l 1
 108 411 81.6005478023 436.013695057 83 471 c 0
 85 521 142 557 202 557 c 0
 272 557 344 517 346 439 c 0
 347 402 341 370 332 333 c 1
 208 351 120 287 119 209 c 0
EndSplineSet
Fore
SplineSet
81 147 m 0
 81 150 82 154 82 157 c 0
 89 290 215 399 374 399 c 0
 380 399 387 398 393 398 c 5
 376 459 351 482 300 483 c 5
 299 483 l 2
 261 483 229 449 216 415 c 5
 213 414 209 414 206 414 c 0
 177 414 150 435 150 466 c 0
 150 469 151 472 151 475 c 4
 160 526 212 562 271 562 c 4
 382 562 430 482 430 396 c 0
 430 380 428 364 425 348 c 5
 407 333 l 5
 403 333 399 333 395 333 c 0
 235 333 139 260 139 172 c 0
 139 96 205 58 360 53 c 0
 370 53 379 52 389 52 c 0
 601 52 714 135 714 243 c 0
 714 315 640 344 558 344 c 0
 529 344 499 339 469 330 c 1
 475 455 562 558 680 558 c 2
 684 558 l 1
 756 557 802 521 802 453 c 0
 804.682740695 392.009807296 759.799454007 356.365209881 718 327 c 1
 702 333 707 340 711 346 c 0
 722 365 728 383 728 399 c 0
 728 453 673 487 635 487 c 0
 564 487 515 438 512 377 c 1
 545 392 579 399 609 399 c 0
 711 399 768 337 768 236 c 0
 765.513449624 35.5676044129 574.824650697 -56.1983771927 381 -59 c 0
 203 -59 81 20 81 147 c 0
EndSplineSet
Colour: ff00
EndChar

StartChar: si_Va
Encoding: 55 3520 2
GlifName: si_V_a
Width: 760
Flags: HMW
LayerCount: 2
Back
SplineSet
386 284 m 5
 250.50390625 301.37890625 123.465820312 252.458984375 128 158 c 4
 131.069335938 87.791015625 219.271484375 45.1572265625 365 46 c 4
 559 47.1220703125 667 174.791015625 667 339 c 4
 667 547.71875 557.94140625 679.712890625 342 677 c 4
 219.063476562 675.456054688 132.310546875 606 129 606 c 5
 97 660 l 5
 139.236328125 688.125 219.37890625 735.633789062 358 735 c 4
 565.81640625 734.018554688 730 582.319335938 730 331 c 4
 730 111.353515625 598.415039062 -48.5791015625 375 -58 c 4
 192.556640625 -65.2548828125 49.349609375 8.0341796875 46 137 c 4
 42.244140625 299.32421875 239.439453125 339.377929688 354 332 c 5
 354 402 304 438 212 438 c 5
 186 357 l 5
 135 350 100.760742188 378.857421875 109 425 c 4
 119 481 177 500 224 500 c 4
 300 500 389.999023438 463 394 359 c 4
 395.383789062 323.026367188 386 284 386 284 c 5
EndSplineSet
Fore
SplineSet
64 141 m 0
 64 146 65 150 65 155 c 0
 78 306 247 363 352 363 c 0
 361 363 374 363 382 362 c 1
 382 372 l 2
 382 432 340 462 294 462 c 0
 232 462 205 405 204 394 c 1
 199 393 195 393 190 393 c 0
 151 393 130 414 130 443 c 2
 130 448 l 1
 135 504 192 537 250 537 c 0
 377 537 431 438 431 350 c 0
 430.757791862 329.796069348 428.155583346 312.158768763 424 295 c 1
 402 279 l 1
 377 283 351 285 325 285 c 0
 222 285 121 252 115 178 c 0
 115 176 114 174 114 172 c 0
 114 114 189 82 304 82 c 0
 544.191759618 83.1163531927 701 205.857450412 701 434 c 0
 701 596 575 674 408 674 c 0
 283 674 194 610 192 610 c 1
 189 613 189 620 190 630 c 0
 192 651 202 682 214 705 c 1
 259 732 327 757 420 757 c 0
 596 757 752 633 752 415 c 0
 752 147.392133731 583.465065095 -36.8126528858 334 -39 c 0
 191 -39 64 26 64 141 c 0
EndSplineSet
Colour: ff00
EndChar

StartChar: si_Ra
Encoding: 53 3515 4
GlifName: si_R_a
Width: 729
Flags: HMW
LayerCount: 2
Back
SplineSet
603 785 m 1
 603 707.080078125 536.435546875 660.377929688 428 594 c 0
 300 516 125 415 125 245 c 0
 125 138 214 48 360 48 c 4
 537.439453125 48 602.853515625 143 606 242 c 4
 610.389648438 379.393554688 502.021484375 481 377 481 c 0
 208.249023438 481 137 339 137 339 c 1
 165 428 l 0
 164 431 253.985351562 531.200195312 386 532 c 0
 536.497072311 532.911779604 688.461914062 424.852539062 685 245 c 0
 681.881835938 83.00390625 550.1171875 -52 356 -52 c 0
 153 -52 47.3366726873 93.98512553 55 252 c 0
 67.9033203125 518.061523438 406 604 504 736 c 1
 544 834 l 1
 586.75390625 835.307617188 603 811.384765625 603 785 c 1
EndSplineSet
Fore
SplineSet
74 200 m 0
 83.2196762057 510.444882833 386.250834056 645.775206052 575 816 c 4
 607 844 626 904 626 904 c 5
 627 904 l 2
 663 904 698 867 698 849 c 0
 698 738 444 630 334 552 c 5
 214 422 l 5
 169 366 134 306 128 239 c 4
 128 235 127 230 127 226 c 0
 127 132 219 53 352 53 c 4
 541 53 643 191 653 311 c 4
 653 316 654 321 654 325 c 0
 654 423 556 468 464 468 c 0
 455 468 446 468 437 467 c 4
 335 457 169 396 122 286 c 5
 118 328 166.555899981 376.482263837 205 414 c 4
 249.555899981 457.482263837 358 562 469 562 c 4
 629 562 701 453 701 314 c 0
 701 297 700 280 698 262 c 4
 677 90 535 -52 357 -52 c 4
 150 -52 74 71 74 200 c 0
EndSplineSet
Colour: ffff00
EndChar

StartChar: si_Ca
Encoding: 27 3488 5
GlifName: si_C_a
Width: 799
Flags: HMW
LayerCount: 2
Back
SplineSet
53 327 m 5
 474 333 l 1
 469 283 l 1
 146 283 l 1
 52 271 l 5
 53 327 l 5
EndSplineSet
Refer: 2 3520 N 1 0 0 1 83 0 2
Fore
SplineSet
27 254 m 1
 47 349 l 1
 123 362 301 372 413 372 c 2
 429 372 l 1
 421 357 l 1
 244 348 93 277 39 244 c 1
 27 254 l 1
EndSplineSet
Refer: 2 3520 N 1 0 0.0874887 1 39 0 2
EndChar

StartChar: si_Sa
Encoding: 58 3523 6
GlifName: si_S_a
Width: 869
Flags: HMW
LayerCount: 2
Back
SplineSet
69 379 m 1xf8
 447 381 l 1
 449 336 l 1
 153 335 l 1
 68 322 l 1
 69 379 l 1xf8
577 373 m 1
 610 384 l 1
 709.491210938 410.330078125 895 380.840820312 895 186 c 0
 895 64 820.377929688 -45 689 -45 c 0
 584 -45 517 22 502 126 c 1
 500 123 539 129 537 126 c 1
 519.119140625 25 450.748046875 -43.1982421875 334 -44 c 0
 201.470703125 -44.91015625 129.172851562 54.9951171875 131 154 c 0
 133.165039062 268 227.35546875 346 262 347 c 1
 356 338 l 1
 269.861328125 324.103515625 191.854492188 266.251953125 193 183 c 0
 193.899414062 112.950195312 245.522460938 64.845703125 334 62 c 0
 401.15625 59.83984375 499 88.2900390625 502 214 c 1
 537 215 l 1
 540 100.411132812 613.994140625 64.4326171875 694 64 c 0
 773.806640625 63.599609375 829.400390625 113.7890625 831 195 c 0xfa
 833.384765625 310.975585938 735.305664062 383.813476562 572 328 c 1
 567 350.166992188 562.391601562 374.670898438 562 398 c 0
 560 500 633 568 717 570 c 0
 783.981445312 571.594726562 860 532 860 452 c 0
 860 356 767 330 767 330 c 1
 751 337 l 1
 751 337 790 374.990234375 790 424 c 0xfc
 790 465 749.879882812 513.047851562 686 509 c 0
 649.995117188 506.71875 607 472 602 411 c 0
 598.227539062 364.98046875 618 353 618 353 c 1
 577 373 l 1
418 364 m 1
 421 398 421 417 409 445 c 0
 395 480 340 508 290 503 c 0
 239 419 l 1
 209 422 185 439 185 476 c 0
 185 543 257 568 310 568 c 0
 390 568 463.29296875 518.05078125 466 433 c 0
 467.56640625 383.791015625 458 358.083007812 449 337 c 1
 418 364 l 1
EndSplineSet
Fore
SplineSet
43 388 m 1
 106.026578073 394 251.710963455 400 354 400 c 2
 412 400 l 1
 412 411 l 2
 412 486.384615385 363.010637094 509 316 509 c 0
 315 509 314 509 313 509 c 0
 265 509 227 475.46875 212 435 c 1
 207 435 l 2
 188.25 435 175.268184361 466.106866111 177 491 c 0
 184.829184322 555.119702609 243.973954372 601.483318463 325 592 c 0
 407.296296296 582.294117647 457 506.75 457 427 c 0
 457 401.772727273 451 376.545454545 433 353 c 1
 331.554186254 344.058148305 124 291.59617095 124 148 c 0
 124 90.7616770166 163.463302234 51 235 51 c 4
 338.121387283 51 427.063583815 125.260869565 458 219 c 1
 483 225 l 1
 460.120499613 110.263391718 512.136134396 53.9538891758 594 51 c 0
 695.53324006 46.7675063892 791 120.586908143 791 223 c 0
 791 328.714285714 696.677419355 363 587 363 c 0
 555 363 522 355.727272727 491 347 c 1
 491 492.647826087 585.47761194 588 702 588 c 0
 781.370773011 588 813 544.557946126 813 489 c 1
 810 440 775 407 738 392 c 1
 788.580645161 365.161676647 836.56973843 307.471197385 834 226 c 0
 828.462152344 51.7160895852 719.68125 -57.0367647059 561 -47 c 0
 457.612080058 -39.6243109222 412.746835443 45.7169811321 433 142 c 1
 432.909090909 136.666666667 434.121418668 99.2175336404 434 94 c 0
 403.309964195 24.0639184082 339.212765957 -45 236 -45 c 0
 119.126436782 -45 73.1599854421 23.9373527514 72 107 c 0
 70.2377284793 236.764071727 177.934629907 333.67545359 304 375 c 0
 306.993969428 376.017913092 304 371 307 372 c 1
 191.56846473 364.490909091 63.3112033195 328.018181818 26 313 c 1
 43 388 l 1
535 400 m 1
 536 402 l 1
 561 411 594 416 628 416 c 0
 655.333333333 416 684.944444444 413 710 407 c 1
 715.997843748 414.197412498 731 433.841233509 731 461 c 0
 731 498.653714316 699.737033223 519.396391536 654 518 c 0
 597 516 541 468 535 400 c 1
EndSplineSet
Colour: ff00
EndChar

StartChar: si_Ka
Encoding: 21 3482 7
GlifName: si_K_a
Width: 1007
VWidth: -24
Flags: HMW
LayerCount: 2
Back
SplineSet
838 17 m 0xb0
 950.916015625 20.09375 972.169921875 184.509765625 948 281 c 0
 917.051757812 404.547851562 787.896484375 466.663085938 648 462 c 0
 548.9140625 458.697265625 471.959960938 431.771484375 378 374 c 1
 361 362 372 367 358 355 c 1
 261 276 179 211 79 79 c 1
 79 79 44.1279296875 98.5439453125 50 107 c 0
 150 251 240 322 338 413 c 1
 345 419 354 420 361 425 c 1
 453 505 566.087890625 556.008789062 675 561 c 0
 881.541015625 570.465820312 1034.95410156 450.18359375 1048 282 c 0
 1061.14355469 112.560546875 972.994140625 -33 825 -33 c 4
 766 -33 729 -15 729 -15 c 1
 749 46 l 1
 749 46 780.74609375 15.431640625 838 17 c 0xb0
311 377 m 1x30
 323 400 326.857421875 420.9921875 326 439 c 0
 324 481 287.760742188 505.678710938 238 501 c 0
 203.934570312 497.796875 168 470 174 426 c 1
 214 371 l 1
 200 347 177.001953125 335.022460938 155 336 c 0
 110 338 90 369 90 415 c 0
 90 495 156.983398438 563.181640625 254 559 c 0
 336.926757812 555.42578125 385.715820312 480.119140625 359 416 c 0
 344 380 359 404 346 387 c 1
 311 377 l 1x30
130 165 m 1
 138 169 147.001953125 171.854492188 154 172 c 0
 202 173 211 72 294 72 c 0
 343 72 393 101 394 197 c 1
 429 197 l 0
 430 94 489.997070312 71.1669921875 550 72 c 0
 610.002929688 72.8330078125 661 118 661 194 c 0
 661 273 589 340 475 345 c 0
 413.059570312 347.716796875 337 329 304 311 c 1
 358 364 l 1
 371 368 404.99609375 390.330078125 482 391 c 0
 597 392 719 332 719 182 c 0
 719 48 643.995117188 -34.9423828125 539 -36 c 0
 453.693359375 -36.859375 420.721679688 8.326171875 402 49 c 1
 420 49 l 1
 402.737304688 7.81640625 359.954101562 -36 295 -36 c 0
 136.997070312 -36 183 169 118 130 c 0
 130 165 l 1
EndSplineSet
Fore
SplineSet
2046 76 m 1053
48 74 m 0,0,1
 48 78 48 82 49 86 c 1,2,3
 151 185 215 236 311 348 c 0,4,5
 429 486 591 552 708 552 c 0,6,7
 870 552 990 452 990 283 c 0,8,9
 990 270 989 257 988 244 c 0,10,11
 974 110 885 -48 676 -56 c 1,12,13
 640 -32 647 -23 647 3 c 0,14,15
 647 5 647 7 647 9 c 0,16,17
 647 11 649 12 649 14 c 1,18,19
 680 5 711.527542041 5.39873033454 741 11 c 0,20,21
 846.538085938 31.0576171875 929.448584622 107.124805782 930 241 c 0,22,23
 930 371 824 453 671 453 c 0,24,25
 523.04153282 452.811396859 362.250650146 364.848555992 280 258 c 1,26,27
 305 279 337.642868094 301.812676522 361 319 c 0,28,29
 390.642868094 340.812676522 429 354 472 354 c 0,30,31
 558 354 638 294 638 194 c 0,32,33
 638 118.861328125 602.131405778 -39 453 -39 c 0,34,35
 410 -39 373 6 370 60 c 1,36,37
 342 8 295 -37 242 -37 c 2,38,-1
 241 -37 l 1,39,40
 141 -36 119 62 119 99 c 0,41,42
 119 101 119 103 119 105 c 0,43,44
 121 123 142 136 140 146 c 1,45,46
 143 143 146 143 149 143 c 2,47,-1
 156 143 l 2,48,49
 158 143 159 143 159 141 c 0,50,51
 159.73003232 138.646511114 152.066763019 130.200273359 152 125 c 0,52,53
 152 106 190 57 243 57 c 0,54,55
 300 57 358 107 378 192 c 1,56,-1
 403 198 l 1,57,58
 401 188 401 178 401 169 c 0,59,60
 401 110 434 77 473 76 c 1,61,-1
 474 76 l 2,62,63
 565 76 599 139 602 175 c 0,64,65
 602 178 603 180 603 183 c 0,66,67
 603 241 532 291 458 291 c 0,68,69
 363 291 262 231 206 181 c 0,70,71
 163 143 91 64 64 38 c 1,72,73
 65 38 66 39 66 40 c 0,74,75
 66 45 48 49 48 74 c 0,0,1
84 388 m 0,76,77
 84 391 85 395 85 398 c 0,78,79
 93 488 169 549 267 549 c 0,80,81
 329 549 370 502 370 450 c 0,82,83
 370 447 369 443 369 440 c 0,84,85
 366 401 330 342 304 317 c 1,86,-1
 294 326 l 1,87,88
 309 347 326 385 329 424 c 0,89,90
 329 427 329 430 329 433 c 0,91,92
 329 477 299 508 256 508 c 0,93,94
 209 508 181 467 177 421 c 0,95,96
 177 418 176 414 176 411 c 0,97,98
 176 379 189 353 198 342 c 1,99,100
 184 335 162 331 146 331 c 0,101,102
 107 331 84 349 84 388 c 0,76,77
EndSplineSet
Colour: ff00
EndChar

StartChar: si_Ta
Encoding: 40 3501 8
GlifName: si_T_a
Width: 1052
VWidth: -24
Flags: HMW
LayerCount: 2
Back
SplineSet
250 378 m 1x38
 262 401 265.788085938 421.989257812 265 440 c 0
 262.88671875 488.322265625 213.939453125 510.5859375 172 501 c 0
 140.6171875 493.826171875 115.75 469.586914062 112 425 c 1
 152 370 l 1
 138 346 114.997070312 333.926757812 93 335 c 0
 52 337 28 368 28 414 c 0
 28 494 94.9794921875 562.083984375 192 558 c 0
 275.716796875 554.475585938 325.256835938 480.104492188 298 417 c 0
 282.53515625 381.197265625 298 405 285 388 c 1
 250 378 l 1x38
755 7 m 0x78
 869.530273438 10.0673828125 903.213867188 168.196289062 877 279 c 0
 846.31640625 408.693359375 716.73046875 467.030273438 567 462 c 0
 475.24609375 458.91796875 404 431.771484375 317 374 c 1
 300 362 311 367 297 355 c 1
 200 276 148 211 48 79 c 1
 48 79 13.1279296875 98.5439453125 19 107 c 0
 119 251 179 322 277 413 c 1
 284 419 293 420 300 425 c 1
 394.9296875 505 511.6328125 555.721679688 624 561 c 4
 813.928710938 570.465820312 962.841796875 449.986328125 977 282 c 0
 990.724609375 112.560546875 888.547851562 -43 734 -43 c 0
 659.46875 -43 629 -22 629 -22 c 1
 653 40 l 1
 653 40 689.37109375 5.6181640625 755 7 c 0x78
78 142 m 1
 93.8271484375 148.801757812 107.977539062 157.05859375 121 157.575195312 c 0
 207.53125 161.009765625 216.237304688 64.6337890625 384 62 c 0
 515.998046875 59.927734375 593.387695312 124.006835938 592 205 c 0
 589.891601562 328.076171875 455.087890625 345.88671875 404 346 c 0
 322.086914062 346.181640625 264 328 231 310 c 1
 268 362 l 1
 281 366 344.00390625 395.240234375 416 394 c 0
 516.004882812 392.27734375 651 345 651 195 c 0
 651 89.8291015625 582 -44 384 -44 c 0xb8
 254.072265625 -44 175.453125 7.7138671875 159 67.9970703125 c 0
 143.305664062 125.500976562 101.395507812 127.443359375 56 104 c 1
 78 142 l 1
EndSplineSet
Fore
SplineSet
82 391 m 2
 82 401 l 1
 90 491 187 557 285 557 c 0
 347 557 387 535 387 483 c 0
 387 480 386 476 386 473 c 0
 383 434 327 345 301 320 c 1
 286 326 l 1
 312 355 323 388 326 427 c 0
 326 430 327 433 327 436 c 0
 327 480 297 511 254 511 c 0
 207 511 178 470 174 424 c 1
 174 414 l 2
 174 382 186 356 195 345 c 1
 181 338 159 334 143 334 c 0
 104 334 82 352 82 391 c 2
49 103 m 0
 49 109 50 116 52 124 c 1
 154 223 247 289 344 378 c 0
 473 496 622 562 739 562 c 0
 901 562 1023 480 1023 313 c 0
 1023 301 1022 287 1021 274 c 0
 1007 140 916 -38 707 -46 c 1
 668 -20 651 30 651 59 c 0
 651 61 652 63 652 65 c 1
 683 56 714 52 744 52 c 0
 858.631129566 53.066894697 961.761564314 135.949075986 963 269 c 0
 963 398 847 460 713 460 c 0
 589 460 451 422 360 340 c 0
 347 328 313 302 300 288 c 1
 325 309 361.309600863 326.983569828 383 342 c 0
 413.309600863 362.983569828 473 384 516 384 c 0
 596 384 644 328 644 241 c 0
 644 234 644 226 643 219 c 4
 633 108 558 -39 356 -39 c 0
 193 -39 123 86 123 148 c 2
 123 153 l 1
 125 171 146 184 144 194 c 1
 147 191 150 191 153 191 c 2
 160 191 l 2
 162 191 163 191 163 189 c 0
 164.092904104 186.228287988 157.192065117 178.23876177 157 173 c 0
 157 145 212 59 348 59 c 2
 349 59 l 1
 481 60 594 100 604 213 c 5
 604 220 l 2
 604 268 558 305 493 305 c 0
 398 305 265 272 209 221 c 0
 166 183 85 102 58 76 c 1
 57 78 49 84 49 103 c 0
EndSplineSet
EndChar

StartChar: si_Na
Encoding: 44 3505 9
GlifName: si_N_a
Width: 1043
Flags: HMW
LayerCount: 2
Back
SplineSet
74 442 m 4
 74 493 116 547 203 547 c 4
 296 547 350 481 350 413 c 4
 350 360 339 367 334 354 c 4
 289 338 l 5
 305 359 314 390 314 407 c 4
 314 472.49609375 234.733398438 497.6796875 186 471 c 5
 151 379 l 5
 109.375976562 377.819335938 74 400.032226562 74 442 c 4
67 126 m 5
 67 182 l 5
 75 166 93 160 109 160 c 4
 169 160 245 277 310 368 c 4
 332 376 l 5
 426 483 534 551 654 551 c 4
 828 551 979 435 979 236 c 4
 979 80 890 -61 717 -61 c 4
 658 -61 610 -37 610 -35 c 5
 603 -23 616 14 628 22 c 5
 641 13 673 -12 727 -12 c 4
 845 -12 906 107 906 217 c 4
 906 362 784 454 624 454 c 4
 525 454 447 430 337 319 c 5
 324 319 l 5
 262 224 196 113 119 113 c 4
 102 113 85 117 67 126 c 5
25 194 m 5
 36 200 62 196 70 193 c 5
 67 65 248 40 352 40 c 4
 461 40 557 97 557 197 c 4
 557 259 506 313 406 313 c 4
 346 313 296 290 257 268 c 5
 287 301 l 5
 300 305 357 353 439 353 c 4
 535 353 623 285 623 183 c 4
 623 78 571 -59 341 -59 c 4
 165 -59 23 54 25 194 c 5
EndSplineSet
Fore
SplineSet
102 76 m 1
 140.612304688 56.0361328125 197.18359375 50 278 50 c 0
 289 50 300.006835938 50.595703125 312 51 c 0
 404.436523438 54.764802922 581 108.001324153 581 238 c 0
 581 278.555664062 553.146484375 311 512 311 c 0
 312 311 233.081054688 62.3814290365 112 61 c 1
 112 63 102 74 102 76 c 1
106 369 m 0
 106 375.333333333 106.76171875 381.687282986 107 388 c 0
 115.23046875 489.538085938 217.086914062 564 321 564 c 0
 383 564 424 539.02734375 424 480 c 0
 424 477 423.23046875 472.991210938 423 470 c 0
 420 431 364 342 338 317 c 1
 328 326 l 1
 343 347 363 384.884765625 363 424 c 0
 363 427 363 430 363 433 c 0
 363 482.866210938 333 518 290 518 c 0
 237.05078125 518 201 472.485351562 201 421 c 0
 201 418 200 414 200 411 c 0
 200 379 213 353 222 342 c 1
 206.115234375 326.727539062 181.154296875 318 163 318 c 0
 126.956054688 318 106 333.827276511 106 369 c 0
35 148 m 1
 37 149 40 149 43 149 c 0
 55 149 71 143 76 140 c 1
 81 114 83 100 112 100 c 0
 178.470703125 100 291.70703125 277.607650265 355 358 c 0
 473.000261625 496 635.000341926 562 752 562 c 0
 896.766057371 562 1004 469.434944238 1004 313 c 4
 1004 138.385999856 903.189062435 -46.8319613235 670 -56 c 1
 611.958984375 -41.697265625 591 -12.4951171875 591 3 c 0
 591 5 591 7 591 9 c 0
 591 11 593 12 593 14 c 1
 626 5 658 1.0029296875 690 1 c 0
 788.463728262 0.992295087394 949 89.1364952993 949 267 c 4
 949 397.999855324 830.7371875 459.778880932 709 463 c 0
 560.824132424 466.83984375 405.502665314 388.225585938 327 268 c 1
 373.819335938 310.944335938 436.650390625 364 516 364 c 0
 569.791992188 364 624 317.765625 624 241 c 0
 624 113.395751953 551.49609375 -49 309 -49 c 0
 144.97265625 -49 47.115234375 52.537109375 35 148 c 1
EndSplineSet
Colour: ff00
EndChar

StartChar: anusvara
Encoding: 1 3458 10
GlifName: anusvara
Width: 588
VWidth: 0
Flags: HMW
LayerCount: 2
Back
SplineSet
120 225 m 0
 120 135 165.049804688 67.998046875 283 67 c 0
 373.046875 66.23828125 438.099609375 143.999023438 439 224 c 4
 440.125 323.993164062 371 393 264 387 c 0
 194.109375 383.081054688 120 318 120 225 c 0
55 194 m 0
 55 345 173 443 294 443 c 0
 445 443 523 335 523 214 c 0
 523 93 436 -25 285 -25 c 0
 134 -25 55 73 55 194 c 0
EndSplineSet
Fore
SplineSet
153 189 m 0
 153 118 192 68 294 67 c 1
 296 67 l 2
 385 67 462 145 475 224 c 4
 477 235 477 247 477 257 c 0
 477 335 426 387 338 387 c 2
 325 387 l 1
 246.359807263 381.410896518 151.845380744 304.212197957 153 189 c 0
83 154 m 0
 87.3622372195 330.89386952 233.561069985 441.749026001 364 443 c 0
 497 443 560 359 560 256 c 0
 560 242 559 228 557 214 c 0
 538 93 432 -25 281 -25 c 0
 147 -25 83 52 83 154 c 0
EndSplineSet
EndChar

StartChar: si_A
Encoding: 3 3461 11
GlifName: si_A_
Width: 758
VWidth: -17
Flags: HMW
AnchorPoint: "si_hal" 489 492 basechar 0
LayerCount: 2
Back
SplineSet
364 -57.5380859375 m 0
 153.625 -57.1875 52.4326171875 37.0244140625 54 157 c 0
 55.8642578125 305.000976562 183.197265625 381 323 383 c 0
 356.912109375 383.546875 385.2578125 381.401367188 402.384765625 378.52734375 c 1
 403.505859375 468.180664062 340.708007812 504.435546875 271 497 c 1
 215 408 l 1
 169 411 141 448 150 484 c 0
 166 546 225 567 288 567 c 0
 360 567 432 527 446 443 c 0
 455.095703125 388.426757812 439 334 439 334 c 1
 329.883789062 352.869140625 188.782226562 312.513671875 175 179 c 0
 164.526367188 81.240234375 240.35546875 4.236328125 408 4.8173828125 c 0
 529.96875 5.240234375 602.526367188 50.912109375 665 88.599609375 c 1
 696 47 l 1
 624.354492188 -10.3515625 511.6953125 -57.7841796875 364 -57.5380859375 c 0
506 406.842773438 m 1
 507.64453125 463.158203125 496.786132812 528.805664062 565 568 c 1
 594 546.889648438 l 1
 593.51171875 491.823242188 726 455.326171875 726 386 c 0
 726 313.143554688 634 241.561523438 545 234 c 1
 536 274 l 1
 593 284 652 321.561523438 652 378 c 0
 652 426 566.39453125 468.649414062 566 507.856445312 c 1
 554.118164062 493.653320312 558.6328125 470 558.6328125 421.313476562 c 0
 556 -378 l 1
 506 -378 l 1
 506 406.842773438 l 1
438.465820312 371.448242188 m 1
 439.303710938 371.296875 440.147460938 371.146484375 441 371 c 1
 441 371.776367188 440.05859375 371.853515625 438.465820312 371.448242188 c 1
EndSplineSet
Fore
SplineSet
75 122 m 0
 75 134 77 145 79 157 c 0
 105.900052093 282.584846696 255.875633995 377.918775094 418 385 c 0
 445 385 467 381 482 379 c 1
 484 389 485 397 485 406 c 0
 485 472 434 508 368 508 c 0
 363 508 357 507 351 507 c 1
 282 418 l 1
 246 420 224 444 224 471 c 0
 224 550.017322291 309.902589328 577.795697022 379 577 c 0
 451 577 515 527 516 443 c 0
 515 373 489 304 489 304 c 1
 471 306 452 307 433 307 c 0
 301.422535954 302.694606419 145.107827097 268.118990754 141 155 c 0
 141 82 218 35 411 35 c 0
 533 35 613 87 677 128 c 1
 703 47 l 1
 622 -10 503 -58 355 -58 c 0
 166 -58 75 19 75 122 c 0
447 -378 m 1
 570 407 l 1
 581 463 581 529 655 568 c 1
 680 547 l 1
 680 545 679 544 679 542 c 0
 679 492 787 455 787 394 c 2
 787 386 l 1
 776 313 672 242 581 234 c 1
 579 274 l 1
 638 284 702 322 711 378 c 0
 711 380 712 382 712 384 c 0
 712 429 641 471 646 508 c 1
 632 494 632 470 625 421 c 2
 497 -378 l 1
 447 -378 l 1
496 371 m 1
 497 371 498 371 499 371 c 1
 499 372 498 371 496 371 c 1
EndSplineSet
Colour: ffff00
EndChar

StartChar: si_Ii
Encoding: 8 3466 15
GlifName: si_I_i
Width: 729
VWidth: -5
Flags: HMW
LayerCount: 2
Back
SplineSet
527 611 m 0xb0
 527 642 552 667 583 667 c 0
 614 667 639 642 639 611 c 0
 639 580 614 555 583 555 c 0
 552 555 527 580 527 611 c 0xb0
215 701 m 4
 215 733 241 759 273 759 c 4
 305 759 331 733 331 701 c 4
 331 669 305 643 273 643 c 4x70
 241 643 215 669 215 701 c 4
EndSplineSet
Refer: 4 3515 N 1 0 0 1 0 0 2
Fore
SplineSet
646 642 m 0
 646 645 647 648 647 651 c 4
 652 682 681 707 712 707 c 4
 740 707 760 687 760 660 c 0
 760 657 759 654 759 651 c 4
 754 620 725 595 694 595 c 4
 666 595 646 615 646 642 c 0
290 752 m 0
 290 755 291 758 291 761 c 0
 296 793 326 819 358 819 c 0
 387 819 407 798 407 770 c 0
 407 767 407 764 407 761 c 0
 402 729 372 703 340 703 c 0
 311 703 290 724 290 752 c 0
EndSplineSet
Refer: 4 3515 N 1 0 0.157415 1 -40 0 2
Colour: ffff00
EndChar

StartChar: si_U
Encoding: 9 3467 16
GlifName: si_U_
Width: 0
VWidth: -17
Flags: HM
LayerCount: 2
Back
SplineSet
153 82 m 0
 134.201906315 -47.7994601107 198.972526228 -212.974609023 382 -236.380859375 c 0
 516.911576709 -252.204891615 598.588777731 -209.567542192 672 -151 c 1
 706 -208 l 1
 656.222222222 -243.865923717 549.874452006 -301.940847466 398 -296.19140625 c 0
 120.45118203 -285.48990852 25.9167733352 -102.742418168 37 34 c 4
 59.611328125 311.194438579 311.991484908 369.895574109 467 371 c 0
 529.002929688 371.436523438 565 367.727539062 594 365 c 1
 594 370 569.833007812 346 569 351 c 1
 581.571289062 478 452.213867188 499 374 481 c 1
 318 402 l 1
 272 405 250.087119932 445.53313978 261 481 c 0
 277 533 338 561 421 561 c 0
 503.286132812 561 597.034094894 506.79393118 611 423 c 0
 620.095703125 368.426757812 608 318 608 318 c 1
 608 316 l 1
 392.633333333 336.892578125 186.468603666 299.200396191 153 82 c 0
EndSplineSet
EndChar

StartChar: si_E
Encoding: 15 3473 18
GlifName: si_E_
Width: 862
Flags: HMW
LayerCount: 2
Back
SplineSet
336.81640625 669.124023438 m 1xde
 427 678 l 1
 425.842773438 653.400539719 448.363491842 575.996956623 488 559 c 0
 564.103515625 526.365234375 597.166015625 606.057617188 654 558 c 1
 683 526 l 1
 614.135742188 554.92578125 559.416287215 470.925470977 457 505.301757812 c 0
 376.956054688 532.168711285 380.421875 669.104915298 336.81640625 669.124023438 c 1xde
30 317 m 5
 419 316 l 5
 414 275 l 5
 113 270 l 5
 29 252 l 5
 30 317 l 5
415.504882812 661.212890625 m 0
 365.150223695 668.377572949 331.440007734 662.285715331 315 661 c 1
 316 741 l 1xee
 647.914375659 740.212890625 800 516.80859375 800 311 c 0
 800 91.0390625 671.749908359 -56.3568812077 449 -61 c 0
 229.623230244 -65.5728072786 126.234562254 17.8004014046 123 121 c 0
 118.597068797 261.476731369 262.522058823 302.262309365 376 306 c 1
 376 394 334.691729323 438 242 438 c 1
 216 357 l 1
 169.636363636 350 138.268483167 378.897251479 146 425 c 0
 155.391304348 481 209.860869565 500 254 500 c 0
 320 500 417.480828685 462.978771411 422 359 c 0
 423.383789062 327.161267511 414 282 414 282 c 1
 286.25 299.455610795 195.404368225 246.993333829 196 162 c 0
 196.519135843 86.054701937 304.648122074 38.9859262278 443 40 c 0
 628.478107244 41.3391927084 738 144.647971633 738 346 c 0
 738 538.33781221 549.268901917 642.180357787 415.504882812 661.212890625 c 0
EndSplineSet
Fore
SplineSet
62 343 m 0
 62 355 64 365 68 374 c 1
 447 374 l 1
 449 382 449 390 449 398 c 0
 449 448 414 480 358 480 c 0
 351 480 342 479 334 478 c 1
 296 397 l 1
 291 396 286 396 282 396 c 0
 251 396 232 414 232 442 c 0
 236.68492067 514.708160838 307.800761891 540.479911371 356 540 c 0
 426 540 492 498 492 420 c 0
 493.997975512 384.815771909 467.310159688 319.1268965 467 318 c 1
 444 321 425 322 405 322 c 0
 288.102477594 311.281565355 208 266.222816556 208 166 c 0
 208 87 295 34 455 34 c 0
 667 34 764 192 789 346 c 0
 793 371 796 396 796 419 c 0
 796 443 793 465 788 485 c 1
 750 467 701 454 655 454 c 0
 600 454 550 473 532 526 c 0
 510 590 532 688 479 726 c 1
 477 726 l 1
 476 730 475 735 475 740 c 0
 475 756 480 777 491 784 c 1
 720 748 864 596 864 398 c 0
 864 376 863 354 859 331 c 0
 823 101 662 -59 439 -59 c 0
 222 -59 132 28 132 126 c 0
 132 229.572515687 191.284943387 291.37117757 262 331 c 1
 162 331 l 1
 65 316 l 1
 63 325 62 334 62 343 c 0
567 704 m 1
 587 660 575 598 591 556 c 0
 603 524 635 507 680 507 c 0
 708 507 740 513 775 526 c 1
 739 617 658 673 567 704 c 1
EndSplineSet
Colour: ffff00
EndChar

StartChar: si_Ee
Encoding: 16 3474 19
GlifName: si_E_e
Width: 875
Flags: HMW
LayerCount: 2
Back
Refer: 50 3530 N 1 0 0 1 750 -106 2
Refer: 18 3473 N 1 0 0 1 0 0 2
Fore
SplineSet
900 677 m 1
 911 658 934 656 947 656 c 0
 976.27277439 655.177627491 1004.06021779 676.703395559 1004 717 c 0
 1004 774 934 794 922 810 c 1
 900 677 l 1
73 338 m 0
 73 352 76 364 81 374 c 1
 460 374 l 1
 462 383 463 393 463 401 c 0
 463 450 429 480 374 480 c 0
 367 480 359 479 351 478 c 1
 310 397 l 1
 305 396 300 396 296 396 c 0
 267 396 247 412 247 439 c 0
 252.601725039 512.705389831 325.73130869 541.074121855 375 540 c 0
 443 540 507 500 507 425 c 0
 509.047627591 389.448737682 478.948598528 319.679084633 478 318 c 1
 456 321 436 322 416 322 c 0
 297.753884168 311.167607857 213 265.377055292 213 163 c 0
 213 86 299 34 457 34 c 0
 669 34 770 192 801 346 c 0
 807 374 810 401 810 426 c 0
 810 447 807 467 804 485 c 1
 765 467 715 454 670 454 c 0
 615 454 566 473 550 526 c 0
 531 590 556 688 504 726 c 1
 502 726 l 1
 501 729 500 733 500 738 c 0
 500 754 506 776 518 784 c 1
 668 760 780 686 837 582 c 1
 881 864 l 1
 886 867 890 868 895 868 c 0
 902 868 910 865 915 864 c 0
 940 845 962 835 988 821 c 0
 1010 809 1063 785 1063 722 c 0
 1063.26914998 649.659172484 1010.23612561 617.010062505 950 617 c 0
 922 617 901 624 889 633 c 1
 889 632 888 630 888 629 c 2
 868 501 l 1
 875 473 879 443 879 412 c 0
 879 386 876 359 871 331 c 0
 827 101 660 -59 437 -59 c 0
 223 -59 136 25 136 121 c 0
 136 227.921894329 201.240418065 290.63216558 274 331 c 1
 173 331 l 1
 76 316 l 1
 75 323 73 331 73 338 c 0
591 704 m 1
 609 660 596 598 610 556 c 0
 621 524 654 507 699 507 c 0
 727 507 759 513 794 526 c 1
 761 617 681 673 591 704 c 1
EndSplineSet
Colour: ffff00
EndChar

StartChar: si_Ai
Encoding: 17 3475 20
GlifName: si_A_i
Width: 1441
Flags: HMW
LayerCount: 2
Back
Refer: 59 3545 N 1 0 0 1 0 0 2
Refer: 18 3473 N 1 0 0 1 570 0 2
Fore
SplineSet
59 167 m 0
 65.9084482902 408.725441217 248.960584158 548.640831533 430 548 c 0
 552 548 601 491 601 491 c 1
 603 484 604 472 604 458 c 0
 604 434 600 407 588 403 c 1
 588 403 534 462 398 462 c 0
 254.720471646 463.540043311 122 385.37604866 122 222 c 0
 122 122.71743699 206.575119038 63.7553434373 312 63 c 0
 415.09308373 64.7871636348 528.641806981 116.771966719 533 226 c 0
 533 277 498 315 457 329 c 1
 464 319 471 302 471 277 c 0
 471 270 470 262 469 253 c 0
 462 210 424 157 353 157 c 0
 296 157 269 193 269 233 c 0
 273.420223594 319.049019977 351.414097164 364.042289377 426 365 c 0
 505 365 578 318 578 219 c 0
 578 208 577 196 575 183 c 0
 559 81 454 -46 293 -46 c 0
 147.730662747 -44.2174248716 55.2705892599 36.5085468158 59 167 c 0
677 338 m 0
 677 352 680 364 685 374 c 1
 1064 374 l 1
 1066 383 1067 393 1067 401 c 0
 1067 450 1033 480 978 480 c 0
 971 480 963 479 955 478 c 1
 914 397 l 1
 909 396 904 396 900 396 c 0
 871 396 851 412 851 439 c 0
 856.601725039 512.705389831 929.73130869 541.074121855 979 540 c 0
 1047 540 1111 500 1111 425 c 0
 1113.04762759 389.448737682 1082.94859853 319.679084633 1082 318 c 1
 1060 321 1040 322 1020 322 c 0
 901.753884168 311.167607857 817 265.377055292 817 163 c 0
 817 86 903 34 1061 34 c 0
 1273 34 1374 192 1405 346 c 0
 1411 374 1414 401 1414 426 c 0
 1414 447 1411 467 1408 485 c 1
 1369 467 1319 454 1274 454 c 0
 1219 454 1170 473 1154 526 c 0
 1135 590 1160 688 1108 726 c 1
 1106 726 l 1
 1105 729 1104 733 1104 738 c 0
 1104 754 1110 776 1122 784 c 1
 1345 749 1483 603 1483 412 c 0
 1483 386 1480 359 1475 331 c 0
 1431 101 1264 -59 1041 -59 c 0
 827 -59 740 25 740 121 c 0
 740 227.921894329 805.240418065 290.63216558 878 331 c 1
 777 331 l 1
 680 316 l 1
 679 323 677 331 677 338 c 0
325 256 m 0
 325 234 341 216 371 216 c 0
 414.558175032 220.546348818 436.32024216 249.136687013 435 287 c 0
 435 319 421 331 410 335 c 1
 358 332 331 297 326 264 c 0
 326 261 325 259 325 256 c 0
1195 704 m 1
 1213 660 1200 598 1214 556 c 0
 1225 524 1258 507 1303 507 c 0
 1331 507 1363 513 1398 526 c 1
 1365 617 1285 673 1195 704 c 1
EndSplineSet
Colour: ffff00
EndChar

StartChar: si_Os
Encoding: 18 3476 21
GlifName: si_O_s
Width: 852
Flags: HMW
LayerCount: 2
Back
SplineSet
539 -40 m 1xbbf0
 434 -40 390 27 375 131 c 1
 373 128 412 134 410 131 c 1
 393.096236766 30 350.368372182 -37.1982421875 237 -39 c 1
 60.6 -39 28.5610844767 115.777602197 27 196 c 0
 24.5031197567 333.395201123 99.5095736885 439.720590168 186 442 c 0xdbf0
 233.299804688 443.30859375 267.819335938 406.991210938 267.819335938 336 c 0
 267.819335938 243.576171875 312.777545532 225.267366929 381 224 c 0
 467.734444754 222.388736264 496.947175837 264.54736198 499 316 c 0
 500.790272588 360.871961805 480.006588764 431.521282459 401 432 c 0
 364.743212891 432.24859375 344.323604041 409.653417249 344 389 c 0
 343.645664062 369.029296875 354.435150052 342.292190268 391 342.561523438 c 0
 439.637695312 342.920043945 451.7578125 394.288970947 420 431.561523438 c 1
 462 430.561523438 l 1
 490.539422286 381.112720677 459.906112514 293.62788779 380 295 c 0
 342.763004955 295.744362993 304.899280322 320.27504678 304 367.856445312 c 0
 303.232680203 405.485062239 328 466 406 466 c 0xd7f0
 488.267578125 466 537.463319731 405.053884241 538 320 c 0
 538.395507812 257.319335938 499.317105711 176.136715956 380 177 c 0
 272.291015625 177.779296875 221 229.416992188 221 304 c 0
 221 348 213.053712691 393.716706242 176 393 c 0
 114.011610243 391.960477941 87.5518015862 292.796073739 91 219 c 0
 95.7634662829 110.005145734 157.148062423 60.3882137459 240 57 c 0
 306.52173913 53.8026315789 372.065217391 85.019646895 375 219 c 1
 403 220 l 1
 405.979166667 95.5458661005 481.315558839 54.34769911 546 56 c 0
 669.265683378 59.0715343602 697.240070303 208.942564204 702 304 c 0
 712.814970353 491.489726732 625.405966155 675.986566065 379 679 c 0
 234.40475591 680.790508156 146.277777778 597 143 597 c 1
 108 647 l 0
 108 647 218.187536916 733.598117483 371 733 c 0
 646.039548023 731.950124688 777.99128632 519.118245551 775 312 c 0
 773.165724298 178.163248689 732.611650485 -40 539 -40 c 1xbbf0
EndSplineSet
Fore
SplineSet
47 178 m 0
 51.3772105757 366.276675214 148.743971866 493.712496413 277 508 c 1
 280 485 l 1
 277 461 276 440 276 420 c 0
 276 338 304 293 403 293 c 0
 404 293 405 293 406 293 c 0
 518 294 563 383 563 432 c 0
 563 473 523 512 459 512 c 2
 457 512 l 1
 403 511 369 488 369 456 c 0
 367.741679095 431.419106266 400.643643156 413.167383759 434 413 c 0
 471 413 522 432 560 480 c 1
 578 476 l 1
 552 380 475 354 437 354 c 0
 365 354 336 398 336 449 c 0
 336 453 336 457 336 461 c 0
 341 514 385 574 461 574 c 0
 539 574 610 524 613 431 c 1
 613 424 l 2
 613 323 534 222 407 222 c 2
 405 222 l 1
 290 223 238 288 238 375 c 0
 238 387 239 399 241 411 c 1
 198.198779087 411.988512452 98.6244359742 364.108725946 100 239 c 0
 100 140 170 72 263 71 c 1
 265 71 l 2
 340 71 397 118 417 190 c 1
 442 196 l 1
 440 187 440 178 440 170 c 0
 440 114 479 77 546 77 c 0
 684.854657628 80.8821317915 765.545236903 252.4096768 766 418 c 0
 766 600 656 684 449 684 c 0
 313 684 203 600 201 600 c 1
 198 603 198 610 199 620 c 0
 201 647 212 679 224 705 c 1
 274 737 359 767 461 767 c 0
 722 767 834 597 834 388 c 0
 831.587876764 171.86355512 728.232339531 -34.2502751597 546 -37 c 0
 467 -37 411 28 414 82 c 1
 413 80 426.030409506 85.9844923825 425 84 c 0
 399.030409506 33.9844923825 363 -35 238 -35 c 0
 101 -35 47 63 47 178 c 0
EndSplineSet
EndChar

StartChar: si_Kha
Encoding: 22 3483 24
GlifName: si_K_ha
Width: 0
Flags: HM
LayerCount: 2
Back
SplineSet
275.736328125 334.590820312 m 0
 207.381835222 324.226228058 126.664703527 268.400506065 116 163 c 0
 105.682058146 61.0265799071 141.392465925 -8.16066226344 223 -8.2998046875 c 0
 264.238535109 -8.3701171875 283.265396693 24.8983315225 283.409179688 51.7451171875 c 0
 283.588867188 85.2958984375 263.164059928 111.356644344 230.8828125 110.939453125 c 0
 205.266601562 110.608398438 181.614612844 89.8516679477 182.977539062 50.763671875 c 0
 183.839912926 26.03125 200.476396582 -6.9013671875 241.888671875 -12.09375 c 0
 234.706054688 -23.3828125 l 0
 167.255115122 -21.3203125 141.325292334 15.4651987976 140.389648438 53.98828125 c 0
 139.001257764 111.152217945 178.128818539 167.074593396 241.249023438 169.60546875 c 0
 299.694209519 171.948893985 345.76615991 129.020285934 345.776367188 61.1171875 c 0
 345.784244374 8.71484375 306.063253785 -59.7658427393 224 -58.787109375 c 0
 106.223898192 -57.3824441316 61.896784615 57.9056093142 61.5234375 149.9375 c 0
 60.81640625 324.224162748 182.234830079 431.799907501 316.396484375 434.801757812 c 0
 420.31640625 437.126953125 533.740234375 372.130859375 526.779296875 234 c 1
 514.501953125 220 l 1
 487.4140625 212.859375 448.186299537 169.589865393 448.287109375 128 c 0
 448.428170155 69.8043021133 502.307204107 45.1263451332 568 51.73046875 c 0
 671.002922083 62.0436984734 732.707870738 178.150771759 725.416015625 339 c 0
 715.695837344 552.312033205 613.163082657 667.274459809 386 672.860351562 c 0
 265.927724458 675.802187471 170.387196633 609 170 609 c 2
 139 665 l 1
 139 665 244.290997216 738.885146054 394 736.09375 c 0
 620.056385242 732.014325509 791.480630741 580.630141826 796.62890625 333 c 0
 801.176619521 114.256694096 724.288504485 -51.9986914946 555 -52 c 0
 428.656767648 -52.0009583657 388.565480011 29.4714919299 388.739257812 106 c 0
 388.90234375 177.820010537 435.810546875 249.176430151 488 261 c 1
 488.30078125 264.1328125 484.762695312 233.118164062 485.032226562 236 c 1
 420.567382812 331.591907444 341.564453125 344.572339384 275.736328125 334.590820312 c 0
EndSplineSet
EndChar

StartChar: si_Ga
Encoding: 23 3484 25
GlifName: si_G_a
Width: 970
Flags: HMW
LayerCount: 2
Back
SplineSet
682.759765625 15.6123046875 m 4
 789.694335938 27.6982421875 844.623046875 96.9677734375 844.623046875 219.600585938 c 4
 844.623046875 341.538085938 777.1328125 439.272460938 641.9375 437.533203125 c 4
 548.677734375 436.399414062 462.352539062 377.801757812 436.877929688 264.823242188 c 5
 386.610351562 248.01171875 l 5
 401.196289062 440.625976562 516.974609375 535.514648438 640.6796875 542.603515625 c 4
 818.7421875 552.603515625 908.870117188 411.889648438 908.870117188 267.375 c 4
 908.870117188 101.1640625 831.431640625 -54.5166015625 652.411132812 -55.814453125 c 4
 602.002929688 -56.1796875 566.490234375 -45.9150390625 548.682617188 -36.138671875 c 5
 567.452148438 38.328125 l 5
 588.120117188 22.771484375 640.903320312 10.5341796875 682.759765625 15.6123046875 c 4
102.974609375 245.841796875 m 4
 102.147460938 150.483398438 163.654296875 56.111328125 313 50.5908203125 c 4
 398.575195312 47.0771484375 483.88671875 79.8349609375 486 150 c 4
 487.185546875 200.606445312 453.31640625 247 387 247 c 5
 428 281 l 5
 470 279.932617188 539.65234375 240.7421875 540 152 c 4
 540.506835938 44.1220703125 466.59375 -57.0576171875 301.598632812 -55.0048828125 c 4
 143.704101562 -53.0400390625 41.9951171875 61.9140625 41.9951171875 221.564453125 c 4
 41.9951171875 428.865234375 190.2890625 526 325 538 c 4
 332.879882812 461.879882812 l 4
 237.916015625 461.879882812 104.434570312 422.454101562 102.974609375 245.841796875 c 4
EndSplineSet
Fore
SplineSet
390 188 m 1
 413 411 566 544 701 545 c 1
 703 545 l 2
 850 545 926 427 926 302 c 0
 926 289 926 277 924 264 c 0
 904 103 821 -57 620 -66 c 1
 584 -42 571 7 571 33 c 0
 571 35 571 37 571 39 c 0
 571 41 573 42 573 44 c 1
 604 35 635 31 665 31 c 0
 774.768271808 33.227633267 867.439366445 127.124156407 870 250 c 0
 870 357 780 443 676 443 c 0
 526 443 437 341 437 197 c 0
 437 194 437 191 437 188 c 1
 428 187 420 186 411 186 c 0
 404 186 397 187 390 188 c 1
66 174 m 0
 66 417.912820964 285.674683046 554.902137747 419 555 c 1
 420 553 419 551 419 548 c 0
 419 523 400 466 394 458 c 1
 309 458 158 445 133 277 c 0
 131 266 131 256 131 246 c 0
 131 137 215 44 344 41 c 0
 347 41 350 41 353 41 c 0
 428 41 513 61 523 162 c 0
 523 166 524 169 524 173 c 0
 524 238 466 279 438 280 c 1
 468 339 l 1
 469 339 l 2
 522 339 589 287 589 210 c 0
 589 77.0980470721 480.490144604 -44.8705178614 291 -48 c 0
 156 -48 66 40 66 174 c 0
EndSplineSet
EndChar

StartChar: si_Gha
Encoding: 24 3485 26
GlifName: si_G_ha
Width: 0
Flags: HM
LayerCount: 2
Back
SplineSet
39 379 m 1xe8
 417 381 l 1
 419 336 l 1
 123 335 l 1
 38 322 l 1
 39 379 l 1xe8
547 373 m 1
 580 384 l 1
 679.491210938 410.330078125 865 380.840820312 865 186 c 0
 865 64 790.377929688 -45 659 -45 c 0
 554 -45 521 13 506 117 c 1
 505.427734375 116.142578125 540 147 534 165 c 24
 528 183 486.626953125 183.658203125 484 184 c 1
 481.327148438 184.34765625 438 184 427 162 c 24
 419 145 461.505859375 117.758789062 461 117 c 1
 443.119140625 16 420.748046875 -43.1982421875 304 -44 c 0
 171.470703125 -44.91015625 99.1728515625 54.9951171875 101 154 c 0
 103.165039062 268 197.35546875 346 232 347 c 1
 326 338 l 1
 239.861328125 324.103515625 161.854492188 266.251953125 163 183 c 0
 163.899414062 112.950195312 215.602539062 66.7216796875 304 62 c 0
 345.575534477 59.7790143032 409.211914062 74.7744140625 415 107.828125 c 1
 414.201171875 132.467773438 370.123013369 139.845373801 371 171 c 0
 372.030155581 207.595896569 416.004882812 243.372070312 488 242 c 0
 555.00390625 240.72265625 590 210 590 174 c 0
 590 142.71560447 550.262695312 129.123046875 548 112.466796875 c 1
 551.45703125 84.8037109375 620.854500708 64.2333014695 664 64 c 0
 743.806640625 63.599609375 799.400390625 113.7890625 801 195 c 0xf2
 803.384765625 310.975585938 705.305664062 383.813476562 542 328 c 1
 537 350.166992188 532.391601562 374.670898438 532 398 c 0
 530 500 603 568 687 570 c 0
 753.981445312 571.594726562 830 532 830 452 c 0
 830 356 737 330 737 330 c 1
 721 337 l 1
 721 337 760 374.990234375 760 424 c 0xe4
 760 465 719.879882812 513.047851562 656 509 c 0
 619.995117188 506.71875 577 472 572 411 c 0
 568.227539062 364.98046875 588 353 588 353 c 1
 547 373 l 1
388 364 m 1xe8
 391 398 391 417 379 445 c 0
 365 480 310 508 260 503 c 0
 209 419 l 1
 179 422 155 439 155 476 c 0
 155 543 227 568 280 568 c 0
 360 568 433.29296875 518.05078125 436 433 c 0
 437.56640625 383.791015625 428 358.083007812 419 337 c 1
 388 364 l 1xe8
EndSplineSet
EndChar

StartChar: si_Nga
Encoding: 25 3486 27
GlifName: si_N_ga
Width: 0
Flags: HM
LayerCount: 2
Back
SplineSet
441 474 m 25x9e
 291 490 l 17
 156 448 95.365234375 383.963867188 90 238 c 0
 87.2509765625 163.2109375 130.008789062 56.189453125 178 18.7021484375 c 0
 137 -30.3115234375 l 0
 69.341796875 20.875 22 137.236328125 28 245 c 0
 41.0634765625 479.63671875 251 599 440 539 c 1
 441 474 l 25x9e
EndSplineSet
Refer: 25 3484 N 1 0 0 1 104 0 2
EndChar

StartChar: si_Nnga
Encoding: 26 3487 28
GlifName: si_N_nga
Width: 1103
Flags: HMW
LayerCount: 2
Back
SplineSet
441 474 m 25x9e
 291 490 l 17
 156 448 95.365234375 383.963867188 90 238 c 0
 87.2509765625 163.2109375 130.008789062 56.189453125 178 18.7021484375 c 0
 137 -30.3115234375 l 0
 69.341796875 20.875 22 137.236328125 28 245 c 0
 41.0634765625 479.63671875 251 599 440 539 c 1
 441 474 l 25x9e
EndSplineSet
Refer: 25 3484 N 1 0 0 1 104 0 2
Fore
SplineSet
81 171 m 0
 83.0874933263 418.244783802 316.925841984 560.767967358 481 562 c 0
 510 562 528 560 556 556 c 1
 556 555 l 1
 420 508 l 1
 413 508 l 1
 276.492102765 495.925211006 143.352348592 364.962464566 144 164 c 0
 144 90 159 11 187 -21 c 1
 181 -25 167 -30 143 -30 c 1
 107 9 81 88 81 171 c 0
EndSplineSet
Refer: 25 3484 N 1 0 0.0874887 1 140 0 2
Colour: ffff00
EndChar

StartChar: si_Cha
Encoding: 28 3489 29
GlifName: si_C_ha
Width: 0
Flags: HM
LayerCount: 2
Back
SplineSet
592 219 m 0xfe
 511.918945312 219.434570312 488.201116911 292.763424947 486.741210938 352 c 4
 481.936523438 546.953125 622.448767968 725.752779993 781 771 c 1
 808 688 l 17
 633.265625 660.305664062 549.120117188 507.9765625 537.295898438 414 c 0
 525.741210938 322.166992188 542.079101562 263.030273438 595 264 c 0
 639.142578125 264.80859375 660.87890625 295.380859375 661 367 c 0
 661.078125 413 628 494 549 494 c 0
 502 494 465 462 465 419 c 0
 465 367 490 352 490 352 c 1
 442 333 l 1
 434 358 427 384 427 426 c 0
 428 512 510 553 571 553 c 0
 654 553 725 477 725 397 c 0
 725 266.061523438 656.436523438 218.650390625 592 219 c 0xfe
119 209 m 0
 118 124 203 45 388 45 c 0
 563 45 663.451154009 127.008854445 665 216 c 0
 666.775330903 318.004157759 539 348 442 333 c 1
 462 373 l 1
 607 402 740 331 736 193 c 0xfd
 731 29 564 -59 383 -59 c 0
 189 -59 38 33 40 180 c 0
 42 339 208 394 316 384 c 1
 292 345 l 1
 299 365 312.3731417 386.33162663 308 415 c 0
 299 474 239 505 171 490 c 0
 204 511 l 1
 149 409 l 1
 108 411 81.6005478023 436.013695057 83 471 c 0
 85 521 142 557 202 557 c 0
 272 557 344 517 346 439 c 0
 347 402 341 370 332 333 c 1
 208 351 120 287 119 209 c 0
EndSplineSet
EndChar

StartChar: si_Ja
Encoding: 29 3490 30
GlifName: si_J_a
Width: 788
Flags: HMW
LayerCount: 2
Back
SplineSet
637 458 m 9xf8
 688 479 l 25
 688 479 689.344726562 453.623046875 690 432 c 0
 691 399 681.14316462 345.14565047 612 346 c 0
 529.8046875 347.015625 511.294642069 411.631971212 510.409179688 474 c 0
 508.469726562 610.606445312 612.135742188 725.743164062 761 771 c 1
 784 684 l 21
 669.265625 682.305664062 545.011365245 606.846052658 555.295898438 461 c 0
 558.677497152 413.045191066 581.100585938 386.447265625 614 385 c 4
 662.357421875 382.873046875 648.147857261 447.357724458 637 458 c 9xf8
497 352 m 1
 442 333 l 1
 434 358 427 384 427 426 c 0
 428 512 510 553 571 553 c 0
 654 553 715 507 715 427 c 0
 715 349 618 309 618 309 c 1
 602 326 l 1
 636.051288152 347.130311028 650.883587155 377.105818001 651 417 c 0
 651.13422914 462.999749757 608 494 549 494 c 0
 502 494 469 452 469 409 c 0
 469 357 497 352 497 352 c 1
119 209 m 0
 118 124 203 45 388 45 c 0
 563 45 663.451154009 127.008854445 665 216 c 0
 666.775330903 318.004157759 539 348 442 333 c 1
 462 373 l 1
 607 402 740 331 736 193 c 0xf4
 731 29 564 -59 383 -59 c 0
 189 -59 38 33 40 180 c 0
 42 339 208 394 316 384 c 1
 287 345 l 1
 294 365 307.373046875 386.33203125 303 415 c 0
 294 474 239 505 171 490 c 0
 204 511 l 1
 149 409 l 1
 108 411 81.6005478023 436.013695057 83 471 c 0
 85 521 142 557 202 557 c 0
 272 557 344 517 346 439 c 0
 347 402 341 370 332 333 c 1
 208 351 120 287 119 209 c 0
EndSplineSet
Fore
Refer: 1 3508 S 1 0 0.0874887 1 0 0 2
Colour: ffff00
EndChar

StartChar: si_Ttha
Encoding: 35 3496 31
GlifName: si_T_tha
Width: 0
Flags: HM
LayerCount: 2
Back
SplineSet
447 305 m 1
 464.684570312 392.088867188 408.3515625 448.735351562 311 440 c 1
 261 358 l 1
 231 361 207 378 207 415 c 0
 207 482 279 507 332 507 c 0
 412 507 487.65625 457.983398438 492 373 c 0
 494.56640625 322.791015625 488 304.083007812 481 282 c 1
 447 305 l 1
479.442382812 293 m 1
 453.442382812 305 415.467773438 291.521484375 382.442382812 290 c 0
 286.631835938 285.69921875 206.629882812 248.908203125 205.442382812 161 c 0
 204.799804688 113.450195312 247.28515625 71.2998046875 325 71 c 0
 391.03125 70.7548828125 447.442382812 111.124023438 447.442382812 205 c 1
 454.446289062 205.030273438 479.297851562 205.259765625 486 205.6796875 c 1
 486 108.375 550.194335938 71.36328125 605 71 c 0
 685.8515625 70.4794921875 736.901367188 143.420898438 741.442382812 317 c 0
 747.26953125 552.506835938 598.926757812 660.170898438 454.442382812 663 c 0
 313.016601562 665.685546875 223.5625 574 220.442382812 574 c 1
 187.442382812 625 l 0
 237.416015625 663.076171875 326.6796875 712.578125 445.442382812 712 c 0
 665.841796875 710.90234375 816.264648438 549.208007812 817.442382812 312 c 0
 818.178710938 149.983398438 765.995117188 -37.759765625 609 -41 c 0
 539.114257812 -42.470703125 483.245117188 -12.5888671875 463.442382812 51 c 1
 440.416992188 -17 371.322265625 -41.2734375 313 -41 c 0
 221.05859375 -40.5693359375 138.290039062 9.8798828125 134.442382812 128 c 0
 129.907226562 267.220703125 269.413085938 328.831054688 380.442382812 332 c 0
 452.442382812 334 469.442382812 319 469.442382812 319 c 1
 479.442382812 293 l 1
EndSplineSet
EndChar

StartChar: si_Dda
Encoding: 36 3497 32
GlifName: si_D_da
Width: 840
Flags: HMW
LayerCount: 2
Back
SplineSet
182.7890625 617.07421875 m 1
 151.092773438 677.413085938 l 1
 213.742146034 708.273373392 300.795694322 736.526279832 407.442382812 736 c 0
 666.066806821 734.807105655 824.011550953 569.886773006 825.442382812 312 c 0
 826.218000843 149.983398438 771.278805969 -37.6119217922 606 -41 c 0
 534.673885055 -42.470703125 477.653259367 -12.5888671875 457.442382812 51 c 1
 433.345633629 -17 361.035964911 -41.2595697902 300 -41 c 0
 202.909179688 -40.5693359375 113.434872152 9.87236579321 111.442382812 128 c 0
 109.146944111 264.088428637 241.437663144 341.288024422 348.442382812 342 c 0
 412.352495172 342.461538462 427.442382812 339 427.442382812 339 c 1
 437.442382812 313 l 1
 414.122795183 325 380.033947874 307.885306092 350.442382812 310 c 0
 259.503558661 316.317738614 183.01505552 245.279416021 182.442382812 167 c 4
 182.021394909 106.674237477 224.634868025 61.2450768942 303 61 c 0
 374.256037929 60.7548828125 436.442382812 101.124023438 436.442382812 195 c 1
 443.446289062 195.030273438 468.297851562 195.259765625 475 195.6796875 c 1
 475 98.375 540.157859231 59.2183612945 616 61 c 0
 701.006593559 63.07551542 763.506846543 162.636115313 759.442382812 338 c 0
 753.860609073 539.378806602 647.08391055 686.296056147 384.442382812 679 c 0
 294.152055003 676.27367156 224.183070698 642.521980831 182.7890625 617.07421875 c 1
32 348 m 1
 443 353 l 1
 438 303 l 1
 135 300 l 1
 31 285 l 1
 32 348 l 1
405 325 m 1
 422.684570312 412.088867188 366.3515625 468.735351562 269 460 c 1
 219 378 l 1
 189 381 165 398 165 435 c 0
 165 502 237 527 290 527 c 0
 370 527 445.656117918 477.983391686 450 393 c 0
 452.56640625 342.791015625 446 324.083007812 439 302 c 1
 405 325 l 1
EndSplineSet
Fore
SplineSet
55 234 m 5
 73 244 l 5
 93 339 l 5
 163 352 327 362 430 362 c 0
 435 362 440 362 445 362 c 1
 444 351 l 1
 280 342 105 267 55 234 c 5
120 98 m 0
 115.787697668 266.820134576 312.332367231 341.40781721 411 353 c 0
 420 354 434 353 442 352 c 1
 442 362 l 2
 442 422 401 462 354 462 c 0
 292 462 265 405 264 394 c 1
 259 393 255 393 250 393 c 0
 211 393 190 414 190 443 c 2
 190 448 l 1
 195 504 252 537 310 537 c 0
 437 537 492 447 492 360 c 0
 491.757791862 339.796069348 489.155583346 322.158768763 485 305 c 1
 463 289 l 1
 438 293 412 295 386 295 c 0
 297 295 191 247 182 148 c 1
 182 140 l 2
 182 92 222 62 272 61 c 1
 276 61 l 2
 356 61 443 112 466 189 c 1
 491 195 l 1
 489 185 488 175 488 166 c 0
 488 106 528 67 595 67 c 0
 718.417291357 69.1175749488 784 237.171009105 784 390 c 0
 784 569 660 664 447 664 c 0
 322 664 223 600 221 600 c 1
 218 603 218 610 219 620 c 0
 221 641 231 672 243 695 c 1
 288 722 366 747 459 747 c 0
 694 747 843 578 843 374 c 0
 843 161.92432749 748.438506762 -45.7937861594 582 -47 c 0
 503 -47 456 18 459 72 c 1
 458 70 471.060100292 75.9687576857 470 74 c 0
 443.060100292 23.9687576857 375 -45 277 -45 c 0
 164 -45 120 16 120 98 c 0
EndSplineSet
Colour: ffff00
EndChar

StartChar: si_Nna
Encoding: 38 3499 33
GlifName: si_N_na
Width: 1391
Flags: HMW
LayerCount: 2
Back
SplineSet
727 288 m 17x0ded
 724 392 784.025390625 450.725585938 856 453 c 0x0ded
 903.05859375 454.487304688 976.844726562 431.032226562 982 314 c 9
 967 308 l 0
 969 444 1067.06640625 484.982421875 1121 484 c 0
 1222.99902344 482.142578125 1288.26855469 407.076171875 1293 232 c 0
 1296 121 1249.10839844 -70.416015625 1103 -70 c 0
 976.787109375 -69.640625 939.198242188 10.25 942 161 c 1
 984 163 l 1
 985.353515625 54.419921875 1021.96191406 8.7109375 1091 9 c 0
 1159.08105469 9.28515625 1193.40429688 115.823242188 1192 212 c 0
 1190 349 1162.10644531 424.998046875 1092 426 c 0x8beb
 1045.96484375 426.658203125 998 354 1001 258 c 0
 941 258 l 0
 936 362 891.969726562 398.633789062 849 398 c 0
 812.415039062 397.459960938 757 370 757 269 c 1
 727 288 l 17x0ded
533.83984375 236.740234375 m 256
 533.83984375 277.330078125 505.860351562 310.540039062 465.26953125 310.540039062 c 256
 424.6796875 310.540039062 397.469726562 277.330078125 397.469726562 236.740234375 c 256
 397.469726562 196.150390625 426.6796875 165.940429688 457.26953125 165.940429688 c 256
 441.26953125 130.26953125 l 256
 392.23046875 130.26953125 353.030273438 178.76953125 353.030273438 237.809570312 c 256
 353.030273438 306.849609375 414.23046875 365.75 483.26953125 365.75 c 256
 558.309570312 365.75 599.509765625 311.549804688 599.509765625 252.509765625 c 256
 599.509765625 180.440429688 547.5390625 118.66015625 438.990234375 118.66015625 c 256x59f1
 291.98046875 118.66015625 175.1796875 199.690429688 175.1796875 339.48046875 c 256
 175.1796875 508.790039062 314.41015625 599.049804688 466.1796875 599.049804688 c 256
 663.349609375 599.049804688 756.700195312 458.629882812 756.700195312 265.83984375 c 256
 756.700195312 146.530273438 678.240234375 -58 442.509765625 -58 c 256
 229.719726562 -58 222.080078125 103.91015625 94.91015625 103.91015625 c 256
 61.7001953125 103.91015625 43.08984375 84.919921875 27.259765625 70.7001953125 c 257
 1.4296875 100.219726562 l 257
 220.334960938 287.590820312 576.352539062 566.549804688 819.969726562 739.549804688 c 256
 854.5703125 692.969726562 l 256
 669.614257812 572.169921875 297.568359375 289.106445312 133.360351562 145.889648438 c 257
 207.16015625 145.889648438 258.700195312 39.330078125 445.66015625 39.330078125 c 256
 613.580078125 39.330078125 690.280273438 148.669921875 690.280273438 274.129882812 c 256x69f1
 690.280273438 441.059570312 605.780273438 538.299804688 465.719726562 538.299804688 c 256
 339.940429688 538.299804688 229.620117188 451.73046875 229.620117188 345.629882812 c 256
 229.620117188 183.500976562 397.005859375 169.310546875 463 168 c 256
 495.0546875 167.36328125 533.83984375 182.913085938 533.83984375 236.740234375 c 256
EndSplineSet
Fore
SplineSet
83 53 m 257
 283 263 694 694 850 839 c 257
 853 833 859 793 859 769 c 2
 859 761 l 257
 745 653 342 255 202 107 c 257
 357 107 379 7 550 7 c 256
 694.479954947 9.0577918128 758 148.195423938 758 300 c 0
 758 440 670 544 516 544 c 256
 392.220832462 540.351217587 317.234096719 429.904841143 318 303 c 0
 318 178 397 164 446 164 c 0
 520 164 583 221 588 279 c 256
 588 283 589 287 589 290 c 0
 589 320 577 338 557 338 c 256
 504.301613373 336.844932349 468.375683265 293.525082517 470 235 c 0
 470 196 482 162 499 162 c 257
 497 142 l 257
 454 142 416 188 416 247 c 0
 416 251 417 255 417 259 c 256
 422 319 498 377 573 377 c 260
 622 377 654 340 654 298 c 0
 654 296 653 293 653 291 c 256
 645 205 562 117 448 117 c 256
 323 117 233 175 233 294 c 0
 236.292299295 471.00854032 393.767984446 582.627546765 562 585 c 256
 728 585 841 480 841 322 c 0
 841 312 841 302 840 292 c 256
 829 166 748 -62 461 -62 c 256
 300 -62 272 53 179 53 c 256
 151 53 134 34 119 20 c 257
 101 28 90 42 83 53 c 257
770 328 m 1
 784 397 858 496 971 496 c 0
 1036 496 1085 432 1085 363 c 0
 1085 357 1085 351 1084 345 c 1
 1062 333 l 1
 1087 438 1174 496 1242 496 c 0
 1318 496 1376 441 1376 309 c 0
 1376 288 1374 264 1371 239 c 0
 1354 100 1286 -50 1130 -50 c 0
 1054 -50 993 2 993 113 c 0
 993 122 993 132 994 142 c 1
 1012 156 1053 172 1084 172 c 1
 1083 161 1082 150 1082 140 c 0
 1082 46 1130 -1 1176 -1 c 0
 1260 -1 1286 104 1293 185 c 0
 1294 200 1295 216 1295 230 c 0
 1295 347 1255 425 1185 425 c 0
 1120 425 1089 332 1087 236 c 1
 1072 233 1048 232 1024 232 c 0
 1013 232 1002 232 992 233 c 1
 994 258 996 280 996 301 c 0
 996 399 970 452 938 454 c 0
 937 454 936 454 935 454 c 0
 905 454 848 425 837 268 c 1
 782 268 780 268 770 328 c 1
EndSplineSet
Colour: ffff00
EndChar

StartChar: si_Tha
Encoding: 41 3502 34
GlifName: si_T_ha
Width: 0
Flags: HM
LayerCount: 2
Back
SplineSet
432.442382812 53 m 0
 606.903057197 53.3704637965 698 160.372262774 698 346 c 0
 698 548.711039482 539.286272538 641.901776851 405.504882812 668.212890625 c 0
 359.70476176 677.881634396 356.819335938 669.996182698 315 663 c 1
 316 731 l 1
 641.057046308 730.21331936 760 516.808403201 760 311 c 0
 760 91.0389972145 629.969726562 -56.3818359375 431.442382812 -59 c 0
 238.44921875 -60.677734375 128.573242188 38.0029296875 125.442382812 176 c 0
 122.153320312 320.966796875 244.427734375 394.418945312 355.442382812 398 c 0
 417.442382812 400 457.442382812 379 457.442382812 379 c 1
 443.442382812 334 l 1
 417.442382812 346 383.442382812 352 350.442382812 350 c 0
 280.369140625 345.8515625 207.5546875 302.787109375 206.442382812 218 c 0
 205.442382812 140.005859375 269.440429688 52.2841796875 432.442382812 53 c 0
336.81640625 671.124023438 m 1
 408 680 l 1
 406.842411748 652.9199701 442.176652403 567.054609442 482 549 c 0
 558.103687328 516.365234375 597.165650755 581.057617188 654 533 c 1
 671 500 l 1
 602.136145356 518.925781249 551.493716699 455.291092093 460 485.301757812 c 0
 369.477344724 516.791841306 390.422138226 651.103124612 336.81640625 671.124023438 c 1
EndSplineSet
EndChar

StartChar: si_Da
Encoding: 42 3503 35
GlifName: si_D_a
Width: 581
Flags: HMW
LayerCount: 2
Back
SplineSet
522.090820312 -389.28125 m 1
 378.530373101 -403.743447527 319.747727744 -298.663764651 316 -231 c 0
 313.306446925 -146.36113579 369.129126603 -34.4345549738 509 16 c 1
 521 18.3333333333 529 -0.333333333333 493 2 c 1
 253.507047455 -90.266304348 38.8990241606 -4.33743479325 41 165 c 0
 42.920134029 319.761689701 205.887780243 393.121276769 397 394 c 0
 456.002656031 394.271290892 499 385 499 385 c 1
 499 387.5 488.35483871 375.5 488 378 c 1
 491.6 475 373 506 318 498 c 1
 262 409 l 1
 216 412 195.556400279 452.11432106 205 488 c 0
 220 545 273 571 336 571 c 0
 408 571 505.999756248 527.999959374 520 444 c 0
 529.095703125 389.426757812 513 345 513 345 c 1
 513 343 l 1
 273.457943925 364.492537313 162.53640311 306.422797877 152 199 c 0
 138.348469327 59.8172442854 303.229691877 -31.3035254506 549 57 c 1
 565 23 l 1
 471.777773007 -18.2758620689 425.560782656 -95.5255334909 414 -148 c 0
 398.929426609 -208.849269955 393.438884232 -324.783592054 545.358398438 -359.80859375 c 1
 522.090820312 -389.28125 l 1
EndSplineSet
Fore
SplineSet
244 -212 m 0
 245.861635778 -88.8000208185 377.021260279 -22.6214495211 448 9 c 1
 458 8 467.183624174 17.6177002202 477 15 c 0
 482.183624174 13.6177002202 486 11 491 9 c 1
 445 -8 329 -79 320 -163 c 0
 320 -165 319 -168 319 -171 c 0
 319 -201 339 -241 414 -241 c 0
 436 -241 464 -238 497 -229 c 5
 497 -231 497 -233 497 -235 c 0
 497 -270 464 -317 445 -332 c 5
 429 -334 414 -335 400 -335 c 0
 281 -335 244 -273 244 -212 c 0
63 135 m 0
 63 139 64 142 64 146 c 0
 72 284 181 387 375 394 c 1
 392 394 l 2
 428 394 459 392 475 389 c 1
 475 393 476 398 476 402 c 0
 476 468 422 505 373 505 c 2
 369 505 l 1
 326 503 298 468 284 427 c 1
 280 426 275 426 270 426 c 0
 239 426 201 442 201 480 c 0
 201 546 275 577 332 577 c 0
 479 577 530 451 530 357 c 0
 530 350 530 343 529 336 c 1
 510 309 l 1
 510 308 l 1
 477 313 413 317 385 317 c 0
 195 317 129 251 116 189 c 0
 114 181 113 174 113 167 c 0
 113 95 200 60 317 60 c 0
 399 60 473 85 536 129 c 1
 536 87 527 44 516 19 c 1
 473 0 387 -36 292 -36 c 0
 164 -36 63 21 63 135 c 0
EndSplineSet
Colour: ff00
EndChar

StartChar: si_Dha
Encoding: 43 3504 36
GlifName: si_D_ha
Width: 0
Flags: HM
LayerCount: 2
Back
SplineSet
386 284 m 5
 250.503597122 301.379310345 123.466247874 252.459206919 128 158 c 4
 131.068944452 87.7909007353 219.271735546 45.1571471554 365 46 c 4
 558.999747213 47.1220420377 667 174.791108795 667 339 c 4
 667 547.71874417 557.941173041 679.712552472 342 677 c 4
 219.063691057 675.455731327 132.310705627 606 129 606 c 5
 97 660 l 5
 139.236417611 688.125 219.378877917 735.634192064 358 735 c 4
 565.816845959 734.018099283 730 582.319357855 730 331 c 4
 730 111.353515625 598.414766771 -48.5793000132 375 -58 c 4
 192.556677605 -65.2548684968 49.349757601 8.03433236137 46 137 c 4
 42.243902439 299.324324324 239.43902439 339.378378378 354 332 c 5
 354 402 304 438 212 438 c 5
 186 357 l 5
 135 350 100.76031191 378.857746694 109 425 c 4
 119 481 177 500 224 500 c 4
 300 500 389.99945787 462.999979147 394 359 c 4
 395.383789062 323.026367188 386 284 386 284 c 5
EndSplineSet
EndChar

StartChar: si_Nda
Encoding: 45 3507 37
GlifName: si_N_da
Width: 692
Flags: HMW
LayerCount: 2
Fore
SplineSet
30 168 m 0
 30 185 30 203 32 222 c 0
 50 407 175 598 378 598 c 0
 379 598 380 598 381 598 c 4
 412 598 459 585 481 569 c 5
 471 525 l 1
 449 521 429 521 409 521 c 2
 392 521 l 1
 228.605063956 525.992724023 102.582063786 386.108323538 80 238 c 0
 78 224 77 210 77 197 c 0
 77 50 191 2 191 2 c 1
 173 -67 l 1
 79 -41 30 43 30 168 c 0
EndSplineSet
Refer: 35 3503 N 1 0 0.0874887 1 87 0 2
EndChar

StartChar: si_Pha
Encoding: 47 3509 38
GlifName: si_P_ha
Width: 0
Flags: HM
LayerCount: 2
Back
SplineSet
336.81640625 671.124023438 m 1
 408 680 l 1
 406.842411748 652.9199701 442.176652403 567.054609442 482 549 c 0
 558.103687328 516.365234375 597.165650755 581.057617188 654 533 c 1
 671 500 l 1
 602.136145356 518.925781249 551.493716699 455.291092093 460 485.301757812 c 0
 369.477344724 516.791841306 390.422138226 651.103124612 336.81640625 671.124023438 c 1
405.504882812 668.212890625 m 0
 359.70476176 677.881634396 356.819335938 669.996182698 315 663 c 1
 316 731 l 1
 641.057046308 730.21331936 760 516.808403201 760 311 c 0
 760 91.0389972145 639.969813788 -50.3820154111 450 -58 c 0
 241.291028787 -65.8599509371 126.364332992 17.8013347216 123 121 c 0
 118.614471687 269.0700682 271.970703125 309.060546875 385 303 c 5
 378 375.333007812 330 419 262 408 c 5
 236 327 l 1
 189.63671875 320 158.509765625 348.857421875 166 395 c 0
 175.391601562 451 229.861328125 470 274 470 c 0
 340 470 419.999023438 443 424 339 c 0
 425.383789062 303.026367188 416 252 416 252 c 1
 288.25 268.000976562 195.34375 233.91015625 196 156 c 4
 196.540039062 85.6572265625 290.048202864 50.9382715874 434 52 c 0
 606.9035995 53.3002457237 698 160.372262774 698 346 c 0
 698 548.711039482 539.286272538 641.901776851 405.504882812 668.212890625 c 0
EndSplineSet
EndChar

StartChar: si_Ba
Encoding: 48 3510 39
GlifName: si_B_a
Width: 808
Flags: HMW
LayerCount: 2
Back
SplineSet
518.849609375 48.986328125 m 4
 622.232421875 83.3623046875 689.341796875 189.591796875 695.22265625 348 c 4
 702.947265625 556.064453125 550.6953125 639.040039062 351.584960938 639.040039062 c 4
 226.989257812 639.040039062 143.92578125 580 141.952148438 580 c 4
 131.401367188 587.749023438 141.803710938 646.360351562 156.536132812 675 c 5
 199.16015625 703.311523438 269.126953125 727.006835938 361.013671875 727.006835938 c 4
 563.500976562 727.006835938 747.381835938 581.2890625 749.663085938 324 c 4
 751.688476562 95.6103515625 676.025390625 -54.0009765625 499.931640625 -59.4921875 c 4
 389.778320312 -62.9267578125 356.350585938 7.5888671875 359.072265625 85.505859375 c 4
 361.594726562 157.729492188 407.6328125 252.04296875 484.565429688 282.615234375 c 5
 465.30078125 314.365234375 384.03125 344.3125 300.508789062 337.40234375 c 4
 194.69921875 328.647460938 126.611328125 289.654296875 114.803710938 188.993164062 c 4
 109.081054688 140.208984375 115.118164062 58.3369140625 149.205078125 41.556640625 c 5
 144.091796875 51.6796875 136.036132812 14.0947265625 131.9921875 26.935546875 c 4
 113.98828125 84.0986328125 148.8203125 161.697265625 229.0859375 161.697265625 c 4
 275.365234375 161.697265625 316.87109375 117.247070312 314.560546875 51.1015625 c 4
 312.744140625 -0.927734375 281.561523438 -58.7978515625 200.681640625 -58.7978515625 c 4
 101.057617188 -58.7978515625 65.9287109375 28.3408203125 62.8095703125 121.451171875 c 4
 57.90234375 267.930664062 156.170898438 424.862304688 343.969726562 434.862304688 c 4
 514.483398438 443.94140625 575.474609375 319.762695312 569.184570312 220 c 5
 561 210 l 5
 481.80859375 198.239257812 415.869140625 156.321289062 406.8671875 101.16015625 c 4
 393.624023438 20.0087890625 491.495117188 39.890625 518.849609375 48.986328125 c 4
201.8203125 1.7373046875 m 5
 241.54296875 2.9658203125 260.951171875 35.5673828125 261.880859375 62.185546875 c 4
 263.036132812 95.2607421875 243.869140625 120.946289062 212.168945312 120.946289062 c 4
 186.655273438 120.946289062 161.754882812 101.223632812 160.454101562 63.958984375 c 4
 159.638671875 40.59375 171.802734375 12.5498046875 201.8203125 1.7373046875 c 5
EndSplineSet
Fore
SplineSet
50 146 m 0
 55.0751451081 343.837346006 183.007995776 479.301322424 341 482 c 1
 346 482 l 2
 471 482 537 403 537 312 c 0
 537 305 536 298 535 291 c 5
 487.438000347 288.805976548 423.798920093 242.935989899 420 158 c 0
 420 113 453 76 526 76 c 2
 528 76 l 5
 664 77 741 246 748 362 c 0
 749 371 749 379 749 388 c 0
 749 575 618 668 412 668 c 0
 287 668 198 607 195 607 c 0
 192 607 191 616 191 621 c 0
 191 643 204 684 219 706 c 1
 264 734 335 758 427 758 c 0
 629 758 801 620 801 377 c 0
 801 153.43986561 698.854301403 -30.7632224482 529 -32 c 5
 525 -32 l 2
 402 -32 362 48 362 118 c 0
 365.706656977 236.195985387 437.742742461 303.011524848 499 315 c 5
 503 340 432 376 317 377 c 1
 315 377 l 2
 208 377 104 317 97 191 c 0
 97 188 96 185 96 182 c 0
 96 104 154 54 187 47 c 1
 160 32 l 1
 156 47 154 61 154 76 c 0
 154 138 188 197 257 197 c 0
 299 197 335 167 335 111 c 0
 332.65149269 31.9491599944 281.976201728 -37.010447223 219 -38 c 0
 95 -38 50 49 50 146 c 0
189 89 m 0
 189 67 200 49 229 49 c 2
 231 49 l 1
 261 50 279 72 282 99 c 1
 282 107 l 2
 282 134 263 146 241 146 c 0
 215 146 194 130 190 99 c 0
 190 96 189 92 189 89 c 0
EndSplineSet
Colour: ffff00
EndChar

StartChar: si_Bha
Encoding: 49 3511 40
GlifName: si_B_ha
Width: 993
Flags: HMW
LayerCount: 2
Back
SplineSet
23 373 m 5
 402 372 l 5
 397 331 l 5
 106 326 l 5
 22 308 l 5
 23 373 l 5
EndSplineSet
Refer: 47 3524 S 1 0 0 1 58 0 2
Fore
SplineSet
132 462 m 2
 132 472 l 1
 138 532 215 567 284 567 c 0
 402 567 455 506 455 433 c 0
 455 430 455 427 455 424 c 4
 451 359 433 342 418 318 c 5
 388 370 l 5
 389 378 389 386 389 393 c 0
 389 466 358 520 301 520 c 0
 240.426107727 522.140557417 206.130081219 443.964019773 199 405 c 1
 191 405 l 2
 147 405 132 432 132 462 c 2
91 139 m 0
 90.3321692456 300.42087563 273.928645471 370.111401537 414 374 c 1
 414 362 417 334 417 321 c 2
 417 316 l 1
 395 318 369 321 342 321 c 0
 259 321 165 298 153 182 c 0
 153 178 152 175 152 172 c 0
 152 99 233 44 376 41 c 0
 379 41 382 41 385 41 c 0
 461 41 554 61 564 162 c 0
 564 166 565 169 565 173 c 0
 565 238 507 279 479 280 c 1
 509 339 l 1
 510 339 l 2
 563 339 630 287 630 210 c 0
 630 76.9094292588 516.454149853 -44.8023714528 327 -48 c 0
 183 -48 91 22 91 139 c 0
452 188 m 1
 475 411 618 544 753 545 c 1
 755 545 l 2
 902 545 978 427 978 302 c 0
 978 289 978 277 976 264 c 0
 956 103 874 -47 673 -56 c 1
 637 -32 624 17 624 43 c 0
 624 45 624 47 624 49 c 0
 624 51 626 52 626 54 c 1
 657 45 688 41 718 41 c 0
 828.199411502 42.795151411 916.848257344 127.595587545 919 251 c 0
 919 358 832 443 728 443 c 0
 578 443 499 341 499 198 c 2
 499 188 l 1
 490 187 482 186 473 186 c 0
 466 186 459 187 452 188 c 1
34 256 m 1
 54 351 l 1
 130 364 292 374 402 374 c 2
 418 374 l 1
 408 359 l 1
 231 350 101 289 47 256 c 1
 34 256 l 1
EndSplineSet
EndChar

StartChar: si_Ma
Encoding: 50 3512 41
GlifName: si_M_a
Width: 808
Flags: HMW
LayerCount: 2
Back
SplineSet
524.891601562 359.010742188 m 4
 456.94921875 290.022460938 321.486328125 335.688476562 321.29296875 432 c 4
 321.17578125 490.227539062 366.112304688 554 455.599609375 554 c 4
 523.33984375 554 582.448242188 500.404296875 581.577148438 401.115234375 c 4
 580.694335938 300.477539062 498.490234375 211.73046875 376.015625 208.986328125 c 4
 261.750976562 206.426757812 206.807617188 281.86328125 200.357421875 347.005859375 c 5
 168.408203125 334.094726562 130.31640625 285.344726562 130.407226562 213.059570312 c 4
 130.5703125 123.931640625 220.201171875 80.4755859375 360.849609375 80.986328125 c 4
 567.772460938 81.7490234375 701.379882812 203.502929688 707.22265625 368 c 4
 715.336914062 589.1484375 573.952148438 669.040039062 373.584960938 669.040039062 c 4
 248.989257812 669.040039062 165.54296875 608.83203125 163.952148438 610 c 4
 153.401367188 617.749023438 163.803710938 676.360351562 178.536132812 705 c 5
 221.16015625 733.311523438 291.126953125 757.006835938 383.013671875 757.006835938 c 4
 596.002929688 757.006835938 781.587890625 609.374023438 771.663085938 354 c 4
 763.022460938 125.610351562 634.04296875 -39.4921875 381.931640625 -39.4921875 c 4
 159.048828125 -39.4921875 72.701171875 75.2392578125 72.8330078125 181 c 4
 72.9697265625 311.447265625 153.61328125 421.848632812 268 458 c 5
 283 445 l 5
 248.681640625 289.020507812 318.494140625 252.758789062 364.834960938 252.998046875 c 4
 482.995117188 253.607421875 521.721679688 376.596679688 520.569335938 438.48046875 c 4
 519.911132812 474.965820312 492.274414062 510.469726562 450.817382812 510.001953125 c 4
 416.831054688 509.619140625 395.14453125 479.884765625 398 445 c 4
 401.815429688 398.392578125 466.814453125 376.388671875 522.03125 382.051757812 c 5
 524.891601562 359.010742188 l 4
EndSplineSet
Fore
SplineSet
31 224 m 4
 34.3806412302 364.982387685 119.115830664 476.949509261 228 493 c 5
 231 470 l 5
 228 446 226 425 226 405 c 4
 226 326.228346457 288.566929134 283 363 283 c 4
 364 283 365 283 366 283 c 4
 478 284 523 373 523 422 c 4
 523 468.125 483 512 419 512 c 6
 417 512 l 5
 363 510.821428571 329 483.714285714 329 446 c 4
 328.062318529 421.120572932 360.968179095 403.424813556 394 403 c 4
 431 403 482 422 520 470 c 5
 538 466 l 5
 512 370 435 344 397 344 c 4
 325 344 296 388 296 439 c 4
 296 443 296 447 296 451 c 4
 301.4 504 348.92 564 431 564 c 4
 503.868421053 564 570.197368421 514 573 421 c 5
 573 414 l 6
 573 313 494 212 367 212 c 6
 366 212 l 5
 243.095238095 213.273972603 188 292.260273973 188 398 c 4
 188 409 188 420 190 431 c 5
 159.149253731 426.880597015 84 349.065546623 84 247 c 4
 84 134.433862434 196.023502952 62 337 62 c 6
 339 62 l 5
 565.189586291 63.124971748 713 209.416676294 713 428 c 4
 713 619.263358779 576.448275862 707 383 707 c 4
 258.588235294 707 161.529411765 634 158 634 c 4
 156 634 155 642 155 646 c 4
 155 664.529411765 180.846153846 700.705882353 211 721 c 5
 252.266375546 745.230769231 316.641921397 766 400 766 c 4
 626.245614035 766 772 627.845505618 772 407 c 4
 771.870960188 138.847028202 593.250158406 -43 345 -43 c 4
 122.707936508 -43 31 102.447470817 31 224 c 4
EndSplineSet
EndChar

StartChar: si_Mba
Encoding: 51 3513 42
GlifName: si_M_ba
Width: 0
Flags: HM
LayerCount: 2
Back
SplineSet
597 -43 m 0xff60
 761.851485149 -41 817.880749716 187.713671898 819 312 c 0
 821.054551587 534.413860369 692.178998331 742.052103559 421 743 c 0
 250.756276646 743.595080815 128 657 128 657 c 0
 163 600 l 1
 166.27734375 600 258.401202386 680.519648197 399 682 c 0
 673.923632715 684.894645633 753.829143728 523.159785502 748 304 c 0
 745.170304818 197.611237256 692.625991829 64.2781202206 599 56 c 0
 536.401869691 50.465267196 492.691975121 77.6491730976 489 124.466796875 c 1
 501.262695312 146.536790725 531 164.547593046 531 206 c 0
 531 242 491.504254388 271.467014931 418 273 c 0
 352.211358432 274.372070312 312.843299123 239.598097303 312 203 c 0xff60
 311.123046875 164.941362289 335.201171875 139.362866282 356 125.828125 c 1
 340.003334389 74.0218143353 303.868193132 53.3975098481 241 54 c 0
 155.410986713 54.8202325381 109.31206938 135.806800311 109 224 c 0
 108.632970801 327.725266016 149.483604132 407.180774664 217 408 c 0
 254.053710938 408.716796875 261 372 261 328 c 0
 261 285.50031031 304.366310436 225.834038474 428 226 c 0
 534.698830726 226.143228765 583.729416607 293.74091511 587 354 c 0
 591.743667368 441.400020205 525.270718149 503 448 503 c 0
 362.710280374 503 330.349131127 438.459651638 331 402.856445312 c 0
 332.15625 339.608364103 375.82141263 312.761478916 416 312 c 0
 500.056640625 310.406928571 518.451171875 406.666173549 492 458.561523438 c 1
 450 463.561523438 l 1
 481.7578125 423.357421875 465.637222213 363.992928269 419 363.561523438 c 0
 384.101856843 363.238707736 370.623148272 390.029294961 371 410 c 0xfee0
 371.453125 434.012695312 393.834825975 463.27065728 432 463 c 0
 514.059258643 462.418057528 538.923665324 395.857075413 536 349 c 0
 534.071958188 318.099609375 507.94894985 271.489735219 418 273 c 0
 349.775390625 274.145507812 307.819335938 297.576171875 307.819335938 350 c 0
 307.819335938 420.991210938 269.293034769 457.533885084 222 456 c 0
 125.485582854 453.467874461 37.7833728699 346.631898067 41 194 c 4
 42.8230803571 99.0185546873 84.5977425573 -40.3914984207 235 -42 c 0
 336.57584059 -43.2231276495 391.121398891 19.1801242236 402 149 c 1
 402.505859375 149.758789062 367.355038303 167.224177936 368 196 c 0
 368.675659226 226.145433074 424.233364173 225.386744585 427 225 c 1
 429.521875 224.618200231 474.328082939 218.845180075 475 196 c 0
 476 162 442.427734375 148.142578125 443 149 c 1
 438 15.7407407407 510.234365621 -44.0526521408 597 -43 c 0xff60
EndSplineSet
EndChar

StartChar: si_Ya
Encoding: 52 3514 43
GlifName: si_Y_a
Width: 815
Flags: HMW
LayerCount: 2
Back
SplineSet
468 366 m 1xfe
 600.233398438 410.743164062 765 353.65625 765 178 c 0
 765 41.892578125 684.30859375 -53 556 -53 c 0
 447.377929688 -53 382.90234375 13 381 108 c 1
 379 105 414 111 412 108 c 1
 405.076171875 27 349.11328125 -51.3505859375 230 -52 c 0
 83.0166015625 -52.837890625 1.7109375 49.0859375 1 178 c 0
 0.2578125 339.895507812 112.061523438 459.76953125 244 464 c 0
 270.005859375 464.833984375 297 463 321 453 c 1
 312 388 l 5
 279.174804688 402.400390625 253.995117188 404.036132812 211 401 c 4
 142.515625 396.028320312 61.4423828125 344.875976562 63 219 c 0
 64.1357421875 124.959960938 128.778320312 62.5048828125 226 61 c 0
 305.499023438 59.796875 373.727539062 93 376 197 c 1
 412 197 l 1
 412 100 482.93359375 56 564 56 c 0
 668.220703125 56 703.889648438 116.850585938 705 188 c 0xfd
 706.196289062 267.428710938 645.7734375 384.211914062 448 321 c 1
 443 349.743164062 440.703125 349.853515625 439 380 c 0
 429.584960938 484.619140625 513.388671875 548.891601562 600 549 c 0
 671.205078125 549.086914062 737 514 737 434 c 0
 737 338 644 312 644 312 c 1
 618 329 l 1
 618 329 669.208984375 342.997070312 670 402 c 0
 670.643554688 449.994140625 619.1015625 479.125 575 479 c 0
 524.106445312 478.870117188 478.543945312 453 473 401 c 0
 469 355 486 339 486 339 c 1
 468 366 l 1xfe
EndSplineSet
Fore
SplineSet
61 183 m 0
 61 193 62 204 63 214 c 0
 75 351 190 486 375 487 c 1
 400 467 413 445 413 418 c 0
 413 413 412 408 411 402 c 1
 406 402 401 402 396 402 c 0
 236.033333956 398.981487405 100.950464205 341.152022099 97 217 c 0
 97 148 151 103 246 102 c 0
 247 102 248 102 249 102 c 0
 329 102 396 140 420 217 c 1
 446 223 l 1
 445 215 443 208 443 201 c 0
 443 138 500 101 575 101 c 0
 666 101 740 137 748 208 c 0
 748 212 749 216 749 220 c 0
 749 299 655 336 552 336 c 0
 524 336 496 333 469 328 c 1
 469 468 557 577 668 577 c 0
 736 577 782 535 782 485 c 0
 782 483 782 481 782 479 c 0
 779 434 745 404 708 390 c 1
 756 365 782 319 782 247 c 0
 782.343498224 72.092943626 662.58235943 -15.8507119396 549 -14 c 1
 548 -14 l 2
 460 -14 422 46 413 95 c 1
 384 38 331 -12 247 -12 c 0
 120 -12 61 70 61 183 c 0
505 392 m 1
 530 409 566 417 603 417 c 0
 630 417 656 413 679 405 c 1
 697 418 700 441 700 453 c 0
 700 485 672 508 636 508 c 0
 635 508 634 508 633 508 c 0
 576 506 519 458 513 390 c 1
 505 392 l 1
EndSplineSet
Colour: ff00
EndChar

StartChar: si_La
Encoding: 54 3517 44
GlifName: si_L_a
Width: 822
Flags: HMW
LayerCount: 2
Back
SplineSet
293 341 m 1
 381.666992188 336.596679688 470.333007812 339.290039062 559 341 c 1
 559 294 l 1
 293 294 l 1
 293 341 l 1
558 295 m 1
 485.709960938 295 475 262 475 239 c 0
 475 191.264648438 533.000976562 166.736328125 583 168 c 0
 668.5859375 170.1640625 719 218.852539062 719 300 c 0
 719 409.952148438 618.522460938 509.96875 444 510 c 0
 247.467773438 510.034179688 122.024414062 333.000976562 115 145 c 0
 107.534179688 -54.8193359375 218.090820312 -214.833984375 420 -232 c 4
 576.39453125 -245.295898438 682.364257812 -168.98046875 728 -115 c 0
 774 -172 l 0
 731.173828125 -220.060546875 603.452148438 -297.584960938 427 -294 c 0
 176.676757812 -288.915039062 4.7578125 -139.141601562 4 89 c 0
 3.064453125 370.686523438 201.869140625 564 451 564 c 0
 670.543945312 564 787 422 787 296 c 0
 787 155.9453125 700 83 580 83 c 0
 452.512695312 83 405.00390625 152.776367188 404 213 c 0
 403 273 446 323 486 327 c 1
 558 295 l 1
EndSplineSet
Fore
SplineSet
53 67 m 0
 53 315.061523438 249.383604495 562.979121206 524 564 c 0
 718.439345164 564 814 443.177734375 814 310 c 0
 814 176.237687302 713.347898424 83.4770446522 581 79 c 0
 580 79 579 79 578 79 c 0
 470.767123288 79 422 131 422 189 c 0
 422 246.9375 468.060546875 300.696289062 537 323 c 1
 536 320 534 317 533 314 c 1
 352 314 l 1
 356 328.333333333 360 338.844444444 370 357 c 5
 602 357 l 5
 595 314 l 1
 560.940043498 314 479 263.369140625 479 205 c 0
 479 170 516 154 565 155 c 0
 650.918603657 157.129965934 724 223.303571429 724 315 c 0
 724 415.863013699 655.090128755 514 501 514 c 0
 314.571638141 514 158.740569612 329.923828125 156 103 c 0
 156 -96.5015772871 264.296577947 -204 459 -204 c 0
 598.703947368 -204 668.105263158 -160.268817204 733 -121 c 1
 740.584960938 -137.25 733.831100223 -152.256523654 725 -167 c 1
 653 -240 535 -288 411 -288 c 0
 168 -288 53 -117 53 67 c 0
EndSplineSet
Colour: ff00
EndChar

StartChar: si_Sha
Encoding: 56 3521 45
GlifName: si_S_ha
Width: 970
Flags: HMW
LayerCount: 2
Back
SplineSet
873.330078125 287.131835938 m 5x9c
 870.3828125 202.45703125 l 5
 843.862304688 208.05078125 753.356445312 180.313476562 729 144 c 0
 684.297851562 74.296875 741.688476562 25.1318359375 684.94140625 -23.029296875 c 1
 639.595703125 -14.3720703125 l 1
 679.584960938 40.443359375 625.141601562 100.857421875 669.78515625 176.172851562 c 0
 718.65634084 258.620458894 844.76953125 237.546875 873.330078125 287.131835938 c 5x9c
700.759765625 17.6123046875 m 0
 803.730012091 29.5855891603 856.623046875 108.114257812 856.623046875 229.600585938 c 0
 856.623046875 353.83984375 776.359375 445.533203125 636.9375 445.533203125 c 0
 556.0703125 445.533203125 445.365531913 397.33234502 438.877929688 254.823242188 c 1
 388.610351562 238.01171875 l 1
 384.657226562 437.1640625 515.451171875 542.603515625 655.6796875 542.603515625 c 0xdc
 827.643554688 542.603515625 920.870117188 411.889648438 920.870117188 267.375 c 0
 920.870117188 101.1640625 836.109375 -54.5166015625 664.411132812 -55.814453125 c 0
 613.534972106 -56.1990214457 573.655273438 -45.9150390625 555.682617188 -36.138671875 c 1
 580.452148438 40.328125 l 1
 602.016601562 24.771484375 657.087890625 12.5341796875 700.759765625 17.6123046875 c 0
111.974609375 245.841796875 m 0
 111.224947768 128.711194652 180.21484375 50.8837890625 308 47.5908203125 c 0
 414.426757812 44.8486328125 485.633025268 87.9111518545 488 160 c 0
 489.319040698 200.172851562 462.767578125 237 389 237 c 1
 440 291 l 1
 489 290 551.65234375 244.21484375 552 160 c 0
 552.451171875 47.953125 473.594726562 -55.0048828125 308.598632812 -55.0048828125 c 0
 140.69140625 -55.0048828125 53.9951171875 61.9140625 53.9951171875 221.564453125 c 0
 53.9951171875 428.865278548 210.2890625 536 337 538 c 0
 344.879882812 462.879882812 l 0xbc
 249.916015625 462.879882812 113.059980801 415.425256344 111.974609375 245.841796875 c 0
EndSplineSet
Fore
SplineSet
570 36 m 0
 570 38 571 41 571 43 c 0
 580 143 689 213 771 213 c 4
 859 213 876 172 876 172 c 5
 846 100 l 1
 846 100 813 130 756 131 c 0
 755 131 754 131 753 131 c 0
 703 131 606 111 606 27 c 0
 606 -3 663 -43 663 -43 c 1
 642 -20 l 1
 635 -20 570 -19 570 36 c 0
EndSplineSet
Refer: 25 3484 N 1 0 0.0874887 1 0 0 2
Colour: ffff00
EndChar

StartChar: si_Ssa
Encoding: 57 3522 46
GlifName: si_S_sa
Width: 800
Flags: HMW
LayerCount: 2
Back
SplineSet
502 352 m 1xff80
 452 333 l 1
 444 358 436.51166092 375.002839085 437 417 c 0
 438 503 509 556 580 556 c 0
 653 556 705 507 705 427 c 0
 705 359 618 309 618 309 c 1
 582 326 l 1
 616.051757812 347.129882812 650.883968435 377.105468228 651 417 c 0
 651.133789062 463 617 494 568 494 c 0
 519.967032967 494 475 452 475 409 c 0
 475 357 502 352 502 352 c 1xff80
119 209 m 0
 118 124 203 45 388 45 c 0
 563 45 663.451096972 127.008790366 665 216 c 0
 666.775390625 318.00390625 549 348 452 333 c 1
 472 373 l 1
 617 402 740.207129289 330.993840671 736 193 c 0xff40
 731 29 564 -59 383 -59 c 0
 189 -59 38.141811219 32.9981390102 40 180 c 0
 42 330.426470588 197 399.460784314 316 373 c 1
 292 345 l 1
 299 365 312.373079226 386.332036185 308 415 c 0
 299 474 239 505 171 490 c 0
 204 511 l 1
 149 409 l 1
 108 411 81.6005469374 436.013673435 83 471 c 0
 85 521 142 557 202 557 c 0
 272 557 343.891968781 516.997155104 346 439 c 0
 347 402 341 370 332 333 c 1
 208 359 119.917658967 287.001012186 119 209 c 0
643 323 m 5
 552.790039062 270.456054688 517.493868182 251.752985038 394 246 c 4
 363.142552198 244.5625 312.134256665 242.7040476 311 200 c 4
 310.303710938 173.78515625 347.396615788 147.779209587 414 148 c 4
 452.711833742 148.128329842 494.205646484 171.149443457 494.284179688 212 c 4
 494.347656249 245.018554688 465.28515625 262.201171875 453 270 c 5
 487 290 l 5
 486.64453125 268.418945312 533.721679688 261.372070312 534.859375 195 c 4
 535.775855403 141.533398617 478.859285171 95.910077431 384 94 c 4
 279.781839008 91.9014731467 228.94056545 135.838864532 230 190 c 4
 231.369140625 259.994140625 314.1836086 277.727222259 384 281 c 4
 542.53515625 288.431640625 569.885742188 327.166015625 616 345.561523438 c 5
 643 323 l 5
EndSplineSet
Fore
SplineSet
275 193 m 2
 275 200 l 1
 282 270 366 288 436 291 c 0
 596 298 624 318 672 336 c 1
 698 323 l 1
 603 270 567 252 443 246 c 0
 411 245 304 233 304 185 c 0
 304 162 331 148 394 148 c 0
 463 148 540 170 540 215 c 0
 540 242 510 250 489 250 c 2
 482 250 l 1
 507 260 l 1
 526 258 580 260 580 210 c 2
 580 205 l 1
 576 152 525 104 430 102 c 1
 423 102 l 2
 328 102 275 143 275 193 c 2
EndSplineSet
Refer: 1 3508 N 1 0 0.0874887 1 -13 0 2
EndChar

StartChar: si_Ha
Encoding: 59 3524 47
GlifName: si_H_a
Width: 968
Flags: HMW
LayerCount: 2
Back
SplineSet
311 336 m 1
 328.684322621 423.088989699 272.3515625 479.735351562 175 471 c 1
 125 389 l 1
 95 392 71 409 71 446 c 0
 71 513 143 538 196 538 c 0
 276 538 351.656131768 488.983120729 356 404 c 0
 358.56640625 353.791015625 349 331.083007812 342 309 c 1
 311 336 l 1
684.759765625 3.6123046875 m 0
 791.777535116 12.496327719 847.623046875 99.1903866115 847.623046875 236.600585938 c 0
 847.623046875 356.830880893 786.524414062 434.868164062 654.9375 436.533203125 c 0
 573.991210974 437.557459482 435.365234374 390.266996464 448.877929688 254.823242188 c 1
 401.610351562 244.01171875 l 1
 387.657226563 427.034530035 516.451171875 542.603515625 656.6796875 542.603515625 c 0
 831.67250544 542.603515625 911.870117188 412.364576942 911.870117188 268.375 c 0
 911.870117188 76.2184300516 815.321887545 -52.9340033687 641.411132812 -54.814453125 c 0
 600.536132812 -55.275390625 570.655273438 -45.9150390625 552.682617188 -36.138671875 c 1
 578.452148438 29.328125 l 1
 600.016601562 13.771484375 631.103784096 -0.669857815781 684.759765625 3.6123046875 c 0
103.974609375 186.841796875 m 0
 102.698242188 90.696222408 181.2734375 50.7744140625 299 46.5908203125 c 0
 364.454142977 44.2648070691 472.266990439 73.1355346326 474 155 c 0
 475.319335938 217.323217147 447.767578125 238.487179487 402 243 c 1
 445 291 l 1
 486 281.302325581 536.65234375 242.743126211 537 152 c 0
 537.451171875 37.1520215113 459.594726562 -53.0048828125 294.598632812 -53.0048828125 c 0
 136.69140625 -53.0048828125 46.9951171875 28.9163476942 46.9951171875 151.564453125 c 0
 46.9951171875 318.865234375 190.2890625 380 337 372 c 0
 340.879882812 309.879882812 l 0
 215.916015625 329.879882812 105.43359375 286.419921875 103.974609375 186.841796875 c 0
EndSplineSet
Fore
SplineSet
52 150 m 0
 49.9554044361 313.474585691 236.25959708 377.08334196 371 381 c 1
 369 373 369 355 369 339 c 0
 369 325 369 311 370 308 c 1
 348 310 322 312 294 312 c 0
 214 312 124 293 114 192 c 0
 114 189 113 186 113 183 c 0
 113 109 203 44 349 41 c 0
 352 41 355 41 358 41 c 0
 433 41 518 59 527 152 c 0
 527 156 528 161 528 165 c 0
 528 236 468 279 439 280 c 1
 479 339 l 1
 480 339 l 2
 531 339 596 285 596 205 c 0
 596 72.5270827637 487.291685969 -44.1972831722 292 -48 c 0
 148 -48 52 31 52 150 c 0
91 427 m 0
 91 430 91 433 91 436 c 0
 99 523 190 575 264 575 c 4
 369 575 413 521 413 447 c 0
 413 405 399 356 374 307 c 5
 357 312 l 1
 317 338 l 1
 336 369 363 414 367 453 c 1
 367 463 l 2
 367 504 341 519 305 519 c 0
 228 519 180 439 175 382 c 1
 163 378 150 376 139 376 c 2
 134 376 l 1
 109 378 91 395 91 427 c 0
412 188 m 1
 435 411 578 544 713 545 c 1
 715 545 l 2
 862 545 938 427 938 302 c 0
 938 289 938 277 936 264 c 0
 916 103 834 -47 633 -56 c 1
 597 -32 584 17 584 43 c 0
 584 45 584 47 584 49 c 0
 584 51 586 52 586 54 c 1
 617 45 648 41 678 41 c 0
 788.199411502 42.795151411 876.848257344 127.595587545 879 251 c 0
 879 358 792 443 688 443 c 0
 538 443 459 341 459 198 c 2
 459 188 l 1
 450 187 442 186 433 186 c 0
 426 186 419 187 412 188 c 1
EndSplineSet
EndChar

StartChar: si_Lla
Encoding: 60 3525 48
GlifName: si_L_la
Width: 0
Flags: HM
LayerCount: 2
Back
SplineSet
737.662109375 313.857421875 m 1
 681.569335938 331.685546875 506.564453125 358.256835938 391 330 c 0
 297.720703125 307.192382812 165.706054688 248.069335938 167 55 c 0
 167.911132812 -80.93359375 275.409179688 -220.403320312 464 -229 c 0
 612.965820312 -235.790039062 719.771484375 -152.744140625 766 -84 c 0
 815 -139 l 0
 770.939453125 -200.060546875 638.8046875 -292.85546875 458 -294 c 0
 211.450195312 -295.479492188 67.529296875 -165.423828125 67 24 c 0
 66.359375 253.140625 236.697265625 342.377929688 383 376 c 0
 522.771484375 408.12109375 659.041015625 392.354492188 712 375 c 1
 695 369 l 1
 698.79296875 444.918945312 681.073242188 507.33984375 603 500 c 4
 560.47265625 496.001953125 513.913085938 456.166992188 505 356 c 1
 465 356 l 1
 456.25 451.360351562 398.995117188 506.1640625 342 500 c 0
 287.829101562 494.141601562 248.33203125 444.888671875 248 361 c 0
 247.422810077 215.171268371 362.854492188 101.72265625 494 101.3359375 c 0
 598.236406879 101.028567666 660.125976562 132.650390625 717 184 c 1
 741 153 l 1
 681.848632812 71.1279296875 585.524244428 25.4060840538 489 25.9765625 c 0
 302.782226562 27.0771484375 199.740234375 140.541992188 196 326 c 0
 193.739257812 438.076171875 244.391601562 545.588867188 341 560 c 0
 457.916992188 577.44140625 502.899414062 431.340820312 482 399 c 1
 483 416 l 1
 484.694335938 470.4453125 535.126953125 559.370117188 618 560 c 0
 683.361328125 560.497070312 737.0989706 519.587484908 742 405 c 0
 743.823242188 362.372070312 740.545898438 343.486328125 737.662109375 313.857421875 c 1
EndSplineSet
EndChar

StartChar: si_Fa
Encoding: 61 3526 49
GlifName: si_F_a
Width: 0
Flags: HM
LayerCount: 2
Back
SplineSet
363 -13 m 1
 333.881835938 -25.3193359375 298.634765625 -34.6181640625 248 -33.93359375 c 0
 107.943359375 -32.0400390625 34 85.7525887482 34 228 c 0
 34 384 121.999997703 520.000156233 258 522 c 0
 382.986328125 523.837890625 431 437 433 362 c 1
 435 365 400 359 402 362 c 1
 409 443 482.002929688 521.33203125 583 522 c 0
 734.000976562 522.999023438 796.434570312 373.00390625 797 254 c 0
 797.831054688 78.9990234375 708.955078125 -30.02734375 592 -33 c 0
 555.997070312 -33.9150390625 510 -27 486 -17 c 1
 505 45 l 1
 531 23 570 17 604 20 c 0
 664.065429688 25.2998046875 727.599609375 89.994140625 726 224 c 0
 724.805664062 323.990234375 678.046875 407.399414062 580 409 c 0
 510.039535505 410.142083678 450 357 448 273 c 1
 392 273 l 1
 392 370 321.948278846 416.881019058 252 414 c 0
 141.022045076 409.429056892 106.696289062 303.002929688 104 219 c 0
 100.829101562 120.224609375 142.603515625 20.6630859375 259 20 c 0
 285.412109375 19.849609375 311.651367188 22.8125 344 45 c 1
 363 -13 l 1
EndSplineSet
EndChar

StartChar: si_Halant
Encoding: 62 3530 50
GlifName: si_H_alant
Width: 1
Flags: HMW
LayerCount: 2
Back
SplineSet
28 866 m 1
 28 820.333007812 28 774.666992188 28 729 c 1
 44 708 62.9814453125 706.276367188 76 707 c 0
 94 708 109 727 106 767 c 0
 103 806 75 850 28 866 c 1
6 685 m 1
 5.828125 683.069335938 25.6865234375 688.06640625 25.572265625 686 c 1
 23.0244140625 639.911132812 34.3857421875 532.184570312 43 514 c 1
 -16 514 l 1
 -23 565 -21 670 -21 737 c 1
 -22 920 l 1
 54 911 169 868 165 743 c 0
 163 689 125.046875 657 82 657 c 0
 41 657 15 679 6 685 c 1
EndSplineSet
Fore
SplineSet
103 737 m 2
 103.800359315 688.347971472 134.426536432 655.339051323 182 651 c 0
 205 651 224 666 224 697 c 0
 224 759 150 780 107 787 c 1
 103 744 l 5
 103 737 l 2
38 491 m 1
 79 858 l 1
 94 871 l 1
 122 864 248 833 255 710 c 0
 255 706 256 702 256 698 c 0
 256 644 232 595 171 594 c 1
 169 594 l 2
 129 594 103 624 95 653 c 1
 81 491 l 1
 38 491 l 1
EndSplineSet
Colour: ff00
EndChar

StartChar: si_MatraAa
Encoding: 63 3535 51
GlifName: si_M_atraA_a
Width: 398
Flags: HMW
LayerCount: 2
Back
SplineSet
59 440 m 1
 85 419 l 1
 102.233398438 430.538085938 136.473632812 450.502929688 183 444 c 0
 261.008789062 431.5859375 296.154296875 350.3984375 293 231 c 0
 289.97265625 124.423828125 248.96484375 26.69140625 172 17 c 0
 132.201171875 12.62109375 90.9521484375 26.9599609375 80 33 c 1
 58 7 l 1
 70.796875 -10.5 116.87109375 -35.92578125 175 -33 c 0
 312.93359375 -26.056640625 379.788085938 122.322265625 383 234 c 0
 387.069335938 378.272460938 319.327148438 493.89453125 193 499 c 0
 142.083984375 501.081054688 87.7236328125 474.416992188 59 440 c 1
EndSplineSet
Fore
SplineSet
3 23 m 0
 3 47.0831891576 11 66 23 83 c 1
 45 76 92 63 130 63 c 0
 238 63 322 151 322 296 c 0
 322 378 268 428 167 428 c 0
 133 428 95 415 68 400 c 1
 68 411 l 2
 68 426 70 443 76 460 c 1
 106 487 145 522 212 522 c 0
 287 522 365 455 365 304 c 0
 365 287 364 270 362 251 c 0
 348 128 286 -33 131 -33 c 0
 64 -33 3 3.89502682546 3 23 c 0
EndSplineSet
Colour: ff00
EndChar

StartChar: si_MatraAe
Encoding: 64 3536 52
GlifName: si_M_atraA_e
Width: 378
Flags: HMW
LayerCount: 2
Back
SplineSet
159 96 m 0x40
 143.75390625 7.5224609375 152.063476562 -89.5732421875 254 -97 c 0
 317.692382812 -101.640625 349 -71.2119140625 372 -51 c 1
 393 -73 l 1
 378.114257812 -116.75 305.828125 -174.841796875 225 -173 c 0
 88.068359375 -169.87890625 59.5498046875 -73.234375 74 40 c 0
 89.9677734375 174.331054688 186.349609375 293.0390625 224.163085938 332 c 1x40
 177.428710938 329.587890625 87.0732421875 326.22265625 29 323.856445312 c 1
 30 388.116210938 l 5x80
 52.9091796875 388.107421875 241.430664062 387.998046875 275 388 c 5
 275 323 l 1
 225.875976562 285.021484375 173.067382812 177.639648438 159 96 c 0x40
EndSplineSet
Fore
SplineSet
24 18 m 2
 24 37 l 1
 36 217 214 376 303 380 c 1
 56 330 l 1
 58 350 61 394 66 420 c 1
 363 420 l 1
 365 320 l 1
 352 308 l 1
 246 300 92 195 79 60 c 1
 79 47 l 2
 79 -32 156 -71 243 -71 c 0
 290 -71 363 -44 384 -17 c 1
 394 -73 l 1
 372 -106 298 -173 209 -173 c 0
 76 -173 24 -80 24 18 c 2
EndSplineSet
Colour: ff00
EndChar

StartChar: si_MatraAae
Encoding: 65 3537 53
GlifName: si_M_atraA_ae
Width: 417
Flags: HMW
LayerCount: 2
Back
SplineSet
75 412 m 1xc0
 309 412 l 1xc0
 309 358 l 1
 216 324.43359375 l 5
 127 303 l 1
 65 309 l 1
 189 355.081054688 l 1
 273 372 l 1xa0
 243 364 l 1
 75 364 l 1
 75 412 l 1xc0
206 88 m 0
 187.103515625 4.6083984375 191.1640625 -90.5087890625 289 -97 c 0
 352.720703125 -101.227539062 384 -71.2119140625 407 -51 c 1
 428 -73 l 1
 413.114257812 -116.75 340.828125 -174.842773438 260 -173 c 0
 123.068359375 -169.87890625 89.22265625 -72.42578125 109 40 c 0
 128.04296875 148.252929688 227.811523438 232.37890625 279.163085938 262 c 1
 227.614257812 261.661132812 129.0546875 261.188476562 65 260.856445312 c 1
 65 309.116210938 l 1
 87.9091796875 309.107421875 285.431640625 308.998046875 319 309 c 1
 319 253 l 1
 273.961914062 225.39453125 221.813476562 157.787109375 206 88 c 0
EndSplineSet
Fore
SplineSet
33 15 m 0
 33 19 33 23 33 27 c 0
 39 147 165 275 296 293 c 1
 328 237 l 1
 320 231 l 1
 206 225 90 170 79 54 c 0
 79 49 78 45 78 40 c 0
 78 -43 154 -85 232 -85 c 0
 293 -85 348 -56 383 -27 c 1
 387 -35 394 -50 394 -65 c 0
 394 -68 395 -70 394 -73 c 0
 373 -106 312 -173 219 -173 c 0
 95 -173 33 -85 33 15 c 0
96 354 m 1
 104 422 l 1
 313 422 l 1
 304 369 l 1
 184 305 l 1
 239 300 311 292 334 290 c 1
 332 269 331 254 329 238 c 1
 208 267 l 1
 182 270 149 276 116 279 c 5
 120 315 l 5
 235 371 l 1
 96 354 l 1
EndSplineSet
Colour: ff00
EndChar

StartChar: si_MatraI
Encoding: 66 3538 54
GlifName: si_M_atraI_
Width: 0
VWidth: -28
Flags: HM
AnchorPoint: "si_MaI" 88 559 mark 0
LayerCount: 2
Back
Refer: 51 3535 N 1 0 0 1 0 0 2
Fore
SplineSet
-187 625 m 0
 -179.609849238 756.768056702 -29.8291332706 796.161313752 119 800 c 0
 122 800 125 800 128 800 c 4
 232 799 370 765 370 659 c 0
 370 594 316 543 279 529 c 13
 264 554 l 21
 288 572 305 591 305 625 c 2
 305 635 l 5
 300 693 179 702 111 703 c 5
 71 703 l 1
 -23.6809274898 700.99954843 -122.907741463 699.863579777 -126 618 c 0
 -126 584 -96 574 -78 566 c 13
 -102 531 l 21
 -152 548 -187 577 -187 625 c 0
EndSplineSet
EndChar

StartChar: si_MatraIi
Encoding: 67 3539 55
GlifName: si_M_atraI_i
Width: 0
VWidth: -28
Flags: HM
AnchorPoint: "si_MaI" 88 559 mark 0
LayerCount: 2
Back
SplineSet
-185 531 m 21
 -248 551 -291.833007812 588.24609375 -286 655 c 4
 -277 758 -139 802 2 800 c 4
 106 799 249.903320312 764.702148438 266 659 c 4
 275.955078125 593.627929688 231 543 196 529 c 13
 177 554 l 21
 200 574 214.749023438 594.73046875 205 635 c 4
 190.84375 693.477539062 68 701.96875 0 703 c 4
 -94.994140625 704.44140625 -214 706 -223 641 c 4
 -230.40625 587.510742188 -191 576 -168 566 c 13
 -185 531 l 21
EndSplineSet
Fore
SplineSet
-187 625 m 0
 -179.609849238 756.768056702 -29.8291332706 796.161313752 119 800 c 0
 122 800 125 800 128 800 c 4
 232 799 370 765 370 659 c 0
 370 594 316 543 279 529 c 13
 264 554 l 21
 288 572 305 591 305 625 c 2
 305 635 l 5
 300 693 179 702 111 703 c 5
 71 703 l 1
 -23.6809274898 700.99954843 -122.907741463 699.863579777 -126 618 c 0
 -126 584 -96 574 -78 566 c 13
 -102 531 l 21
 -152 548 -187 577 -187 625 c 0
EndSplineSet
EndChar

StartChar: si_MatraU
Encoding: 68 3540 56
GlifName: si_M_atraU_
Width: 0
VWidth: 0
Flags: HM
AnchorPoint: "si_MaU" 59 169 mark 0
LayerCount: 2
Back
SplineSet
-388 -115 m 17
 -361.227539062 -160 l 1
 -361.23046875 -152.99609375 -427.812711241 -191.887525396 -427.809570312 -226 c 0
 -427.80528394 -272.552734178 -403.698875123 -285.247071992 -352 -285.247070312 c 1
 -35 -287 l 9
 -35 169 l 25
 22 169 l 25
 28 -367 l 17
 28 -367 -247.995117188 -369.6796875 -424 -370.586914062 c 0
 -504 -371 -545.244140625 -321.6015625 -546 -271 c 0
 -547.62890625 -161.938476562 -388 -115 -388 -115 c 17
EndSplineSet
Fore
SplineSet
-652 -285 m 0
 -650.403844959 -167.400429182 -468 -115 -468 -115 c 17
 -448 -160 l 2
 -448 -159 -448 -159 -449 -159 c 0
 -460.08181288 -161.936983636 -527 -197.132164648 -527 -242 c 0
 -527 -276 -505 -285 -459 -285 c 2
 -63 -287 l 9
 9 169 l 25
 59 169 l 25
 -20 -367 l 17
 -20 -367 -368 -370 -544 -371 c 0
 -617 -371 -652 -331 -652 -285 c 0
EndSplineSet
EndChar

StartChar: si_MatraUu
Encoding: 69 3542 57
GlifName: si_M_atraU_u
Width: 0
VWidth: 0
Flags: HM
AnchorPoint: "si_MaU" 49 169 mark 0
LayerCount: 2
Back
SplineSet
-448 -165 m 25
 -436 -251 l 25
 88 -247 l 25
 82 129 l 25
 -5 129 l 25
 -5 -167 l 25
 -448 -165 l 25
EndSplineSet
Fore
SplineSet
-592 -297 m 0
 -592.88993218 -196.28793949 -455 -125 -455 -125 c 17
 -427 -159 l 1
 -434.555818802 -160.199677508 -495.729876915 -206.370239192 -493 -251 c 0
 -493 -279 -474 -297 -443 -297 c 0
 -441 -297 -439 -297 -437 -297 c 0
 -380 -293 -318 -239 -242 -236 c 1
 -232 -236 l 2
 -155 -236 -108 -270 -72 -297 c 1
 2 169 l 25
 49 169 l 25
 -31 -377 l 1
 -93 -376 l 1
 -140 -341 -195 -310 -249 -310 c 0
 -252 -310 -255 -310 -258 -310 c 0
 -346 -315 -410 -381 -500 -381 c 0
 -563 -381 -592 -342 -592 -297 c 0
EndSplineSet
EndChar

StartChar: si_MatraR
Encoding: 70 3544 58
GlifName: si_M_atraR_
Width: 377
VWidth: -11
Flags: HMW
LayerCount: 2
Back
SplineSet
17 449 m 1
 37 419 l 1
 54.2334365325 430.538461539 88.4282279166 450.171453115 135 444 c 0
 206.044410511 434.585557969 240.953858779 350.39868523 238 231 c 0
 235.673454122 126.415584854 209.685365321 33.540720618 145 21 c 0
 99.8863052159 13.532603167 60.0982142857 27.0795774275 34 43 c 1
 11 13 l 1
 26.5941190945 -5.285 71.3400420364 -35.6498516338 144 -33 c 0
 286.939560226 -27.7871064363 343.865398935 122.321918812 347 234 c 0
 351.326443431 378.272912215 294.556180949 498.894728402 145 499 c 0
 96.3287827409 499.034259345 44.4375244811 473.166666667 17 449 c 1
EndSplineSet
Fore
SplineSet
40 64 m 0
 40 -10 106 -33 170 -33 c 2
 172 -33 l 2
 327 -33 388 128 402 251 c 0
 404 270 405 287 405 304 c 0
 405 455 327 522 252 522 c 0
 185 522 146 487 116 460 c 1
 110 443 108 426 108 411 c 2
 108 400 l 1
 135 415 173 428 207 428 c 0
 308 428 362 378 362 296 c 0
 362 151 258 46 171 46 c 0
 134 46 116 62 116 91 c 0
 117.581185714 157.859633463 174.906744914 197.445520584 207 206 c 4
 217 208 227 209 236 209 c 0
 282 209 322 184 354 157 c 1
 366 238 l 5
 345 248 306 253 270 253 c 0
 246 253 224 251 208 247 c 0
 132.953802102 229.404559983 45.0121275896 173.885769498 40 64 c 0
EndSplineSet
EndChar

StartChar: si_MatraE
Encoding: 71 3545 59
GlifName: si_M_atraE_
Width: 643
VWidth: -10
Flags: HMW
LayerCount: 2
Back
SplineSet
313 157 m 4
 255.081054688 160.048828125 225 204 225 247 c 4
 225 321 295.996232903 364.285672889 366 365 c 0
 457.000756775 365.928582995 551.537146707 304.978720126 546 172 c 0
 541.655737705 72 461.286885246 -44 281 -44 c 0
 106.011363636 -44 5.04488585503 78.4458592855 20 244 c 0
 36.1881188119 424.993150685 166.769115485 546 347 546 c 0
 469.480446927 546 536 489 536 489 c 0
 497 427 l 1
 495 427 444.751953125 479.645507812 338 487 c 0
 209.078125 495.052734375 87.5294756928 413.662785823 78 284 c 0
 66.9070806138 133.064221695 179.333007812 55.640625 275 48 c 0
 379.729492188 39.6357421875 470.897630752 65.0259085152 487 174 c 0
 499.953781854 266.2671434 431.995346331 330.335991006 363 329 c 0
 306.949367089 328 281 297 281 263 c 0
 281 239 302.145114339 216.832389055 335 216 c 0
 371.235294118 215.2 391 236 391 256 c 0
 391 323.307692308 343.52173913 331 335 331 c 1
 362 337 394.527617292 334.682723095 396 333 c 0
 405 322.714285714 429 306.714285714 429 253 c 0
 429 208 389 153 313 157 c 4
EndSplineSet
Fore
SplineSet
48 185 m 4
 48 415.325302561 235.801515928 559.565011772 433 561 c 4
 563.105263158 561 625 507 625 507 c 5
 642.222830559 486.397289173 646.711875364 459.704437085 652 434 c 5
 652 434 559.659574468 505 404 505 c 4
 256.504471198 504.37685364 117.241805016 410.992578692 115 236 c 4
 115 104.497109827 211.909547739 54 318 54 c 4
 414.053658537 54 512.087804878 106.769230769 521 222 c 4
 521 226 522 230 522 234 c 4
 522 300 474 344 417 344 c 4
 366 344 332 316 332 282 c 4
 332 260 351 241 382 241 c 4
 415 241 430 258 432 280 c 4
 432 283 433 287 433 290 c 4
 433 340 395 346 387 346 c 5
 400 349 415 350 427 350 c 4
 439 350 447 349 448 348 c 4
 454 339 471 327 471 291 c 4
 471 287 470 283 470 279 c 4
 465.64516129 231.859813084 428.193548387 182 362 182 c 4
 310 182 279 219 279 259 c 6
 279 266 l 5
 285.312883436 339.548387097 361.067484663 380 426 380 c 4
 499.802631579 380 568 331.164383562 568 225 c 4
 562.274581227 78.88925986 469.105516732 -36.4990065191 295 -39 c 4
 145 -39 48 53 48 185 c 4
EndSplineSet
Colour: ff00
EndChar

StartChar: si_MatraLs
Encoding: 77 3551 65
GlifName: si_M_atraL_s
Width: 580
VWidth: -11
Flags: HMW
LayerCount: 2
Back
Refer: 51 3535 N 1 0 0 1 77 0 2
Fore
SplineSet
87 310 m 0
 86.6263770601 217.874043042 137.406637291 154.162688288 243 154 c 0
 323.406437785 153.907859298 406.48905884 200.432081662 413 303 c 0
 413 348 382 390 322 390 c 0
 305 390 286 386 286 386 c 1
 279 340 l 1
 323 340 341 315 341 285 c 0
 341 283 340 280 340 278 c 0
 337 246 302 211 251 211 c 0
 189.245192987 213.287371501 151.975877517 244.20628165 149 330 c 0
 149.605399218 405.911812377 179.794128903 463.528839713 225 530 c 1
 169 539 l 1
 129.195165123 484.878959288 87.7591281857 399.00023645 87 310 c 0
143 37 m 1
 150 -34 228 -62 295 -63 c 0
 298 -63 301 -63 304 -63 c 0
 498 -63 577 80 605 253 c 0
 611 287 613 318 613 345 c 0
 613 512 516 540 458 543 c 0
 455 543 452 543 449 543 c 0
 332 543 261 438 255 339 c 1
 307 340 l 1
 305 396 345 476 414 476 c 2
 419 476 l 1
 490 472 512 410 512 338 c 0
 512 310 508 280 503 251 c 0
 484 153 442 -7 320 -7 c 0
 236 -7 211 20 189 63 c 1
 143 37 l 1
EndSplineSet
EndChar

StartChar: si_VI
Encoding: 365 -1 67
GlifName: si_V_I_
Width: 760
Flags: HMW
LayerCount: 2
Back
SplineSet
376 274 m 1
 230 290 125 245 129 158 c 0
 131.939453125 94.0595703125 204.999023438 55.1953125 345 56 c 0
 519 57 618 173 618 326 c 0
 680 321 l 0
 680 107 571.001953125 -56.423828125 335 -58 c 0
 179 -59.0419921875 49.349609375 8.0439453125 46 137 c 0
 42 291 219 325 341 318 c 1
 351 378 304 428 212 428 c 1
 186 347 l 1
 135 340 100 369 109 415 c 0
 119 471 177 490 224 490 c 0
 300 490 380 453 384 349 c 0
 385.383789062 313.026367188 376 274 376 274 c 1
EndSplineSet
Refer: 356 -1 S 1 0 0 1 0 0 2
Fore
SplineSet
72 130 m 0
 72 135 73 140 73 145 c 0
 86 296 244 343 349 343 c 0
 358 343 368 343 376 342 c 1
 376 352 l 2
 376 410 337 432 291 432 c 0
 239 432 203 385 202 374 c 1
 197 373 192 373 187 373 c 0
 148 373 127 394 127 423 c 2
 127 428 l 1
 132 484 189 517 247 517 c 0
 374 517 428 418 428 330 c 0
 427.757791862 309.796069348 425.155583346 292.158768763 421 275 c 1
 400 259 l 1
 375 263 348 265 322 265 c 0
 219 265 129 242 123 168 c 0
 123 166 122 164 122 162 c 0
 122 106 200 72 309 72 c 2
 322 72 l 1
 553 78 670 198 688 405 c 1
 749 373 l 1
 728 133 570 -39 333 -39 c 0
 190 -39 72 16 72 130 c 0
EndSplineSet
Refer: 356 -1 S 1 0 0.0874887 1 -1 0 2
Ligature2: "si_abvs_1 subtable" si_Va si_MatraI
LCarets2: 1 0
Ligature2: "'abvs' Above Base Substitutions in Sinhala lookup 0-1" si_Va si_MatraI
EndChar

StartChar: si_MatraU.alt
Encoding: 85 -1 70
GlifName: si_M_atraU_.alt
Width: 780
VWidth: 0
Flags: HMW
LayerCount: 2
Back
SplineSet
248 -115 m 17
 274.772460938 -160 l 1
 274.76953125 -152.99609375 208.1875 -191.887695312 208.190429688 -226 c 0
 208.194335938 -272.552734375 232.30078125 -285.247070312 284 -285.247070312 c 1
 601 -287 l 9
 601 169 l 25
 658 169 l 25
 664 -367 l 17
 664 -367 388.004882812 -369.6796875 212 -370.586914062 c 0
 132 -371 90.755859375 -321.6015625 90 -271 c 0
 88.37109375 -161.938476562 248 -115 248 -115 c 17
EndSplineSet
Fore
SplineSet
46 -185 m 0
 46 -181 47 -176 47 -172 c 0
 52 -122 99 -55 179 -54 c 0
 225 -54 262 -84 262 -84 c 1
 254 -109 l 1
 240 -105 227 -104 215 -104 c 0
 158 -104 121 -138 118 -168 c 4
 118 -170 118 -172 118 -174 c 0
 118 -205 139 -228 183 -228 c 2
 188 -228 l 1
 624 -196 l 1
 669 209 l 1
 706 209 l 1
 665 -289 l 1
 202 -289 l 2
 80 -289 46 -236 46 -185 c 0
EndSplineSet
EndChar

StartChar: si_MatraUu.alt
Encoding: 86 -1 71
GlifName: si_M_atraU_u.alt
Width: 0
VWidth: 0
Flags: HM
AnchorPoint: "si_MaU" 57 209 mark 0
LayerCount: 2
Fore
SplineSet
-616 -258 m 1
 -607 -178 -528 -114 -467 -106 c 1
 -448 -151 l 1
 -497 -165 -521 -198 -524 -222 c 0
 -524 -225 -525 -229 -525 -232 c 0
 -525 -264 -500 -279 -457 -279 c 2
 -453 -279 l 5
 -379 -277 -305 -230 -234 -226 c 0
 -228 -226 -222 -225 -216 -225 c 0
 -162 -225 -119 -242 -83 -268 c 9
 -10 209 l 25
 57 209 l 25
 -36 -369 l 17
 -100 -338 -140 -299 -239 -299 c 2
 -250 -299 l 1
 -315 -301 -403 -364 -498 -364 c 0
 -589 -364 -616 -319 -616 -272 c 2
 -616 -258 l 1
EndSplineSet
EndChar

StartChar: si_Rakar.alt
Encoding: 88 -1 72
GlifName: si_R_akar
Width: 776
VWidth: -24
Flags: HMW
LayerCount: 2
Back
SplineSet
710 217 m 13
 736 210 l 29
 736 210 737.791460669 163.739318268 733 103 c 4
 717.53805264 -88.9552825327 623.783678929 -308.121598998 361 -309 c 4
 140.07699775 -309.663443429 32.9088980374 -199.176818848 27 -179 c 13
 64 -158 l 29
 64 -158 152.41243175 -207.191959404 362 -203 c 4
 650.485866987 -194.912482782 700.90024363 43.6137537122 710 217 c 13
EndSplineSet
Fore
SplineSet
34 -139 m 9
 75 -118 l 17
 75 -118 139 -233 353 -233 c 0
 359 -233 365 -233 371 -233 c 0
 638 -226 697 68 724 222 c 9
 750 210 l 25
 750 210 745 140 728 79 c 0
 678 -101 591 -309 336 -309 c 2
 328 -309 l 1
 100 -305 37 -165 34 -139 c 9
EndSplineSet
EndChar

StartChar: si_KU
Encoding: 92 -1 76
GlifName: si_K_U_
Width: 1085
VWidth: -24
Flags: HMW
LayerCount: 2
Back
SplineSet
796 9 m 0xbe
 905.836914062 22.0703125 941.120117188 174.231445312 915 279 c 0
 885.174804688 398.631835938 760.228515625 466.868164062 625 462 c 0
 525.9140625 458.697265625 448.959960938 431.771484375 355 374 c 1
 338 362 349 367 335 355 c 1
 238 276 156 211 56 79 c 1
 56 79 21.126953125 98.5439453125 27 107 c 0
 127 251 217 322 315 413 c 1
 322 419 331 420 338 425 c 1
 435.860351562 505 556.172851562 555.573242188 672 561 c 0
 861.928710938 570.465820312 1001 450 1015 282 c 0
 1028.55566406 112.560546875 927.639648438 -33 775 -33 c 0
 796 9 l 0xbe
288 377 m 1
 300 400 304 421 303 439 c 0
 301 481 264.760742188 505.678710938 215 501 c 0
 180.934570312 497.796875 145 470 151 426 c 1
 191 371 l 1
 177 347 154.001953125 335.022460938 132 336 c 0
 87 338 67 369 67 415 c 0
 67 495 133.983398438 563.181640625 231 559 c 0
 313.926757812 555.42578125 363 480 336 416 c 0
 321 380 336 404 323 387 c 1
 288 377 l 1
107 165 m 1
 115 169 124 172 131 172 c 0
 179 173 188 72 271 72 c 0
 320 72 370 101 371 197 c 1
 406 197 l 0
 407 94 466.997070312 71.1669921875 527 72 c 0
 587.002929688 72.8330078125 638 118 638 194 c 0
 638 273 566 340 452 345 c 0
 390.059570312 347.716796875 314 329 281 311 c 1
 335 364 l 1
 348 368 381.99609375 390.330078125 459 391 c 0
 574 392 696 332 696 182 c 0
 696 48 620.995117188 -34.9423828125 516 -36 c 0
 430.693359375 -36.859375 397.721679688 8.326171875 379 49 c 1
 397 49 l 1
 379.737304688 7.81640625 336.954101562 -36 272 -36 c 0xde
 113.997070312 -36 160 169 95 130 c 0
 107 165 l 1
EndSplineSet
Refer: 364 -1 S 1 0 0 1 795 1 2
Fore
SplineSet
35 105 m 0
 35 106 36 106 36 107 c 0
 149 251 245 322 351 413 c 0
 359 419 368 420 375 425 c 0
 480 505 605 556 721 561 c 0
 728 561 735 562 742 562 c 0
 919 562 1039 449 1039 283 c 0
 1037.18835259 106.646700662 922.975593347 -30.5875938656 772 -33 c 1
 797 9 l 1
 891.817690238 22.5620225298 940.471566547 127.230760661 942 235 c 0
 943.145727311 386.842549172 822.889561726 458.663530065 679 462 c 0
 571 462 490 435 388 374 c 0
 369 363 381 367 366 355 c 0
 262 276 175 211 63 79 c 1
 63 79 35 96 35 105 c 0
103 402 m 2
 103 415 l 1
 110 493 180 559 272 559 c 0
 341 559 383 514 383 462 c 0
 383 459 383 456 383 453 c 0
 384.765731869 438.995134757 364.981705651 403.300629969 364 395 c 0
 364 393 366 397 357 387 c 1
 321 377 l 1
 334 398 340 417 341 434 c 1
 341 442 l 2
 341 480 314 502 271 502 c 0
 232 502 188 476 184 433 c 1
 223 371 l 1
 208 348 184 336 163 336 c 0
 120 336 103 363 103 402 c 2
106 130 m 1
 121 165 l 1
 129 169 139 172 146 172 c 2
 147 172 l 2
 194 172 194 72 277 72 c 0
 326 72 379 101 388 197 c 1
 423 197 l 1
 423 191 422 185 422 179 c 0
 422 93 475 72 530 72 c 0
 592 72 648 117 655 194 c 1
 655 205 l 2
 655 282 585 345 470 345 c 0
 411 345 340 328 308 311 c 1
 367 364 l 1
 379 368 419 391 496 391 c 0
 604 391 713 337 713 205 c 0
 709.824574674 57.7825302185 623.863639386 -36.5208367702 511 -36 c 0
 427 -36 399 9 383 49 c 1
 401 49 l 1
 380 8 334 -36 269 -36 c 0
 125 -36 166 135 122 135 c 0
 118 135 112 133 106 130 c 1
EndSplineSet
Refer: 364 -1 N 1 0 0.0874887 1 795 1 2
LCarets2: 1 0
Ligature2: "si_blws_1 subtable" si_Ka si_MatraU
EndChar

StartChar: si_GU
Encoding: 111 -1 95
GlifName: si_G_U_
Width: 959
VWidth: -24
Flags: HMW
LayerCount: 2
Back
SplineSet
665.759765625 8.6123046875 m 0xee
 798.73046875 0.5859375 856.623046875 108.114257812 856.623046875 229.600585938 c 0
 856.623046875 353.83984375 776.359375 445.533203125 636.9375 445.533203125 c 0
 556.0703125 445.533203125 445.365234375 397.33203125 438.877929688 254.823242188 c 1
 388.610351562 238.01171875 l 1
 384.657226562 437.1640625 515.451171875 542.603515625 655.6796875 542.603515625 c 0
 827.643554688 542.603515625 920.870117188 411.889648438 920.870117188 267.375 c 0
 920.870117188 101.1640625 847.109375 -54.5166015625 664.411132812 -45.814453125 c 4
 665.759765625 8.6123046875 l 0xee
111.974609375 245.841796875 m 0
 111.224609375 128.7109375 180.21484375 50.8837890625 308 47.5908203125 c 0
 414.426757812 44.8486328125 485.6328125 87.9111328125 488 160 c 0
 489.319335938 200.172851562 462.767578125 237 389 237 c 1
 440 291 l 1
 489 290 551.65234375 244.21484375 552 160 c 0
 552.451171875 47.953125 473.594726562 -55.0048828125 308.598632812 -55.0048828125 c 0
 140.69140625 -55.0048828125 53.9951171875 61.9140625 53.9951171875 221.564453125 c 0
 53.9951171875 428.865234375 210.2890625 536 337 538 c 0
 344.879882812 462.879882812 l 0xde
 249.916015625 462.879882812 113.059570312 415.424804688 111.974609375 245.841796875 c 0
EndSplineSet
Refer: 364 -1 N 1 0 0 1 665 1 2
Fore
SplineSet
72 186 m 0
 70.4632041891 413.700375381 249.915611963 537.058301144 384 538 c 1
 378 463 l 1
 278.112890953 466.083546736 132.870382736 403.478067435 132 220 c 0
 132 115 198 47 322 47 c 0
 423 47 496 91 502 163 c 0
 502 165 503 168 503 170 c 0
 503 206 478 237 410 237 c 1
 465 291 l 1
 511 290 567 249 567 173 c 0
 567 168 566 164 566 159 c 0
 556 47 469 -55 304 -55 c 0
 149 -55 72 45 72 186 c 0
412 239 m 1
 429 432 566 543 704 543 c 0
 864 543 946 429 946 296 c 0
 946 117.215002359 856.385218643 -43.8996137402 675 -46 c 0
 670 -46 665 -46 660 -46 c 5
 665 9 l 1
 670 9 676 8 681 8 c 0
 811.20994627 9.87063996253 874.617451543 122.153718032 878 254 c 0
 878 366 806 446 676 446 c 0
 595 446 480 398 461 255 c 1
 412 239 l 1
EndSplineSet
Refer: 364 -1 N 1 0 0.0874887 1 665 1 2
LCarets2: 1 0
Ligature2: "si_blws_1 subtable" si_Ga si_MatraU
EndChar

StartChar: si_CI
Encoding: 136 -1 120
GlifName: si_C_I_
Width: 811
VWidth: -14
Flags: HMW
LayerCount: 2
Back
Refer: 5 3488 N 1 0 0 1 0 0 2
Fore
SplineSet
36 244 m 1
 56 339 l 1
 132 352 310 362 422 362 c 2
 438 362 l 1
 430 347 l 1
 253 338 102 267 48 234 c 1
 36 244 l 1
112 130 m 0
 112 135 113 140 113 145 c 0
 126 296 295 353 400 353 c 0
 409 353 419 353 427 352 c 1
 427 362 l 2
 427 420 388 442 342 442 c 0
 290 442 254 395 253 384 c 1
 248 383 243 383 238 383 c 0
 199 383 178 404 178 433 c 2
 178 438 l 1
 183 494 240 527 298 527 c 0
 425 527 479 428 479 340 c 0
 478.757791862 319.796069348 476.155583346 302.158768763 472 285 c 1
 451 269 l 1
 426 273 399 275 373 275 c 0
 270 275 169 242 163 168 c 0
 163 166 162 163 162 161 c 0
 162 104 228 82 343 82 c 0
 573 82 710 198 728 405 c 1
 789 373 l 1
 768 133 610 -39 373 -39 c 0
 230 -39 112 16 112 130 c 0
EndSplineSet
Refer: 356 -1 N 1 0 0.0874887 1 40 0 2
LCarets2: 1 0
Ligature2: "si_abvs_1 subtable" si_Ca si_MatraI
EndChar

StartChar: si_Tt.halant
Encoding: 197 -1 144
GlifName: si_T_t.halant
Width: 760
Flags: HMW
LayerCount: 2
Back
SplineSet
353.442382812 334 m 1xfa
 327.442382812 346 293.442382812 352 260.442382812 350 c 0
 190.369140625 345.8515625 117.5546875 302.787109375 116.442382812 218 c 0
 115.442382812 140.005859375 171.440018336 54.38494186 334.442382812 55 c 0
 547.44140625 55.8037109375 618.874023438 215.23046875 627.442382812 340 c 0
 690.442382812 332 l 0
 691.631835938 137.185546875 601.442382812 -57 341.442382812 -59 c 0
 148.44763624 -60.4845749736 38.5732421875 38.0029296875 35.4423828125 176 c 0
 32.1533203125 320.966796875 154.427734375 394.418945312 265.442382812 398 c 0
 327.442382812 400 367.442382812 379 367.442382812 379 c 1
 353.442382812 334 l 1xfa
EndSplineSet
Refer: 365 -1 N 1 0 0 1 -20 0 2
Fore
SplineSet
206 756 m 1
 209 769 216 802 236 834 c 1
 236 834 308 882 428 882 c 2
 432 882 l 1
 682 879 752 644 752 463 c 0
 752 442 751 422 749 403 c 1
 707 483 l 5
 708 490 709 498 709 509 c 0
 709 597 669 802 402 805 c 1
 394 805 l 2
 320 805 292 793 292 793 c 1
 320 814 344 817 367 817 c 2
 386 817 l 1
 341 810 282 751 252 688 c 1
 214 694 l 1
 267 784 299 819 318 832 c 1
 286 793 l 1
 250 781 237 775 206 756 c 1
EndSplineSet
Refer: 0 3495 N 1 0 0.0874887 1 0 0 2
LCarets2: 1 0
Ligature2: "si_halant_1 subtable" si_Tta si_Halant
EndChar

StartChar: si_TtI
Encoding: 198 -1 145
GlifName: si_T_tI_
Width: 755
VWidth: -14
Flags: HMW
LayerCount: 2
Back
SplineSet
366 329 m 1xfc
 343 338 300 345 273 343 c 0
 202 338 115.5149564 300.478264259 117 198 c 0
 118.4140625 100.419921875 217 45 350 44 c 4
 544.997070312 42.5341796875 612.875976562 198.346679688 616 323 c 0
 682 322 l 0
 680.189453125 113.185546875 570 -59 330 -59 c 4
 147 -59 40.7906648242 50.1077332517 46 176 c 0
 52 321 165 394 276 398 c 0
 338 400 378 379 378 379 c 1
 366 329 l 1xfc
EndSplineSet
Refer: 356 -1 N 1 0 0 1 0 0 2
Fore
SplineSet
74 156 m 0
 78.4127404995 348.980166129 277.839740824 437.675639362 387 437 c 0
 396 437 406 437 414 436 c 1
 440 353 l 1
 426 335 l 1
 401 339 376 342 350 342 c 0
 249 342 147 306 136 204 c 0
 136 201 135 198 135 195 c 0
 135 124 228 71 349 71 c 0
 352 71 355 71 358 71 c 0
 545 75 652 190 682 358 c 1
 746 344 l 1
 718 116 569 -48 342 -49 c 0
 341 -49 340 -49 339 -49 c 0
 172 -49 74 41 74 156 c 0
EndSplineSet
Refer: 356 -1 S 1 0 0.0874887 1 0 0 2
LCarets2: 1 0
Ligature2: "si_abvs_1 subtable" si_Tta si_MatraI
Ligature2: "'abvs' Above Base Substitutions in Sinhala lookup 0-1" si_Tta si_MatraI
EndChar

StartChar: si_TtIi
Encoding: 199 -1 146
GlifName: si_T_tI_i
Width: 745
VWidth: -14
Flags: HMW
LayerCount: 2
Back
SplineSet
366 329 m 1xfd
 343 338 300 345 273 343 c 0
 202 338 115.5149564 300.478264259 117 198 c 0
 118.4140625 100.419921875 207 45 340 44 c 0
 534.997070312 42.5341796875 603.875976562 198.346679688 607 323 c 0
 682 322 l 0
 680.189453125 113.185546875 560 -59 320 -59 c 0
 137 -59 40.7906648242 50.1077332517 46 176 c 0
 52 321 165 394 276 398 c 0
 338 400 378 379 378 379 c 1
 366 329 l 1xfd
EndSplineSet
Refer: 357 -1 S 1 0 0 1 0 0 2
Fore
SplineSet
50 160 m 0
 51.2649901991 318.673022745 188.465896167 397.528384235 309 398 c 0
 366 398 400 379 400 379 c 1
 382 334 l 1
 360 344 333 350 304 350 c 0
 225 350 142 296 134 206 c 0
 134 201 133 197 133 192 c 0
 133 102 212 43 369 43 c 0
 561 43 667 185 685 327 c 1
 747 327 l 1
 727 99 579 -59 351 -59 c 0
 158 -59 50 30 50 160 c 0
EndSplineSet
Refer: 357 -1 S 1 0 0.0874887 1 50 0 2
LCarets2: 1 0
Ligature2: "si_abvs_2 subtable" si_Tta si_MatraIi
EndChar

StartChar: si_TtU
Encoding: 200 -1 147
GlifName: si_T_tU_
Width: 781
VWidth: -14
Flags: HMW
LayerCount: 2
Back
SplineSet
212 -117 m 1
 228.772460938 -152 l 1
 228.76953125 -143.934570312 162.1875 -188.71875 162.190429688 -228 c 0
 162.1953125 -274.552734375 189.481445312 -288 248 -288 c 1
 615 -288 l 1
 615 167 l 5
 662 167 l 5
 668 -369 l 1
 668 -369 387.048828125 -371.4765625 176 -372.586914062 c 0
 96 -373 54.755859375 -323.6015625 54 -273 c 0
 52.37109375 -163.938476562 212 -117 212 -117 c 1
EndSplineSet
Refer: 0 3495 N 1 0 0 1 0 0 2
Fore
Refer: 70 -1 S 1 0 0.0874887 1 4 0 2
Refer: 0 3495 N 1 0 0.0874887 1 0 0 2
LCarets2: 1 0
Ligature2: "si_blws_1 subtable" si_Tta si_MatraU
EndChar

StartChar: si_DdI
Encoding: 213 -1 159
GlifName: si_D_dI_
Width: 840
VWidth: -14
Flags: HMW
LayerCount: 2
Back
Refer: 32 3497 N 1 0 0 1 0 0 2
Fore
SplineSet
112 112 m 0
 111.884825295 263.891993505 242.33966385 350.908482872 344 352 c 1
 332 320 l 1
 256 320 194 252 187 176 c 0
 187 172 187 168 187 164 c 0
 187 104 226 61 299 61 c 0
 371 61 436 101 444 195 c 1
 449 198 462 200 472 200 c 0
 477 200 481 200 483 198 c 1
 482 192 483 186 483 181 c 0
 483 98 542 61 616 61 c 0
 700 61 769 157 784 330 c 1
 846 322 l 5
 831 156 766 -42 597 -42 c 0
 521 -42 464 -11 447 51 c 1
 418 -17 346 -42 287 -42 c 0
 194 -42 112 5 112 112 c 0
49 333 m 0
 49 344 52 356 61 365 c 1
 475 362 l 1
 466 320 l 1
 163 320 l 1
 58 303 l 1
 53 310 49 321 49 333 c 0
204 445 m 0
 204 447 205 450 205 452 c 0
 211 519 285 544 338 544 c 0
 423 544 486 495 486 406 c 0
 485.54829956 368.260402245 475.488149911 339.764477195 466 320 c 1
 435 342 l 1
 438 353 440 363 441 373 c 1
 441 384 l 2
 441 442 400 478 330 478 c 0
 324 478 318 478 311 477 c 1
 254 395 l 1
 226 398 204 413 204 445 c 0
EndSplineSet
Refer: 356 -1 N 1 0 0.0874887 1 137 -2 2
Ligature2: "si_abvs_1 subtable" si_Dda si_MatraI
EndChar

StartChar: si_DdIi
Encoding: 214 -1 160
GlifName: si_D_dI_i
Width: 840
VWidth: -14
Flags: HMW
LayerCount: 2
Back
Refer: 32 3497 N 1 0 0 1 0 0 2
Fore
SplineSet
122 112 m 0
 121.342745303 259.847749393 261.018227868 340.148015617 371 342 c 1
 359 310 l 1
 273 310 204 242 197 166 c 0
 197 163 196 159 196 156 c 0
 196 101 236 61 309 61 c 0
 380 61 445 101 453 195 c 1
 460 195 485 196 492 196 c 1
 491 190 491 184 491 178 c 0
 491 96 547 61 616 61 c 0
 703 61 772 154 787 322 c 5
 850 322 l 5
 836 159 785 -42 597 -42 c 4
 528 -42 476 -11 461 51 c 1
 431 -17 358 -41 297 -41 c 0
 204 -41 122 5 122 112 c 0
56 285 m 1
 61 348 l 1
 473 345 l 1
 465 303 l 1
 162 303 l 1
 56 285 l 1
203 428 m 2
 203 435 l 1
 209 502 283 527 336 527 c 0
 421 527 484 478 484 389 c 0
 485.595483621 351.260402245 474.020337281 322.764477195 465 303 c 1
 433 325 l 1
 436 336 438 346 439 356 c 0
 439 360 440 363 440 367 c 0
 440 425 398 461 328 461 c 0
 322 461 316 461 309 460 c 1
 252 378 l 1
 224 381 203 396 203 428 c 2
EndSplineSet
Refer: 357 -1 N 1 0 0.0874887 1 141 0 2
Ligature2: "si_abvs_2 subtable" si_Dda si_MatraIi
EndChar

StartChar: si_DdU
Encoding: 215 -1 161
GlifName: si_D_dU_
Width: 824
VWidth: -14
Flags: HMW
LayerCount: 2
Back
SplineSet
257 -115 m 17xf7
 283.772460938 -160 l 1
 283.76953125 -152.99609375 217.1875 -191.887695312 217.190429688 -226 c 0
 217.194335938 -272.552734375 241.30078125 -285.247070312 293 -285.247070312 c 1
 680 -287 l 9
 680 89 l 25
 737 149 l 25
 743 -367 l 17
 743 -367 397.004882812 -369.6796875 221 -370.586914062 c 0
 141 -371 99.755859375 -321.6015625 99 -271 c 0
 97.37109375 -161.938476562 257 -115 257 -115 c 17xf7
EndSplineSet
Refer: 32 3497 N 1 0 0 1 -40 0 2
Fore
SplineSet
75 -269 m 0
 84 -161 247 -115 247 -115 c 1
 269 -159 l 1
 260 -159 200 -195 197 -226 c 1
 197 -236 l 2
 197 -275 220 -285 268 -285 c 2
 655 -285 l 9
 688 89 l 25
 750 149 l 25
 705 -367 l 17
 705 -367 364 -371 188 -371 c 0
 112 -371 75 -327 75 -278 c 0
 75 -275 75 -272 75 -269 c 0
EndSplineSet
Refer: 32 3497 N 1 0 0.0874887 1 -40 0 2
LCarets2: 1 0
Ligature2: "si_blws_1 subtable" si_Dda si_MatraU
EndChar

StartChar: si_NnI
Encoding: 228 -1 173
GlifName: si_N_nI_
Width: 1391
VWidth: 0
Flags: HMW
LayerCount: 2
Back
Refer: 33 3499 N 1 0 0 1 0 0 2
Fore
SplineSet
426 653 m 2
 426 667 l 5
 440 825 612 891 730 891 c 4
 817 891 903 857 903 786 c 2
 903 778 l 5
 899 734 873 692 873 692 c 13
 839 692 l 21
 841 701 842 710 842 718 c 0
 842 777 788 807 710 807 c 4
 623 807 484 778 474 659 c 4
 474 656 473 654 473 651 c 0
 473 610 504 589 545 589 c 4
 547 589 551 590 553 590 c 13
 550 561 l 21
 537 556 527 553 515 553 c 4
 459 553 426 594 426 653 c 2
EndSplineSet
Refer: 33 3499 S 1 0 0.0874887 1 0 0 2
Ligature2: "si_abvs_1 subtable" si_Nna si_MatraI
EndChar

StartChar: si_TIi
Encoding: 240 -1 180
GlifName: si_T_I_i
Width: 1052
VWidth: -24
Flags: HMW
LayerCount: 2
Back
SplineSet
317 427 m 1x2d80
 319.586914062 689.754882812 480.518547864 816.205147793 652 833 c 0
 786.000976562 846.124023438 920.791692129 777.673684576 916 642 c 0
 913.940185547 583.67767693 881.333333333 492 786 492 c 1
 676.076686501 492.000002228 633.558376437 552.792051998 636 619 c 0
 637.942019745 679.022037163 687.117908899 724.326048316 740 743 c 1
 760.968082501 734.068306627 781.218291421 724.317699544 800 714 c 1
 754 714 716.37918509 680.631318228 712 629 c 0
 710.627174559 594.718865376 732.490804277 555 775 555 c 0
 806.914762406 555 825.445623509 579.684590917 825 608 c 0
 823.291521193 716.558627094 717.885723905 746.201365225 610 736 c 0
 485.984375 724.2734375 365.77734375 641.188476562 364 427 c 1
 317 427 l 1x2d80
EndSplineSet
Refer: 8 3501 N 1 0 0 1 0 0 2
Fore
Refer: 363 -1 N 1 0 0.0874887 1 386 6 2
Refer: 8 3501 S 1 0 0.0874887 1 0 0 2
LCarets2: 1 0
Ligature2: "si_abvs_2 subtable" si_Ta si_MatraIi
EndChar

StartChar: si_TU
Encoding: 241 -1 181
GlifName: si_T_U_
Width: 1085
VWidth: -24
Flags: HMW
LayerCount: 2
Back
SplineSet
758 8 m 13
 788 -22 l 21
 775 -40 735.653320312 -70.2509765625 742 -124 c 4
 747.765148819 -172.824130769 798 -203 867 -202 c 4
 929.642578125 -201.091796875 975 -174 1010 -139 c 13
 1054 -228 l 4
 1001 -278 921.443359375 -295.733398438 857 -294 c 4
 765.02734375 -291.526367188 683.208984375 -256.041015625 683 -140 c 4
 682.877929688 -71.982421875 733.476258379 -13.4625335028 758 8 c 13
278 378 m 1
 290 401 293.788085938 421.989257812 293 440 c 0
 290.88671875 488.322265625 241.939453125 510.5859375 200 501 c 0
 168.6171875 493.826171875 143.75 469.586914062 140 425 c 1
 180 370 l 1
 166 346 142.997070312 333.926757812 121 335 c 0
 80 337 56 368 56 414 c 0
 56 494 122.979492188 562.083984375 220 558 c 0
 303.716796875 554.475585938 353.256835938 480.104492188 326 417 c 0
 310.53515625 381.197265625 326 405 313 388 c 1
 278 378 l 1
758 8 m 0
 781.990234375 8.53125 802.926757812 13.7314453125 821 22.541015625 c 1
 906.891601562 64.4072265625 928.108269354 187.794867069 905 279 c 0
 872.266601562 408.19140625 734.73046875 467.030273438 595 462 c 0
 503.25390625 458.697265625 432 431.771484375 345 374 c 1
 328 362 339 367 325 355 c 1
 228 276 176 211 76 79 c 1
 76 79 41.1279296875 98.5439453125 47 107 c 0
 147 251 207 322 305 413 c 1
 312 419 321 420 328 425 c 1
 420 505 533.100585938 555.721679688 642 561 c 0
 837.309570312 570.465820312 990.44140625 449.986328125 1005 282 c 0
 1016.22873366 152.436080151 954.948242188 30.9873046875 851.549804688 -19 c 1
 819.727539062 -34.384765625 783.916015625 -43 745 -43 c 0
 758 8 l 0
106 142 m 1
 121.827148438 148.801757812 135.977539062 157.05859375 149 157.575195312 c 0
 235.53125 161.009765625 244.237304688 64.6337890625 412 62 c 0
 543.998046875 59.927734375 621.387695312 124.006835938 620 205 c 0
 617.891601562 328.076171875 483.087890625 345.88671875 432 346 c 0
 350.086914062 346.181640625 292 328 259 310 c 1
 296 362 l 1
 309 366 372.00390625 395.240234375 444 394 c 0
 544.004882812 392.27734375 679 345 679 195 c 0
 679 89.8291015625 610 -44 412 -44 c 0
 282.072265625 -44 203.453125 7.7138671875 187 67.9970703125 c 0
 171.305664062 125.500976562 129.395507812 127.443359375 84 104 c 1
 106 142 l 1
EndSplineSet
Fore
SplineSet
82 391 m 2
 82 401 l 1
 90 491 187 557 285 557 c 0
 347 557 387 535 387 483 c 0
 387 480 386 476 386 473 c 0
 383 434 327 345 301 320 c 1
 286 326 l 1
 312 355 323 388 326 427 c 0
 326 430 327 433 327 436 c 0
 327 480 297 511 254 511 c 0
 207 511 178 470 174 424 c 1
 174 414 l 2
 174 382 186 356 195 345 c 1
 181 338 159 334 143 334 c 0
 104 334 82 352 82 391 c 2
49 103 m 0
 49 109 50 116 52 124 c 1
 154 223 247 289 344 378 c 0
 473 496 622 562 739 562 c 0
 901 562 1023 480 1023 313 c 0
 1023 301 1022 287 1021 274 c 0
 1007 140 916 -38 707 -46 c 1
 744 60 l 1
 858.21361345 60.6712848826 960.970375237 135.341573856 963 267 c 0
 963 396 831 443 696 443 c 0
 572 443 451 422 360 340 c 0
 347 328 313 302 300 288 c 1
 325 309 361.309600863 326.983569828 383 342 c 0
 413.309600863 362.983569828 472 382 515 382 c 0
 595 382 652 331 652 243 c 0
 652 237 653 230 652 224 c 0
 642 113 558 -39 356 -39 c 0
 193 -39 123 86 123 148 c 2
 123 153 l 1
 125 171 146 184 144 194 c 1
 147 191 150 191 153 191 c 2
 160 191 l 2
 162 191 163 191 163 189 c 0
 164.092904104 186.228287988 157.192065117 178.23876177 157 173 c 0
 157 145 212 59 348 59 c 2
 349 59 l 1
 481 60 602 105 612 218 c 0
 612 220 612 222 612 224 c 0
 612 272 558 305 493 305 c 0
 398 305 265 272 209 221 c 0
 166 183 85 102 58 76 c 1
 57 78 49 84 49 103 c 0
EndSplineSet
Refer: 364 -1 N 1 0 0.0874887 1 741 50 2
LCarets2: 1 0
Ligature2: "si_blws_1 subtable" si_Ta si_MatraU
EndChar

StartChar: si_DI
Encoding: 255 -1 189
GlifName: si_D_I_
Width: 581
Flags: HMW
LayerCount: 2
Back
SplineSet
207 451 m 17
 144 471 106.650390625 537.995117188 106 605 c 0
 105 708 213 812 354 810 c 0
 458 809 555.903320312 734.702148438 558 629 c 0
 559.311523438 562.887695312 513 513 478 499 c 9
 459 524 l 17
 482 544 498.944335938 563.61328125 497 605 c 4
 492.84375 693.477539062 390 711.96875 322 713 c 4
 227.005859375 714.44140625 168 656 169 591 c 0
 169.831054688 537.006835938 201 496 224 486 c 9
 207 451 l 17
EndSplineSet
Refer: 35 3503 N 1 0 0 1 0 0 2
Fore
Refer: 35 3503 N 1 0 0.0874887 1 0 0 2
LCarets2: 1 0
Ligature2: "si_abvs_1 subtable" si_Da si_MatraI
Ligature2: "'abvs' Above Base Substitutions in Sinhala lookup 0-1" si_Da si_MatraI
EndChar

StartChar: si_DU
Encoding: 257 -1 191
GlifName: si_D_U_
Width: 581
Flags: HMW
LayerCount: 2
Back
SplineSet
233 -117 m 1
 249.772460938 -152 l 1
 249.76953125 -143.934570312 183.1875 -188.71875 183.190429688 -228 c 0
 183.1953125 -274.552734375 210.481445312 -288 269 -288 c 1
 516 -288 l 1
 516 40 l 5
 563 40 l 5
 569 -369 l 1
 569 -369 408.048828125 -371.4765625 197 -372.586914062 c 0
 117 -373 75.755859375 -323.6015625 75 -273 c 0
 73.37109375 -163.938476562 233 -117 233 -117 c 1
152 199 m 0
 139.301757812 59.7265625 303.229492188 -21.3037109375 549 67 c 5
 563 40 l 5
 539 36 l 5
 551 38.3330078125 529 25.6669921875 493 12 c 5
 273.506835938 -100.266601562 38.8994140625 -4.337890625 41 165 c 0
 42.919921875 319.76171875 205.887695312 393.12109375 397 394 c 0
 456.002929688 394.271484375 499 385 499 385 c 1
 499 387.5 488.354492188 375.5 488 378 c 1
 491.599609375 475 373 506 318 498 c 1
 262 409 l 1
 216 412 195.556640625 452.114257812 205 488 c 0
 220 545 273 571 336 571 c 0
 408 571 506 528 520 444 c 0
 529.095703125 389.426757812 513 345 513 345 c 1
 513 343 l 1
 273.458007812 364.4921875 162.536132812 306.422851562 152 199 c 0
EndSplineSet
Fore
Refer: 35 3503 N 1 0 0.0874887 1 0 0 2
LCarets2: 1 0
Ligature2: "si_blws_1 subtable" si_Da si_MatraU
EndChar

StartChar: si_NU
Encoding: 279 -1 203
GlifName: si_N_U_
Width: 1043
VWidth: -24
Flags: HMW
LayerCount: 2
Back
SplineSet
302 -117 m 5
 318.772460938 -152 l 5
 318.76953125 -143.934570312 252.1875 -188.71875 252.190429688 -228 c 4
 252.1953125 -274.552734375 279.481445312 -288 338 -288 c 5
 915 -288 l 5
 915 127 l 5
 962 127 l 5
 968 -369 l 5
 968 -369 477.048828125 -371.4765625 266 -372.586914062 c 4
 186 -373 144.755859375 -323.6015625 144 -273 c 4
 142.37109375 -163.938476562 302 -117 302 -117 c 5
EndSplineSet
Refer: 9 3505 N 1 0 0 1 0 0 2
Fore
Refer: 56 3540 N 1 0 0.0874887 1 1043 0 2
Refer: 9 3505 N 1 0 0.0874887 1 0 0 2
LCarets2: 1 0
Ligature2: "si_blws_1 subtable" si_Na si_MatraU
EndChar

StartChar: si_BI
Encoding: 305 -1 227
GlifName: si_B_I_
Width: 835
VWidth: -24
Flags: HMW
LayerCount: 2
Back
Refer: 39 3510 N 1 0 0 1 0 0 2
Fore
SplineSet
48 125 m 0
 51.0167294534 315.399520011 189.694891791 434.44747311 334 435 c 0
 428 435 523 380 523 265 c 0
 523 259 524 253 523 246 c 0
 523 242 521 238 521 234 c 1
 508 220 l 1
 480 213 438 183 433 131 c 1
 433 124 l 2
 433 76 481 51 546 51 c 0
 657 51 722 174 741 318 c 5
 805 320 l 5
 787 109 694 -57 537 -57 c 0
 417 -57 371 9 371 81 c 0
 371 86 371 91 371 96 c 0
 378 178 441 239 494 251 c 1
 480 236 l 1
 434 315 372 337 315 337 c 0
 203.92312094 337.769896835 99.0585822781 258.047267659 98 106 c 0
 98 34 129 -18 195 -18 c 0
 236 -18 259 15 261 42 c 1
 261 49 l 2
 261 78 245 101 215 101 c 0
 189 101 164 81 161 44 c 0
 161 42 161 40 161 38 c 0
 161 12 175 -17 214 -22 c 1
 216 -33 l 1
 160 -31 121 -7 121 39 c 2
 121 47 l 1
 126 104 174 152 234 152 c 0
 278 152 325 120 325 61 c 0
 325 58 324 55 324 51 c 0
 319 -1 276 -59 195 -59 c 0
 86 -59 48 38 48 125 c 0
EndSplineSet
Refer: 356 -1 N 1 0 0.0874887 1 95 0 2
Ligature2: "si_abvs_1 subtable" si_Ba si_MatraI
EndChar

StartChar: si_M.halant
Encoding: 324 -1 246
GlifName: si_M_.halant
Width: 821
VWidth: -14
Flags: HMW
LayerCount: 2
Back
Refer: 41 3512 N 1 0 0 1 0 0 2
Fore
SplineSet
236.3671875 823 m 0
 237.784179688 832 241.515625 843 247.561523438 856 c 1
 247.561523438 856 311.338273 884 404.69140625 884 c 0
 795.797622569 884 805.90608775 567.278083736 773.744140625 356 c 0
 768.234375 321 761.354492188 290 755.418945312 265 c 1
 742.993164062 275 l 1
 742.993164062 275 745.150619443 283.0164837 747.456054688 297 c 0
 764.990171698 406.359267735 802.50866231 828 393.247070312 828 c 0
 373.580078125 828 353.913085938 828 334.247070312 828 c 1
 431.709960938 846 l 1
 355.794808965 832 246.051083485 734 223.625 693 c 1
 185.5703125 699 l 1
 233.387896578 757 315.938882367 847 370.654296875 852 c 1
 314.931640625 826 l 1
 281.318624773 819.29787234 268.660314305 814.382978723 239.533203125 805 c 1
 236.005859375 808 234.950195312 814 236.3671875 823 c 0
EndSplineSet
Refer: 41 3512 N 1 0 0 1 0 0 2
LCarets2: 1 0
Ligature2: "si_halant_1 subtable" si_Ma si_Halant
EndChar

StartChar: si_MI
Encoding: 325 -1 247
GlifName: si_M_I_
Width: 797
VWidth: -14
Flags: HMW
LayerCount: 2
Back
Refer: 41 3512 N 1 0 0 1 0 0 2
Fore
SplineSet
58 202 m 0
 61.3129237996 336.625887892 145.530828267 458.572732755 265 478 c 1
 268 455 l 1
 265 429 263 406 263 385 c 0
 263 299 292 253 390 253 c 2
 392 253 l 1
 492 254 535 350 535 402 c 0
 535 440 499 477 440 477 c 2
 438 477 l 2
 407 477 387 457 387 431 c 0
 385.809822621 407.692960146 408.590338528 393.86709282 437 395 c 0
 468 395 507 406 556 440 c 1
 551 396 l 1
 506 358 466 344 433 344 c 2
 426 344 l 1
 348 348 323 384 323 430 c 0
 323 485 375 544 449 544 c 0
 525 544 592 492 592 396 c 0
 592 288 515 189 389 189 c 2
 388 189 l 1
 277 190 226 251 226 345 c 0
 226 358 227 372 229 387 c 1
 178 373 113 318 106 238 c 0
 106 234 105 231 105 227 c 0
 105 137 206 77 340 77 c 0
 341 77 342 77 343 77 c 0
 550 78 693 201 714 368 c 1
 778 354 l 1
 749 129 586 -34 354 -34 c 0
 138 -34 58 88 58 202 c 0
EndSplineSet
Refer: 356 -1 N 1 0 0.0874887 1 31 0 2
LCarets2: 1 0
Ligature2: "si_abvs_1 subtable" si_Ma si_MatraI
EndChar

StartChar: si_MIi
Encoding: 326 -1 248
GlifName: si_M_I_i
Width: 826
VWidth: -14
Flags: HMW
LayerCount: 2
Back
Refer: 41 3512 N 1 0 0 1 0 0 2
Fore
SplineSet
59 232 m 0
 59 242 59 252 60 262 c 0
 73 418 153 482 220 482 c 0
 261 482 287 460 287 406 c 0
 287 401 286 396 286 391 c 0
 285 384 285 377 285 371 c 0
 285 266 359 251 415 251 c 0
 417 251 419 251 421 251 c 0
 510.575781255 253.600962934 557.798190529 297.678953191 560 373 c 0
 560 428 525 470 465 470 c 0
 416.617200297 472.356699625 384.807980094 441.134726801 383 398 c 0
 383 380 393 358 425 358 c 0
 460 358 481 389 483 416 c 0
 483 419 484 423 484 426 c 0
 484 444 480 460 472 475 c 1
 497 474 l 1
 510 461 518 439 518 418 c 2
 518 410 l 1
 514 360 477 312 417 312 c 0
 377 312 335 334 335 388 c 0
 335 391 336 395 336 398 c 0
 341 452 388 504 462 504 c 0
 552 504 598 446 598 375 c 0
 598 370 597 365 597 360 c 0
 590 275 526 187 407 187 c 0
 359 187 312 201 279 235 c 0
 254 260 242 299 242 352 c 0
 242 359 243 367 243 375 c 2
 243 391 l 2
 243 428 233 444 211 444 c 0
 163 444 126 379 119 287 c 0
 119 281 118 275 118 269 c 0
 118 130 242 45 401 44 c 1
 403 44 l 2
 624 44 719 181 738 329 c 1
 801 334 l 1
 780 96 621 -58 397 -58 c 0
 181 -58 59 67 59 232 c 0
EndSplineSet
Refer: 357 -1 N 1 0 0.0874887 1 93 0 2
LCarets2: 1 0
Ligature2: "si_abvs_2 subtable" si_Ma si_MatraIi
EndChar

StartChar: si_YI
Encoding: 340 -1 262
GlifName: si_Y_I_
Width: 856
VWidth: -24
Flags: HMW
LayerCount: 2
Back
Refer: 43 3514 N 1 0 0 1 0 0 2
Fore
SplineSet
320 646 m 0
 320 650 321 654 321 658 c 0
 332 784 452 869 634 869 c 0
 795 869 890 784 890 681 c 0
 890 676 889 671 889 666 c 0
 882 589 810 517 747 517 c 1
 701 541 l 1
 701 541 806 549 815 654 c 0
 815 657 816 659 816 662 c 0
 816 733 727 787 596 788 c 1
 592 788 l 2
 484 788 390 748 383 667 c 1
 383 653 l 2
 383 572 450 524 581 524 c 2
 585 524 l 5
 577 480 l 1
 411 481 320 555 320 646 c 0
EndSplineSet
Refer: 43 3514 N 1 0 0.0874887 1 0 0 2
Ligature2: "si_abvs_1 subtable" si_Ya si_MatraI
EndChar

StartChar: si_YU
Encoding: 342 -1 264
GlifName: si_Y_U_
Width: 856
VWidth: -24
Flags: HMW
LayerCount: 2
Back
SplineSet
392 -115 m 21xff20
 418.772460938 -160 l 5
 418.76953125 -152.99609375 352.1875 -191.887695312 352.190429688 -226 c 4
 352.194335938 -272.552734375 386.30078125 -285.247070312 428 -285.247070312 c 5
 745 -287 l 13xff20
 745 169 l 29xff40
 802 169 l 29
 808 -367 l 21
 808 -367 532.004882812 -369.6796875 356 -370.586914062 c 4
 276 -371 234.755859375 -321.6015625 234 -271 c 4
 232.37109375 -161.938476562 392 -115 392 -115 c 21xff20
EndSplineSet
Refer: 43 3514 N 1 0 0 1 0 0 2
Fore
Refer: 400 -1 N 1 0 0.0874887 1 -157 0 2
Refer: 43 3514 N 1 0 0.0874887 1 0 0 2
LCarets2: 1 0
Ligature2: "si_blws_1 subtable" si_Ya si_MatraU
EndChar

StartChar: si_Ya.post
Encoding: 345 -1 267
GlifName: si_Y_a.post
Width: 713
VWidth: -11
Flags: HMW
LayerCount: 2
Fore
SplineSet
47 -5 m 1
 47 -5 338 187.148542932 338 413 c 0
 338 488 289 518 244 518 c 0
 203 518 156 475 142 434 c 1
 90 453 l 1
 114 504 159 570 246 571 c 0
 247 571 248 571 249 571 c 0
 354 571 377 501 377 437 c 0
 377 413 374 391 371 373 c 0
 339 200 227 47 82 -51 c 1
 47 -5 l 1
162 11 m 1
 176 44 l 1
 220 73 243 83 263 83 c 0
 264 83 265 83 266 83 c 0
 323 83 327 48 441 48 c 0
 581 48 661 124 667 203 c 0
 667 206 667 209 667 212 c 0
 667 286 593 325 435 325 c 2
 407 325 l 1
 423 468 494 561 601 566 c 1
 606 566 l 2
 658 566 715 541 715 473 c 0
 715 467 715 460 714 453 c 0
 701 366 601 348 601 348 c 1
 596 369 l 2
 596.142116638 367.496378657 639.665446003 404.596757057 637 444 c 0
 637 483 608 509 568 509 c 2
 566 509 l 1
 482 507 464 404 464 404 c 1
 472 405 481 405 489 405 c 0
 599 405 703 340 703 210 c 0
 703 68.9916371854 626.836360102 -53.6110733387 462 -57 c 0
 460 -57 458 -57 456 -57 c 0
 320 -55 351 45 249 46 c 0
 214 46 186 30 162 11 c 1
EndSplineSet
LCarets2: 2 0 0
Ligature2: "si_yansaya subtable" si_Halant zwj si_Ya
EndChar

StartChar: si_R.halant
Encoding: 352 -1 274
GlifName: si_R_.halant
Width: 729
VWidth: -5
Flags: HMW
LayerCount: 2
Back
Refer: 50 3530 N 1 0 0 1 189 -15 2
Refer: 4 3515 N 1 0 0 1 0 0 2
Fore
SplineSet
275 837 m 2
 275.654966413 788.588371863 306.380835967 756.96271671 353 752 c 0
 376 752 395 766 395 797 c 0
 395 859 322 881 279 888 c 1
 275 845 l 1
 275 837 l 2
189 472 m 5
 240 949 l 5
 266 972 l 1
 294 965 420 934 427 811 c 1
 427 798 l 2
 427 744 404 696 343 695 c 1
 341 695 l 2
 301 695 275 725 267 754 c 1
 243 482 l 1
 189 472 l 5
EndSplineSet
Refer: 4 3515 N 1 0 0.0874887 1 0 0 2
LCarets2: 1 0
Ligature2: "si_halant_1 subtable" si_Ra si_Halant
EndChar

StartChar: si_RAe
Encoding: 353 -1 275
GlifName: si_R_A_e
Width: 1039
VWidth: -5
Flags: HMW
LayerCount: 2
Back
SplineSet
686 286 m 0x40
 673.03149213 197.912101269 683.9552585 23.4596878133 851 13 c 0
 925.485704848 8.33599673795 962.101694915 38.7880859375 989 59 c 1
 1010 37 l 1
 993.342145647 -6.75 912.446649603 -65.0229953974 822 -63 c 0
 630.048097803 -58.706664466 595.259201143 73.8189539074 611 230 c 0
 633.347946036 451.737512925 768.240645813 647.688455021 821.163085938 712 c 1x40
 764.849913129 709.587890625 655.975856126 706.22265625 586 703.856445312 c 1
 637 779.116210938 l 1x80
 660.844270833 779.107421875 857.060351562 778.998046875 892 779 c 1
 892 723 l 1
 804.762510102 649.886284722 704.792626773 413.647916063 686 286 c 0x40
EndSplineSet
Refer: 4 3515 N 1 0 0 1 0 0 2
Fore
SplineSet
619 146 m 0
 619 159 666 321 667 332 c 0
 684 572 862 731 931 735 c 1
 644 685 l 1
 646 705 689 749 694 775 c 1
 991 775 l 1
 993 675 l 1
 980 663 l 1
 871.286368271 657.500471227 701 485.102993086 701 214 c 0
 701 130 746 31 849 31 c 0
 896 31 969 61 990 88 c 1
 1000 32 l 1
 978 -1 904 -68 815 -68 c 0
 671 -68 619 42.9951457455 619 146 c 0
EndSplineSet
Refer: 4 3515 S 1 0 0.0874887 1 0 0 2
LCarets2: 1 0
Ligature2: "si_raer subtable" si_Ra si_MatraAe
EndChar

StartChar: si_RI
Encoding: 355 -1 277
GlifName: si_R_I_
Width: 719
VWidth: -5
Flags: HMW
LayerCount: 2
Back
SplineSet
643 795 m 1
 643 717.080078125 566.435546875 670.377929688 458 604 c 0
 330 526 125 415 125 245 c 0
 125 138 214 48 360 48 c 0
 508.439453125 48 582.853515625 153 586 252 c 0
 590.389648438 389.393554688 492.021484375 476 367 476 c 0
 208.249023438 476 137 339 137 339 c 1
 165 428 l 0
 164 431 253.985351562 531.200195312 386 532 c 0
 536.497070312 532.912109375 668.461914062 424.852539062 665 245 c 0
 661.881835938 83.00390625 550.1171875 -52 356 -52 c 0
 153 -52 47.3369140625 93.9853515625 55 252 c 0
 67.9033203125 518.061523438 446 614 544 746 c 1
 584 834 l 1
 626.75390625 835.307617188 643 821.384765625 643 795 c 1
263 493 m 17
 162.110351562 451.639648438 106.826491728 577.491101825 179 703 c 0
 232.83203125 796.61328125 347.963867188 867.708984375 453 836 c 0
 541.97265625 809.140625 493 674 493 674 c 25
 459 666 l 25
 459 666 464.546875 750.15234375 395 758 c 0
 338.370117188 764.389648438 285.21875 739.506835938 241 692 c 0
 159.2421875 604.162109375 198.736328125 514.29296875 259 522 c 9
 263 493 l 17
EndSplineSet
Fore
SplineSet
161 667 m 2
 161 680 l 1
 175 830 325 932 442 932 c 0
 530 932 557 891 557 850 c 0
 557 846 556 843 556 839 c 0
 548 774 469 700 455 682 c 1
 420 681 l 1
 455 710 477 756 482 811 c 0
 482 814 482 817 482 820 c 0
 482 853 467 890 419 891 c 1
 418 891 l 2
 342 891 255 813 245 693 c 0
 245 689 244 686 244 682 c 0
 244 617 298 601 333 601 c 0
 343 601 353 603 361 604 c 1
 348 574 l 1
 330 563 317 558 301 558 c 0
 227 558 161 591 161 667 c 2
EndSplineSet
Refer: 4 3515 N 1 0 0.0874887 1 0 0 2
LCarets2: 1 0
Ligature2: "si_abvs_1 subtable" si_Ra si_MatraI
EndChar

StartChar: si_RIi
Encoding: 356 -1 278
GlifName: si_R_I_i
Width: 726
VWidth: -5
Flags: HMW
LayerCount: 2
Back
Refer: 4 3515 N 1 0 0 1 0 0 2
Fore
SplineSet
148 667 m 2
 148 680 l 1
 162 830 312 932 429 932 c 0
 517 932 544 891 544 850 c 0
 544 846 543 843 543 839 c 0
 535 774 456 700 442 682 c 1
 407 681 l 1
 442 710 464 756 469 811 c 0
 469 814 469 817 469 820 c 0
 469 853 454 890 406 891 c 1
 405 891 l 2
 329 891 242 813 232 693 c 0
 232 689 231 686 231 682 c 0
 231 617 285 601 320 601 c 0
 330 601 340 603 348 604 c 1
 335 574 l 1
 317 563 304 558 288 558 c 0
 214 558 148 591 148 667 c 2
EndSplineSet
Refer: 4 3515 N 1 0 0.0874887 1 -16 0 2
Ligature2: "si_abvs_2 subtable" si_Ra si_MatraIi
EndChar

StartChar: si_LI
Encoding: 360 -1 282
GlifName: si_L_I_
Width: 830
VWidth: -5
Flags: HMW
LayerCount: 2
Back
SplineSet
296 468 m 17
 243 468 190.475585938 521.147460938 195 598 c 0
 202.833984375 731.080078125 326.991210938 829.928710938 499 833 c 0
 722.965296868 836.998994298 819.440429688 717.55859375 816 601 c 0
 814.0625 535.350585938 762 486 727 472 c 9
 693 497 l 17
 716 517 753.9375 536.671875 751 598 c 0
 748.1953125 656.557617188 685.924804688 736.450195312 501 736 c 0
 355.9140625 735.646484375 257 679 248 604 c 0
 241.56640625 550.384765625 290 513 313 503 c 9
 296 468 l 17
EndSplineSet
Refer: 44 3517 N 1 0 0 1 0 0 2
Fore
Refer: 358 -1 N 1 0 0.0874887 1 89 -20 2
Refer: 44 3517 N 1 0 0.0874887 1 0 0 2
LCarets2: 1 0
Ligature2: "si_abvs_1 subtable" si_La si_MatraI
EndChar

StartChar: si_LU
Encoding: 362 -1 284
GlifName: si_L_U_
Width: 822
VWidth: -5
Flags: HMW
LayerCount: 2
Back
Refer: 44 3517 N 1 0 0 1 0 0 2
Fore
SplineSet
71 -204 m 0
 72.0789615254 -113.262570371 168.959639176 -78.0761472498 220 -74 c 1
 222 -99 l 1
 185 -109 145 -139 145 -177 c 0
 145 -206 165.012124681 -227.101054522 215 -226 c 2
 669 -216 l 1
 695 9 l 1
 735 45 l 1
 712 -289 l 1
 199 -289 l 2
 101 -289 71 -247 71 -204 c 0
69 136 m 0
 69 145 69 154 70 163 c 0
 88 366 257 563 514 564 c 0
 515 564 516 564 517 564 c 0
 716 564 802 436 802 328 c 0
 802 322 801 317 801 311 c 0
 791 192 698 91 562 89 c 0
 561 89 560 89 559 89 c 0
 468 89 413 131 413 189 c 2
 413 199 l 1
 419 260 460 311 528 333 c 1
 527 330 525 327 524 324 c 1
 354 324 l 1
 358 369 l 1
 590 369 l 1
 586 324 l 1
 553 324 495 287 490 233 c 1
 490 225 l 2
 490 170 542 145 586 145 c 0
 671 145 708 209 714 277 c 0
 714 282 715 288 715 293 c 0
 715 400 622 494 461 494 c 0
 293.367303853 493.485381674 155.232094751 389.228659937 152 192 c 0
 152 25 292 -41 448 -41 c 0
 553 -41 653 -6 725 39 c 1
 732.258570706 23.7285937234 726.43308458 -12.4457202028 718 -27 c 1
 649 -97 534 -142 414 -142 c 0
 182 -142 69 -14 69 136 c 0
EndSplineSet
LCarets2: 1 0
Ligature2: "si_blws_1 subtable" si_La si_MatraU
EndChar

StartChar: si_V.halant
Encoding: 364 -1 286
GlifName: si_V_.halant
Width: 780
VWidth: -14
Flags: HMW
LayerCount: 2
Back
SplineSet
396 274 m 1
 260.50390625 291.37890625 133.465820312 252.458984375 138 158 c 0
 141.069335938 94.0595703125 229.272460938 45.0927734375 375 46 c 0
 549 47.083984375 647 180.395507812 647 339 c 0
 710 331 l 0
 710 111.353515625 601.00390625 -66.76171875 365 -68 c 0
 183.8203125 -69.0419921875 59.146484375 8.0341796875 56 137 c 0
 52.244140625 299.32421875 249.439453125 329.377929688 364 322 c 1
 364 392 314 428 222 428 c 1
 196 347 l 1
 145 340 110.760742188 368.857421875 119 415 c 0
 129 471 187 490 234 490 c 0
 310 490 399.999023438 453 404 349 c 0
 405.383789062 313.026367188 396 274 396 274 c 1
EndSplineSet
Refer: 365 -1 N 1 0 0 1 0 0 2
Fore
Refer: 2 3520 N 1 0 0.0874887 1 0 0 2
Refer: 365 -1 S 1 0 0.157415 1 -36 10 2
LCarets2: 1 0
Ligature2: "si_halant_1 subtable" si_Va si_Halant
EndChar

StartChar: si_VIi
Encoding: 366 -1 287
GlifName: si_V_I_i
Width: 760
Flags: HMW
LayerCount: 2
Back
SplineSet
376 262 m 1xfe80
 230 278 125 245 129 158 c 0
 131.939782368 94.0597335036 205 41 345 42 c 0
 514 43 607 173 607 326 c 0
 682 321 l 0
 682 107 571.002314781 -56.4236373831 335 -58 c 0
 179 -59.0419921875 49.3495196644 8.04349292099 46 137 c 0
 42 291 205 325 327 318 c 1
 337 378 304 428 212 428 c 1
 186 347 l 1
 135 340 100 369 109 415 c 0
 119 471 177 490 224 490 c 0
 300 490 380 453 384 349 c 0
 385.383592396 313.026597713 376 262 376 262 c 1xfe80
EndSplineSet
Refer: 357 -1 N 1 0 0 1 0 0 2
Fore
Refer: 2 3520 N 1 0 0.0874887 1 0 0 2
Ligature2: "si_abvs_2 subtable" si_Va si_MatraIi
LCarets2: 1 0
Ligature2: "'abvs' Above Base Substitutions in Sinhala lookup 0-2" si_Va si_MatraIi
EndChar

StartChar: si_SU
Encoding: 397 -1 317
GlifName: si_S_U_
Width: 869
Flags: HMW
AnchorPoint: "si_MaU" 57 209 mark 0
LayerCount: 2
Back
SplineSet
282 -117 m 5xee80
 298.772460938 -152 l 5
 298.76953125 -143.934570312 232.1875 -188.71875 232.190429688 -228 c 4
 232.1953125 -274.552734375 259.481445312 -288 318 -288 c 5
 795 -288 l 1
 795 127 l 1
 842 127 l 1
 848 -369 l 1
 848 -369 457.048828125 -371.4765625 246 -372.586914062 c 4
 166 -373 124.755859375 -323.6015625 124 -273 c 4
 122.37109375 -163.938476562 282 -117 282 -117 c 5xee80
EndSplineSet
Refer: 6 3523 N 1 0 0 1 0 0 2
Fore
SplineSet
138 -203 m 0
 139.791105279 -113.035987563 236.133752371 -78.0513438585 287 -74 c 5
 289 -99 l 5
 252 -109 212 -139 212 -177 c 0
 212 -206 232.013267456 -227.151768031 282 -226 c 6
 716 -216 l 5
 751 109 l 5
 788 109 l 5
 759 -289 l 5
 266 -289 l 6
 167 -289 138 -247 138 -203 c 0
EndSplineSet
Refer: 6 3523 N 1 0 0.0874887 1 0 0 2
LCarets2: 1 0
Ligature2: "si_blws_1 subtable" si_Sa si_MatraU
EndChar

StartChar: si_LlI
Encoding: 415 -1 335
GlifName: si_L_lI_
Width: 0
VWidth: -5
Flags: HM
LayerCount: 2
Back
Refer: 48 3525 N 1 0 0 1 0 0 2
Fore
SplineSet
263 622 m 2
 263 632 l 1
 274 756 418 836 583 836 c 0
 744 836 859 768 859 654 c 0
 859 649 858 645 858 640 c 0
 853 573 797 517 738 507 c 9
 733 541 l 17
 761 548 795 579 795 626 c 0
 795 677 733 746 569 746 c 4
 409 746 324 688 319 627 c 1
 319 620 l 2
 319 582 346 554 370 546 c 9
 359 512 l 17
 299 520 263 570 263 622 c 2
EndSplineSet
Refer: 48 3525 N 1 0 0.0874887 1 0 0 2
Ligature2: "si_abvs_1 subtable" si_Lla si_MatraI
EndChar

StartChar: si_KSsa
Encoding: 429 -1 349
GlifName: si_K_S_sa
Width: 1368
VWidth: -24
Flags: HMW
AnchorPoint: "si_hal" 1344 514 basechar 0
LayerCount: 2
Back
SplineSet
800 501.65234375 m 0x3d38
 773.259765625 506.147460938 663.797973016 505.722958876 607 492 c 0
 507.888671875 468.053710938 448.959960938 431.771484375 355 374 c 1
 338 362 349 367 335 355 c 1
 238 276 156 211 56 79 c 1
 56 79 21.1274838429 98.5435767337 27 107 c 0
 127 251 217 322 315 413 c 1
 322 419 331 420 338 425 c 1
 430.000450271 495 545.206560929 544.1498541 664 561 c 0
 706.148290934 566.978485489 778.02734375 566.530273438 799 564.625 c 0
 800 501.65234375 l 0x3d38
288 377 m 1
 300 400 303.857492926 420.99264856 303 439 c 0
 301 481 264.760721452 505.678931467 215 501 c 0
 180.934570312 497.796875 145 470 151 426 c 1
 191 371 l 1
 177 347 154.001938688 335.022136058 132 336 c 0
 87 338 67 369 67 415 c 0
 67 495 133.983392553 563.181504095 231 559 c 0
 313.926757812 555.42578125 362.716238441 480.118972259 336 416 c 0
 321 380 336 404 323 387 c 1
 288 377 l 1
107 165 m 1
 115 169 124.001518603 171.854198304 131 172 c 0
 179 173 188 72 271 72 c 0
 320 72 370 101 371 197 c 1
 406 197 l 0
 407 94 466.997454367 71.1666228257 527 72 c 0
 587.003054614 72.8333842436 638 118 638 194 c 0
 638 273 566 340.000000001 452 345 c 0
 390.059547834 347.716686498 314 329 281 311 c 1
 335 364 l 1
 348 368 381.996090944 390.330400791 459 391 c 0
 574 392 696 332 696 182 c 0
 696 48 620.994671777 -34.9422200603 516 -36 c 0
 430.693480131 -36.8594295683 397.721679688 8.326171875 379 49 c 1
 397 49 l 1
 379.737304688 7.81640625 336.954248144 -36 272 -36 c 0x79b8
 113.996835475 -36 160 169 95 130 c 0
 107 165 l 1
EndSplineSet
Refer: 46 3522 N 1 0 0 1 598 8 2
Fore
SplineSet
42 104 m 0
 42 105 42 106 43 107 c 0
 166 251 268 322 380 413 c 0
 388 419 398 420 405 425 c 0
 508 495 631 544 752 561 c 0
 780 565 818 566 848 566 c 0
 865 566 879 566 887 565 c 1
 879 502 l 1
 870 503 851 504 827 504 c 0
 633.914975391 503.53687705 553.044677757 451.968884028 414 374 c 0
 394.40288211 363.010975201 407 367 391 355 c 0
 281 276 190 211 69 79 c 1
 69 79 42 95 42 104 c 0
131 394 m 0
 134.052446369 490.243622807 212.222926972 555.701924941 311 559 c 1
 319 559 l 1
 380 556 416 514 416 467 c 1
 421.240557348 447.603319407 394.35660856 405.96089373 390 395 c 0
 390 394 392 396 384 387 c 1
 347 377 l 1
 363 400 370 421 372 439 c 0
 372 442 373 444 373 447 c 0
 373 481 346 502 306 502 c 0
 302 502 298 501 294 501 c 0
 260 498 219 470 218 426 c 1
 249 371 l 1
 232 348 208 336 187 336 c 0
 186 336 185 336 184 336 c 0
 146 338 131 360 131 394 c 0
115 130 m 1
 133 165 l 1
 141 169 151 172 158 172 c 2
 159 172 l 2
 206 172 199 72 282 72 c 0
 331 72 386 101 402 197 c 1
 437 197 l 1
 435 186 435 175 435 165 c 0
 435 90 483 72 535 72 c 0
 536 72 537 72 538 72 c 0
 603.196737165 72.7708583869 667.295916936 126.810890175 671 214 c 0
 671 284 610 340 506 345 c 1
 493 345 l 2
 434 345 363 328 330 311 c 1
 392 364 l 1
 405 368 443 390 520 391 c 0
 521 391 522 391 523 391 c 0
 627 391 728 341 728 220 c 0
 728 66.2583318006 624.217811658 -35.8811793723 510 -36 c 0
 509 -36 508 -36 507 -36 c 0
 424 -36 398 8 386 49 c 1
 404 49 l 1
 380 8 331 -36 266 -36 c 0
 122 -36 175 135 131 135 c 0
 127 135 121 133 115 130 c 1
EndSplineSet
Refer: 46 3522 N 1 0 0.157415 1 600 8 2
LCarets2: 1 0
Ligature2: "si_akhands subtable" si_Ka si_Halantfzwjnsi_SsaC2
EndChar

StartChar: I_comp
Encoding: 569 -1 356
GlifName: I__comp
Width: 749
Flags: HMW
LayerCount: 2
Back
SplineSet
69.1494140625 703.880859375 m 4
 69.1494140625 815 203.150390625 875.750976562 364 877 c 4
 561.375 878.533203125 646.248046875 776.428710938 627 677 c 4
 614.538085938 612.626953125 559.57421875 569.895507812 500 576 c 13
 466 629 l 21
 516 605 551.004882812 633.44140625 549 684 c 4
 546.580078125 745.025390625 484.841796875 801.115234375 328 801 c 4
 223.033203125 800.922851562 144.092773438 769.6875 139.40625 708.064453125 c 4
 137.170898438 678.671875 149.657226562 657.563476562 182 648.33984375 c 4
 226.94140625 635.522460938 296.30078125 649.194335938 367 646.131835938 c 4
 547.857421875 638.298828125 686 515.607421875 686 321 c 0
 624 321 l 1
 624 484.856445312 514.022460938 584.602539062 363 592.443359375 c 4
 287.883789062 596.34375 217.2109375 584.611328125 161 595.53515625 c 4
 97.021484375 607.96875 69.1494140625 650.7890625 69.1494140625 703.880859375 c 4
EndSplineSet
Fore
SplineSet
211 663 m 0
 219.377854594 801.413423527 359.647751129 881.363080466 528 887 c 1
 533 887 l 2
 652 887 742 820 742 730 c 2
 742 717 l 1
 736 661 678 595 595 595 c 0
 586 595 577 595 568 597 c 1
 570 649 l 1
 579 646 589 645 599 645 c 0
 645 645 693 671 698 706 c 0
 698 708 698 710 698 712 c 0
 698 770 596 813 480 813 c 0
 364.986632958 810.729359629 271.004837283 772.577444096 266 698 c 0
 266 675 280 654 321 654 c 0
 365.529763939 655.579296242 401.629891397 666.952365018 470 667 c 0
 478 667 486 666 495 666 c 0
 657 658 749 565 749 402 c 0
 749 377 747 350 742 321 c 1
 678 335 l 1
 683 359 686 382 686 403 c 0
 686 515 619 583 510 590 c 0
 503 590 496 591 489 591 c 0
 420 591 362 570 311 569 c 1
 309 569 l 2
 236 569 211 617 211 663 c 0
EndSplineSet
EndChar

StartChar: Ii_comp
Encoding: 570 -1 357
GlifName: I_i_comp
Width: 726
VWidth: -14
Flags: HMW
LayerCount: 2
Back
SplineSet
543 742 m 5xf0
 480.828125 758.302734375 446.037109375 721.200195312 446.037109375 687 c 0
 446.037109375 653.5625 471.477783521 631.284572707 507 629.793945312 c 0
 533.105460132 628.698475551 564.620117188 644.154296875 564 684 c 0xf0
 563.049632792 745.065957169 478.841796875 801.115234375 332 801 c 4
 227.033207095 800.917627113 148.092773438 769.6875 143.40625 708.064453125 c 0
 141.170898438 678.671875 153.657226562 657.563476562 186 648.33984375 c 0
 230.94140625 635.522460938 300.30078125 649.194335938 371 646.131835938 c 0
 551.857421875 638.298828125 682 515.607421875 682 321 c 0
 607 321 l 1xe8
 607 484.856445312 518.022460938 584.602539062 367 592.443359375 c 0
 291.883789062 596.34375 221.2109375 584.611328125 165 595.53515625 c 0
 101.021484375 607.96875 73.1494140625 650.7890625 73.1494140625 703.880859375 c 0
 73.1494140625 815 207.15234375 875.526367188 368 877 c 0
 535.375 878.533203125 634.248046875 806.428710938 635 697 c 0
 635.450195312 631.43359375 578.60546875 575.654296875 505 579 c 0
 483 580 393.407908266 591.726646891 394 684.200195312 c 0
 394.398508529 746.439702462 454.563476562 797.881835938 524 776 c 13
 543 742 l 5xf0
EndSplineSet
Fore
SplineSet
185 695 m 0
 185 704 185 714 187 724 c 0
 205 835 348 896 509 897 c 1
 516 897 l 2
 666 897 750 835 750 742 c 0
 750.131050235 658.698693329 682.651148009 601.954538052 605 599 c 0
 603 599 601 599 599 599 c 0
 579 600 503 610 503 684 c 0
 504.456227565 750.364325725 556.917076062 798.914342239 618 801 c 0
 628 801 639 800 650 796 c 9
 663 762 l 1
 653 765 644 766 635 766 c 0
 591 766 561 735 557 707 c 0
 557 704 556 701 556 698 c 0
 556 670 577 651 609 650 c 1
 611 650 l 2
 637 650 670 665 675 704 c 0
 675 707 675 710 675 713 c 0
 675 770 601 821 461 821 c 0
 349.14358148 818.008801845 261.539086606 791.958032388 256 711 c 0
 252.837935627 672.7738949 299.275673758 660.726204779 342 662 c 0
 375 662 415 666 455 666 c 0
 462 666 469 666 476 666 c 0
 634 659 738 557 738 391 c 0
 738 369 736 345 732 321 c 1
 657 321 l 1
 660 342 662 363 662 382 c 0
 662.276150775 521.546078244 575.150042893 597.842216451 422 593 c 0
 387 593 354 591 323 591 c 0
 300 591 278 592 259 596 c 4
 207 609 185 646 185 695 c 0
EndSplineSet
EndChar

StartChar: si_MatraI.alt
Encoding: 571 -1 358
GlifName: si_M_atraI_.alt
Width: 684
VWidth: -24
Flags: HMW
LayerCount: 2
Back
SplineSet
273 520 m 21
 200 530 160.888671875 585.918945312 172 652 c 4
 191 765 320.989257812 808.053710938 462 809 c 4
 611 810 741.903320312 764.702148438 754 652 c 4
 761.056640625 586.251953125 713 525 668 521 c 13
 655 557 l 21
 688 567 711.614257812 594.228515625 703 632 c 4
 691.770507812 681.23828125 581 716.9765625 463 717 c 4
 337.995117188 717.025390625 236 687 227 632 c 4
 218.279296875 578.708984375 259 562 282 552 c 13
 273 520 l 21
EndSplineSet
Fore
SplineSet
123 628 m 0
 123 632 124 635 124 639 c 4
 136 775 284 868 425 869 c 4
 426 869 427 869 428 869 c 0
 600 869 697 771 697 662 c 2
 697 652 l 5
 693 586 655 525 560 521 c 13
 533 557 l 21
 609 558 656 621 656 668 c 0
 656 673 656 678 655 682 c 4
 639 748 511 765 424 765 c 0
 408 765 393 764 381 763 c 4
 309.624576678 755.576209427 182.013933617 732.201346569 186 631 c 0
 186 565 241 532 287 523 c 13
 235 524 l 21
 167 524 123 568 123 628 c 0
EndSplineSet
EndChar

StartChar: si_MatraIi.alt
Encoding: 572 -1 359
GlifName: si_M_atraI_i.alt
Width: 776
VWidth: -24
Flags: HMW
LayerCount: 2
Back
SplineSet
214 520 m 17x60
 151 540 107.166992188 577.24609375 113 644 c 0
 122 747 259.990234375 790.13671875 401 789 c 0
 525 788 682.063476562 731.920898438 682 625 c 0
 681.955078125 549.627929688 638.186523438 507.028320312 582 505 c 0
 526.177734375 502.984375 465.423828125 529.80859375 461 586 c 0
 455.676757812 653.612304688 537.657226562 695.563476562 545 692 c 1
 601 682 l 1
 587.119140625 668.837890625 544 630.181640625 544 586 c 0
 544 569 558 549 583 549 c 24xa0
 602 549 622.310546875 561.890625 621 586 c 0
 617.19140625 656.051757812 461 695.96875 393 697 c 0
 298.005859375 698.44140625 185 695 176 630 c 0
 168.59375 576.510742188 208 565 231 555 c 9
 214 520 l 17x60
EndSplineSet
Fore
SplineSet
234 617 m 0
 234 770.761593792 402.946062234 840.693660719 550 843 c 0
 551 843 552 843 553 843 c 0
 687 842 806 783 806 672 c 0
 804.723875037 581.929162064 743.758575599 527.835309276 675 526 c 0
 673 526 671 526 669 526 c 0
 623 526 579 555 579 614 c 0
 579 618 580 623 580 627 c 0
 586 700 669 746 681 746 c 2
 682 746 l 1
 736 736 l 1
 713.199942792 719.264045203 643.003891046 680.598206359 644 624 c 0
 644 597 656 570 683 570 c 8
 707 570 736 590 740 627 c 1
 740 635 l 2
 740 708 620 748 534 751 c 1
 511 751 l 1
 396.124051588 748.425053255 304.938869907 723.954772591 297 625 c 0
 297 585 329 565 348 554 c 9
 325 519 l 17
 269 528 234 564 234 617 c 0
EndSplineSet
EndChar

StartChar: si_Rakar
Encoding: 82 -1 361
GlifName: zwj
Width: 959
VWidth: -24
Flags: HMW
LayerCount: 2
Fore
SplineSet
113 -149 m 13
 154 -128 l 21
 154 -128 189 -251 422 -251 c 0
 431 -251 440 -250 449 -250 c 4
 726 -239 883 46 916 260 c 13
 948 248 l 29
 948 248 936 176 915 116 c 4
 841 -96 696 -334 415 -339 c 5
 404 -339 l 2
 156 -339 116 -175 113 -149 c 13
EndSplineSet
EndChar

StartChar: si_MatraI.alt1
Encoding: 574 -1 362
GlifName: si_M_atraI_.alt1
Width: 635
VWidth: -24
Flags: HMW
LayerCount: 2
Back
SplineSet
-328 422 m 17
 -325.413085938 684.754882812 -164.481445312 811.205078125 7 828 c 0
 141.000976562 841.124023438 274.903320312 772.702148438 271 637 c 0
 269.098632812 570.901367188 236 491 151 467 c 9
 132 492 l 17
 155 512 181.944335938 561.612304688 180 603 c 0
 175.84375 691.477539062 72.8857421875 741.201171875 -35 731 c 0
 -159.015625 719.2734375 -279.22265625 636.188476562 -281 422 c 9
 -328 422 l 17
EndSplineSet
Fore
SplineSet
77 390 m 1
 108 586 293 830 504 830 c 0
 603 830 660 765 660 679 c 0
 660 671 659 662 658 653 c 0
 648 583 593 482 463 477 c 1
 449 532 l 1
 462 530 473 529 484 529 c 0
 562 529 602 582 606 623 c 0
 606 626 606 629 606 632 c 0
 606 698 536 734 459 734 c 0
 339 734 181 679 147 426 c 1
 77 390 l 1
EndSplineSet
EndChar

StartChar: si_MatraIi.alt1
Encoding: 575 -1 363
GlifName: si_M_atraI_i.alt2
Width: 603
VWidth: -24
Flags: HMW
LayerCount: 2
Back
SplineSet
17 422 m 17
 19.5869140625 684.754882812 180.518554688 811.205078125 352 828 c 0
 486.000976562 841.124023438 619.903320312 772.702148438 616 637 c 0
 614.098632812 570.901367188 581 491 496 467 c 9
 477 492 l 17
 500 512 526.944335938 561.612304688 525 603 c 0
 520.84375 691.477539062 417.885742188 741.201171875 310 731 c 0
 185.984375 719.2734375 65.77734375 636.188476562 64 422 c 9
 17 422 l 17
EndSplineSet
Fore
SplineSet
49 390 m 5
 80 586 265 830 476 830 c 4
 576 830 633 765 633 679 c 0
 633 671 632 662 631 653 c 0
 621 583 566 482 436 477 c 1
 426 504 l 1
 426 504 388 509 388 564 c 0
 388 568 388 572 388 576 c 0
 393 633 441 688 499 688 c 0
 579 688 580 602 580 602 c 25
 565 566 l 25
 565 566 558 629 489 629 c 0
 459 629 430 609 426 582 c 0
 426 580 425 577 425 575 c 0
 425 549 452 541 480 541 c 0
 544 541 577 596 579 623 c 1
 579 630 l 2
 579 697 495 734 427 734 c 2
 426 734 l 2
 305 734 153 679 119 426 c 1
 49 390 l 5
EndSplineSet
EndChar

StartChar: U_comp
Encoding: 576 -1 364
Width: 0
VWidth: -24
Flags: HM
LayerCount: 2
Back
SplineSet
1 8 m 13
 31 -22 l 21
 18 -40 -21.3466796875 -70.2509765625 -15 -124 c 4
 -9.234375 -172.82421875 41 -203 110 -202 c 4
 172.642578125 -201.091796875 218 -174 253 -139 c 13
 297 -228 l 4
 244 -278 164.443359375 -295.733398438 100 -294 c 4
 8.02734375 -291.526367188 -73.791015625 -256.041015625 -74 -140 c 4
 -74.1220703125 -71.982421875 -23.5234375 -13.462890625 1 8 c 13
EndSplineSet
Fore
SplineSet
-99 -173 m 0
 -101.257148342 -87.0065190058 -30.0080625546 -17.4178415095 3 8 c 13
 27 -22 l 21
 11 -40 -35 -71 -35 -127 c 0
 -35 -173 9 -202 75 -202 c 0
 76 -202 77 -202 78 -202 c 4
 141 -201 191 -174 231 -139 c 13
 261 -228 l 5
 204 -276 125 -294 63 -294 c 2
 53 -294 l 5
 -30 -292 -99 -263 -99 -173 c 0
EndSplineSet
EndChar

StartChar: al_comp
Encoding: 577 -1 365
Width: 812
VWidth: -14
Flags: HMW
LayerCount: 2
Back
SplineSet
539 640 m 5
 574.268554688 626.919921875 596.11328125 661.811523438 593 692 c 4
 584.83984375 771.116210938 478.083984375 819.1640625 375 817 c 4
 295.946289062 815.340820312 253 794 253 794 c 21
 279.80859375 751.53125 284.022460938 665.860351562 205 636 c 13
 171 650 l 21
 244.673828125 679.870117188 229.099609375 776.052734375 192 792 c 5
 214 783.063476562 l 5
 143 744 l 5
 120 790 l 13
 120 790 229.981445312 874.889648438 387 878 c 4
 556.05078125 881.348632812 670.799804688 807.418945312 671 704 c 4
 671.169921875 616.013671875 607.700195312 591 580 591 c 5
 573 569 l 5
 539 640 l 5
647 339 m 5
 647 545.866210938 525.30859375 625.688476562 332 623 c 4
 214.836914062 621.370117188 162.155273438 578 159 578 c 5
 137 628 l 5
 177.618164062 655 214.690429688 683.690429688 348 683 c 4
 541.403320312 682.025390625 710 580.453125 710 331 c 4
 647 339 l 5
EndSplineSet
Fore
SplineSet
180 771 m 0
 180 780 182 791 186 804 c 5
 186 804 265 862 394 862 c 0
 396 862 398 862 400 862 c 0
 715 859 764 597 764 424 c 0
 764 389 762 358 760 333 c 9
 746 343 l 1
 746 343 747 351 747 365 c 0
 747 455 724 793 392 802 c 0
 372.333333333 802 352.666666667 802 333 802 c 1
 347 824 l 1
 328 760 311 712 205 671 c 9
 196 677 l 17
 289 745 296 805 305 830 c 1
 314 800 l 1
 256 785 235 774 186 753 c 1
 182 756 180 762 180 771 c 0
EndSplineSet
EndChar

StartChar: uni002F
Encoding: 578 47 366
Width: 533
VWidth: 0
Flags: HMW
LayerCount: 2
Back
SplineSet
4 -80 m 17
 426 842 l 9
 528 846 l 17
 499.073242188 787.296875 443.291015625 669.911132812 392.92578125 560 c 0
 105 -80 l 9
 4 -80 l 17
EndSplineSet
Fore
SplineSet
-9 -80 m 21
 559 842 l 13
 661 846 l 21
 623 787 549 670 481 560 c 6
 92 -80 l 13
 -9 -80 l 21
EndSplineSet
EndChar

StartChar: uni0021
Encoding: 581 33 367
Width: 330
VWidth: 153
Flags: HMW
LayerCount: 2
Back
SplineSet
89 772 m 1xa0
 116 796 203 805 237 801 c 1
 215.63671875 608.21875 200.844726562 435.486328125 193 208 c 1
 112 206 l 1
 105 399 97 610 89 772 c 1xa0
EndSplineSet
Refer: 379 46 N 1 0 0 1 29 -10 2
Fore
SplineSet
144 206 m 1
 167 399 194 610 211 772 c 1
 237 792 304 802 344 802 c 0
 351 802 358 802 363 801 c 1
 311 608 270 435 226 208 c 1
 144 206 l 1
EndSplineSet
Refer: 379 46 N 1 0 0.157415 1 27 -10 2
EndChar

StartChar: uni0027
Encoding: 587 39 373
Width: 206
VWidth: 79
Flags: HMW
LayerCount: 2
Back
SplineSet
52.576171875 777.809570312 m 1
 49.130859375 714.051757812 36.572265625 624.30078125 25.99609375 551.19921875 c 0
 67.4169921875 532.291015625 l 0
 104.537109375 593.125976562 158.446289062 709.481445312 171.279296875 780.151367188 c 1
 132.608398438 811.336914062 70.1064453125 792.428710938 52.576171875 777.809570312 c 1
EndSplineSet
Fore
SplineSet
113 551 m 1
 152 532 l 1
 198 593 270 709 294 780 c 1
 281 792 262 797 243 797 c 0
 215 797 187 787 175 778 c 1
 161 714 135 624 113 551 c 1
EndSplineSet
EndChar

StartChar: uni0028
Encoding: 588 40 374
Width: 371
VWidth: 153
Flags: HMW
LayerCount: 2
Back
SplineSet
81 235 m 0
 63 462 145 696 265 883 c 1
 336 849 l 1
 255 717 199 483 201 322 c 0
 202 191 215 18 319 -110 c 1
 257 -164 l 1
 199 -118 96 41 81 235 c 0
EndSplineSet
Fore
SplineSet
115 184 m 0
 115 201 117 218 118 235 c 0
 136 462 255 696 404 883 c 1
 469 849 l 1
 367 717 275 483 252 322 c 0
 244 268 237 208 237 146 c 0
 237 57 252 -34 301 -110 c 1
 232 -164 l 1
 186 -122 115 14 115 184 c 0
EndSplineSet
EndChar

StartChar: uni0029
Encoding: 589 41 375
Width: 371
VWidth: 153
Flags: HMW
LayerCount: 2
Back
SplineSet
52 -95 m 5
 133 37 189.716796875 241.00390625 192 402 c 4
 194 543 163 696 69 814 c 5
 131 865 l 5
 184 817 292 683 307 489 c 4
 325 262 237 54 117 -133 c 5
 52 -95 l 5
EndSplineSet
Fore
SplineSet
37 -95 m 5
 139 37 227 241 255 402 c 4
 263 448 268 496 268 543 c 0
 268 640 248 735 197 814 c 5
 267 865 l 5
 309 821 386 705 386 536 c 0
 386 521 385 505 384 489 c 4
 366 262 245 54 96 -133 c 5
 37 -95 l 5
EndSplineSet
EndChar

StartChar: uni002B
Encoding: 591 43 376
Width: 618
VWidth: 153
Flags: HMW
LayerCount: 2
Back
SplineSet
272 632 m 1
 354 618 l 1
 344 425 344 303 354 131 c 1
 327 133 306 139 272 141 c 1
 272 632 l 1
47 343 m 5
 61 432 l 5
 254 422 396 422 568 432 c 5
 566 405 560 377 558 343 c 5
 47 343 l 5
EndSplineSet
Fore
SplineSet
294 141 m 1
 371 632 l 1
 451 618 l 1
 411 425 391 303 374 131 c 1
 347 133 328 139 294 141 c 1
101 343 m 5
 129 432 l 5
 225 427 308 424 389 424 c 0
 470 424 549 427 636 432 c 5
 630 405 619 377 612 343 c 5
 101 343 l 5
EndSplineSet
EndChar

StartChar: uni002C
Encoding: 592 44 377
Width: 198
VWidth: 79
Flags: HMW
LayerCount: 2
Back
SplineSet
51.1708984375 85.06640625 m 1
 77.84765625 -15.8251953125 61.216796875 -108.592773438 37.705078125 -152.932617188 c 0
 81.69140625 -177.944335938 l 4
 124.313074919 -134.368164062 193.261731323 -3.9580078125 178.772460938 79.734375 c 1
 141.956054688 113.088867188 69.5107421875 98.654296875 51.1708984375 85.06640625 c 1
EndSplineSet
Fore
SplineSet
14 -153 m 1
 53 -178 l 5
 103 -134 193 -4 191 80 c 1
 177 95 154 100 131 100 c 0
 103 100 75 93 64 85 c 1
 66 71 67 57 67 43 c 0
 67 -41 40 -115 14 -153 c 1
EndSplineSet
EndChar

StartChar: uni002D
Encoding: 593 45 378
Width: 589
VWidth: 153
Flags: HMW
LayerCount: 2
Back
SplineSet
47 343 m 1
 61 432 l 1
 254 422 356 422 528 432 c 1
 526 405 520 377 518 343 c 1
 47 343 l 1
EndSplineSet
Fore
SplineSet
101 343 m 1
 129 432 l 1
 225 427 298 424 369 424 c 0
 440 424 509 427 596 432 c 1
 590 405 579 377 572 343 c 1
 101 343 l 1
EndSplineSet
EndChar

StartChar: uni002E
Encoding: 594 46 379
Width: 247
VWidth: 79
Flags: HMW
LayerCount: 2
Back
SplineSet
43.8271484375 48.6171875 m 0
 43.8271484375 95.7560889354 79.5591184663 129.618164062 125.59375 129.618164062 c 0
 166.916992188 129.618164062 202.801757812 100.114369841 202.801757812 53.0751953125 c 0
 202.801757812 4.19140625 167.746731138 -28.3994140625 120.59375 -28.3994140625 c 0
 74.0818904992 -28.3994140625 43.8271484375 -0.265625 43.8271484375 48.6171875 c 0
EndSplineSet
Fore
SplineSet
50 33 m 0
 49.8781211898 91.6388434379 95.5839472579 128.769619583 146 130 c 0
 183 130 213 105 213 66 c 0
 211.526199295 8.05455903562 167.711418695 -27.3947455913 117 -28 c 0
 75 -28 50 -6 50 33 c 0
EndSplineSet
EndChar

StartChar: uni0030
Encoding: 595 48 380
Width: 696
VWidth: 153
Flags: HMW
LayerCount: 2
Back
SplineSet
58.0029296875 312.139648438 m 0
 58.5109013241 557.976238092 175.295252349 678.568041503 340.72265625 688.151367188 c 0
 472.646343247 694.520566954 628.345851137 600.80828709 629.262695312 360.750976562 c 0
 630.051045861 177.670568393 555.640903256 -0.93871362553 356.286132812 -5.2470703125 c 0
 171.999154101 -9.2421875 57.5585278658 118.194351649 58.0029296875 312.139648438 c 0
183.572265625 362.72265625 m 0
 184.513072302 184.775913111 248.138552286 66.4130461465 364.352539062 67.8310546875 c 0
 456.926900722 69.555506026 505.191618806 178.36752007 504.521484375 342.618164062 c 0
 503.983313219 515.715499916 444.190558798 626.806495111 344.448242188 625.96484375 c 4
 274.187421878 625.371964849 182.274858269 547.476879437 183.572265625 362.72265625 c 0
EndSplineSet
Fore
SplineSet
101 242 m 0
 101 264 103 288 107 312 c 0
 147 558 282 678 449 688 c 0
 453 688 457 688 461 688 c 0
 575 688 692 614 692 435 c 0
 692 412 690 387 686 361 c 0
 658 178 556 -1 356 -5 c 0
 353 -5 350 -5 347 -5 c 0
 190 -5 101 91 101 242 c 0
233 269 m 0
 233 145 280 68 373 68 c 2
 375 68 l 1
 468 70 533 179 558 343 c 0
 563 377 566 409 566 438 c 0
 566 555 523 626 444 626 c 2
 443 626 l 5
 373 625 269 548 241 363 c 0
 236 329 233 298 233 269 c 0
EndSplineSet
EndChar

StartChar: uni0031
Encoding: 596 49 381
Width: 422
VWidth: 79
Flags: HMW
LayerCount: 2
Back
SplineSet
54 644 m 1
 154.528 642 298 695 298 695 c 1
 288 591.489361702 287 85.7659574468 278 0 c 1
 174 0 l 1
 189 196.138996139 190 447.196911197 183 508 c 0
 178 553 132 583 60 583 c 1
 54 644 l 1
65 61 m 1
 131 57 179 79 183 137 c 1
 284 151 l 1
 282 56 354 62 382 63 c 1
 392 0 l 1
 72 0 l 1
 65 61 l 1
EndSplineSet
Fore
SplineSet
152 583 m 1
 155 644 l 1
 157 644 159 644 161 644 c 0
 261 644 408 695 408 695 c 1
 382 591 301 86 278 0 c 1
 174 0 l 1
 221 198 264 447 264 511 c 0
 264 554 222 583 152 583 c 1
72 0 m 1
 74 61 l 1
 79 61 84 61 89 61 c 0
 148 61 193 83 205 137 c 1
 308 151 l 1
 306 141 306 132 306 124 c 0
 306 68 347 63 376 63 c 2
 392 63 l 1
 392 0 l 1
 72 0 l 1
EndSplineSet
EndChar

StartChar: uni0032
Encoding: 597 50 382
Width: 650
VWidth: 153
Flags: HMW
LayerCount: 2
Back
SplineSet
93 631 m 1xf0
 145.966796875 660 263.942382812 694 337 696 c 0
 462.460607512 699.434566096 568.866055899 649.357544605 570 531 c 0xf0
 572.145507812 307.05859375 220.099609375 91.6962890625 152 60 c 5
 184 95.2607421875 l 1
 431 98.0107421875 l 1
 509 98.0107421875 518 150 525 179.428710938 c 1
 597 188 l 1xe8
 588 0 l 1
 78 0 l 0
 63 62 l 1
 125.590820312 95.818359375 281.557255787 219.917660919 342 287 c 0
 412.368188284 365.098086519 436.409179688 438.837890625 435 510 c 0
 433.584960938 581.45703125 393.31074143 636.128577101 312 634 c 0
 256.705509282 632.552484153 185.674804688 613.6484375 163 513 c 1
 96 504 l 1
 90 571 93 631 93 631 c 1xf0
EndSplineSet
Fore
SplineSet
72 62 m 1
 140 96 316 220 387 287 c 0
 470 365 506 439 516 510 c 0
 517 518 517 526 517 534 c 0
 517 592 485 634 416 634 c 2
 411 634 l 1
 356 633 283 614 244 513 c 1
 175 504 l 1
 180 571 192 631 192 631 c 1
 250 660 374 694 447 696 c 1
 458 696 l 2
 569 696 655 653 655 557 c 0
 655 549 654 540 653 531 c 0
 619 307 234 92 161 60 c 5
 199 95 l 1
 447 98 l 2
 525 98 542 150 554 179 c 1
 626 188 l 1
 588 0 l 1
 78 0 l 1
 72 62 l 1
EndSplineSet
EndChar

StartChar: uni0033
Encoding: 598 51 383
Width: 601
VWidth: 153
Flags: HMW
LayerCount: 2
Back
SplineSet
65 622 m 1xf0
 113 644 196.041977502 680.254382022 285 683 c 0
 447 688 512.0390625 617.694335938 513 529 c 0xf0
 514.17578125 420.447265625 414.359375 326.846679688 284.583984375 308 c 1
 274.573242188 332 l 1
 424.83984375 334.393554688 529.375976562 254.40625 533 134 c 0
 538.0078125 -32.40234375 388.161132812 -93.466796875 284 -113 c 0
 187.767578125 -131.045898438 84.0654296875 -123.888671875 57 -109 c 1
 47.4091796875 -70.81640625 59.1064453125 -12.2958984375 87 27 c 1
 113.126953125 -23.0263671875 181.330078125 -66.5859375 277 -57 c 0
 376.887695312 -46.9912109375 409.10546875 30.1591796875 408 114 c 0xe8
 406.58203125 221.557617188 298.0625 280.479492188 194 275 c 5
 187 340 l 1
 322.620117188 358.325195312 389 426 389 509 c 0
 389 594.326171875 329.998875384 628.079536027 267 626 c 0
 187.629025685 623.380035761 141.727539062 570.797851562 129 502 c 1
 68 491 l 1
 62 553.732421875 65 622 65 622 c 1xf0
EndSplineSet
Fore
SplineSet
39 -100 m 0
 39 -62 59 -9 91 27 c 1
 108 -18 160 -58 241 -58 c 0
 369.941790066 -58.0719233076 428 29.61920175 428 136 c 0
 428 226 343 275 250 275 c 2
 237 275 l 5
 241 340 l 1
 380 358 457 426 470 509 c 0
 471 518 472 526 472 534 c 0
 472 599 425 626 371 626 c 2
 366 626 l 1
 286 623 232 571 208 502 c 1
 145 491 l 1
 149 554 162 622 162 622 c 1
 214 644 304 680 393 683 c 1
 409 683 l 2
 544 683 598 627 598 553 c 0
 591.825388099 421.654458092 473.328208915 332.37205339 333 308 c 1
 327 332 l 1
 329 332 331 332 333 332 c 0
 469 332 555 264 555 160 c 0
 549.81032633 -25.7634551674 378.563521663 -91.9903744698 266 -113 c 0
 225 -121 183 -124 146 -124 c 0
 95 -124 53 -118 39 -109 c 1
 39 -106 39 -103 39 -100 c 0
EndSplineSet
EndChar

StartChar: uni0034
Encoding: 599 52 384
Width: 717
VWidth: 79
Flags: HMW
LayerCount: 2
Back
SplineSet
418 394 m 9
 418 394 467.500976562 430.795898438 525 450 c 1
 501.643554688 161.8046875 496.552734375 64.859375 507 -112 c 1
 400 -112 l 1
 412.12890625 68.9462890625 421.905273438 229.84765625 418 394 c 9
101 149 m 1
 107 187.965820312 l 1
 235.759765625 185.998046875 584.572265625 191.107421875 680 198 c 13
 693 103 l 21
 71 100 l 1
 41 139 l 1
 160.438476562 294.509765625 270.741210938 517.298828125 306 653 c 1
 337.873046875 674.815429688 370.452148438 700.961914062 432 664 c 1
 399.35546875 546.94140625 234.150390625 244.427734375 101 149 c 1
EndSplineSet
Fore
SplineSet
382 -112 m 1
 423 69 458 230 480 394 c 9
 480 394 534 431 595 450 c 1
 526 162 506 65 489 -112 c 1
 382 -112 l 1
63 139 m 1
 207 295 352 517 409 653 c 1
 431 667 454 683 482 683 c 0
 498 683 516 677 536 664 c 1
 485 547 272 244 124 149 c 1
 136 188 l 1
 208 188 l 2
 365 188 629 192 711 198 c 13
 709 103 l 21
 87 100 l 1
 63 139 l 1
EndSplineSet
EndChar

StartChar: uni0035
Encoding: 600 53 385
Width: 594
VWidth: 153
Flags: HMW
LayerCount: 2
Back
SplineSet
84 330 m 1x60
 96.01171875 448.706054688 104.916992188 539.622070312 112 670 c 1x60
 223.895289157 663.987799865 380.93359375 669.82421875 477.461914062 676 c 1
 473 556 l 1xa0
 345.174804688 563.736328125 314.357421875 564 174 564 c 1
 166.451171875 401.630859375 l 5
 363.549804688 402.005859375 527.254882812 323.752929688 533 147 c 0
 538.49609375 -22.080078125 384.369140625 -104.45703125 279 -122 c 0
 196.348632812 -135.760742188 76.0654296875 -126.888671875 49 -112 c 1
 39.4091796875 -73.81640625 47.1064453125 -14.2958984375 75 35 c 1
 101.126953125 -15.0263671875 166.561523438 -72.0087890625 270 -58 c 0
 352.681640625 -46.802734375 400.10546875 13.1591796875 401 112 c 4
 402.305664062 256.270507812 292.4921875 342.71875 84 330 c 1x60
EndSplineSet
Fore
SplineSet
31 -101 m 2
 31 -63 48 -10 80 35 c 1
 97 -10 144 -60 229 -60 c 0
 338.974000997 -58.8021377962 397.206911153 2.62985664122 419 112 c 4
 421 126 422 140 422 153 c 0
 422 264 339 331 176 331 c 0
 163 331 150 331 136 330 c 1
 166 449 191 540 218 670 c 1
 250 668 286 668 324 668 c 0
 415 668 515 672 584 676 c 1
 561 556 l 1
 435 564 402 564 262 564 c 1
 230 402 l 5
 414 402 558 334 558 181 c 0
 556.713767527 -12.1662226543 374.816077785 -102.438546595 259 -122 c 0
 229 -127 195 -129 163 -129 c 0
 103 -129 47 -122 31 -112 c 1
 31 -101 l 2
EndSplineSet
EndChar

StartChar: uni0036
Encoding: 601 54 386
Width: 658
VWidth: 153
Flags: HMW
LayerCount: 2
Back
SplineSet
540 741 m 17
 284.46484375 743.53515625 177.043333472 492.340656466 192.689453125 277.728515625 c 0
 203.114023512 134.738469679 259.487304688 45.5869140625 350.592773438 46.1484375 c 0
 439.186523438 46.611328125 486.3359375 128.610351562 489.129882812 241.5546875 c 0
 492.34765625 371.654296875 422.583007812 421.510742188 353.522460938 424.196289062 c 0
 236.6875 428.739257812 175.09765625 346.076171875 163 335 c 1
 165.350585938 335.498046875 139.87109375 371.251953125 142 372 c 1
 224.063476562 486.946289062 317.6953125 508.44921875 382.149414062 507.91015625 c 0
 481.986535498 507.075167522 612.190429688 434.206054688 607.555664062 252.581054688 c 0
 603.4296875 115.400390625 506.555664062 -16.080078125 326.201171875 -13.9892578125 c 0
 134.858398438 -11.2333984375 77.0078125 168.609375 74.05078125 283 c 0
 66.095703125 586.403320312 240.883789062 743.340820312 426 787.263671875 c 0
 459.522460938 795.217773438 497.977539062 800.2578125 531.708984375 795.671875 c 1
 540 741 l 17
EndSplineSet
Fore
SplineSet
115 231 m 0
 115 561.906789913 347.508686703 743.084716334 550 787 c 0
 576 793 605 798 631 798 c 0
 640 798 649 797 657 796 c 1
 657 741 l 17
 652 741 l 2
 400 741 254 492 236 278 c 0
 235 262 234 246 234 231 c 0
 234 116 277 46 357 46 c 2
 358 46 l 1
 459.754308907 44.1503483332 532 160.591681269 532 294 c 0
 532 385 479 421 420 424 c 1
 410 424 l 2
 299 424 229 346 215 335 c 1
 217 335 199 371 201 372 c 0
 299 485 394 508 458 508 c 2
 462 508 l 1
 550 507 653 450 653 312 c 0
 653 294 651 274 647 253 c 0
 621 117 506 -14 328 -14 c 2
 324 -14 l 1
 160 -11 115 121 115 231 c 0
EndSplineSet
EndChar

StartChar: uni0037
Encoding: 602 55 387
Width: 662
VWidth: 0
Flags: HMW
LayerCount: 2
Back
SplineSet
80 665 m 1x80
 265.745117188 659.282226562 478.43359375 666.469726562 573 672 c 1
 619 618 l 5
 475.087890625 456.462890625 300.962890625 126.818359375 241 -128 c 5
 191.982421875 -127.92578125 144.193359375 -108.295898438 130 -75 c 5
 175.22265625 86.9560546875 363.444335938 451.646484375 539.6015625 601 c 1x60
 542 573 l 1
 253.124023438 573 l 1
 170.416015625 568.975585938 134.612304688 512.17578125 119 470 c 1
 72 465 l 1
 80 665 l 1x80
EndSplineSet
Fore
SplineSet
118 -75 m 5
 189 87 435 452 635 601 c 1
 632 573 l 1
 343 573 l 1
 260 569 216 512 193 470 c 1
 146 465 l 1
 185 665 l 1
 235 663 287 663 338 663 c 0
 476 663 609 668 679 672 c 1
 716 618 l 5
 547 456 321 127 221 -128 c 5
 172 -128 127 -108 118 -75 c 5
EndSplineSet
EndChar

StartChar: uni0038
Encoding: 603 56 388
Width: 626
VWidth: 153
Flags: HMW
LayerCount: 2
Back
SplineSet
185 597 m 0xe8
 178.835922721 682.760506178 241.064453125 731.942382812 309 731 c 4
 389.118164062 729.922851562 434.44140625 671.887695312 435 596 c 0
 435.471679688 524.233398438 380.927734375 443.09765625 320 420 c 1
 348 390 l 1
 420.078125 396.875976562 536.644961191 464.514760679 539 597 c 4xf0
 541.08984375 714.56640625 439.662109375 791.943359375 313 790.713867188 c 0
 186.431640625 789.434570312 70.0693359375 708.654296875 77 568 c 0
 88.677734375 331.010742188 433.971679688 382.666015625 437 192 c 0
 438.244140625 113.67578125 404.384749828 39.7887206706 309 38.1484375 c 4
 211.096679688 36.46484375 167.299804688 111.211914062 167 183 c 0
 166.7265625 248.495117188 200.333007812 315.018554688 288 350 c 0
 292.915039062 351.9609375 276.701171875 391.338867188 282 392 c 1
 133.231445312 383.083007812 48 280.234375 48 174 c 0
 48 74 114.421875 -26.43359375 308 -24.9892578125 c 0
 442.01953125 -23.9580078125 560.465820312 53.3896484375 565 184 c 0
 574.352539062 446.525390625 198.338867188 411.416992188 185 597 c 0xe8
EndSplineSet
Fore
SplineSet
73 141 m 0
 73 54 131 -25 301 -25 c 0
 302 -25 303 -25 304 -25 c 0
 452.141005766 -21.4760639251 599 64.4125696782 599 230 c 0
 599 439 279 424 279 586 c 2
 279 597 l 1
 286 682 355 731 422 731 c 2
 424 731 l 5
 494 730 531 686 531 623 c 0
 531 614 530 605 529 596 c 0
 518 524 451 443 386 420 c 1
 409 390 l 1
 488.69745642 396.716136971 631.405977139 478.571577442 636 630 c 0
 636 729 554 791 440 791 c 0
 439 791 438 791 437 791 c 0
 302.918618735 789.166140518 165 701.863687435 165 544 c 0
 165 342 468 373 468 212 c 0
 468 119.211791207 415.977745709 42.7269648704 315 38 c 4
 314 38 313 38 312 38 c 0
 229 38 194 94 194 156 c 0
 194 165 195 174 196 183 c 0
 206 248 250 315 343 350 c 0
 344 350 344 353 344 356 c 0
 344 364 342 378 342 386 c 0
 342 389 342 392 343 392 c 1
 193 383 91 280 75 174 c 0
 73 163 73 152 73 141 c 0
EndSplineSet
EndChar

StartChar: uni0039
Encoding: 604 57 389
Width: 633
VWidth: 153
Flags: HMW
LayerCount: 2
Back
SplineSet
122 -64 m 21
 161.977539062 -64.396484375 198.182819958 -58.7055057191 230.758129075 -48.000001578 c 0
 406.403921059 9.7239864495 476.509205057 213.234365528 463.310546875 394.271484375 c 0
 452.885742188 537.26171875 402.512695312 626.413085938 311.407226562 625.8515625 c 0
 222.813476562 625.388671875 175.6640625 543.389648438 172.870117188 430.4453125 c 0
 169.65234375 300.345703125 239.416992188 250.489257812 308.477539062 247.803710938 c 0
 425.3125 243.260742188 486.90234375 325.923828125 499 337 c 1
 496.649414062 336.501953125 522.12890625 300.748046875 520 300 c 1
 437.936523438 185.053710938 344.3046875 163.55078125 279.850585938 164.08984375 c 0
 180.013671875 164.924804688 49.8095703125 237.793945312 54.4443359375 419.418945312 c 0
 58.5703125 556.599609375 155.444335938 688.080078125 335.798828125 685.989257812 c 0
 527.141601562 683.233398438 584.9921875 503.390625 587.94921875 389 c 0
 595.904296875 85.5966796875 421.116210938 -71.3408203125 236 -115.263671875 c 0
 202.477539062 -123.217773438 164.022460938 -128.2578125 130.291015625 -123.671875 c 1
 122 -64 l 21
EndSplineSet
Fore
SplineSet
111 -124 m 1
 112 -64 l 21
 152 -64 189 -59 223 -48 c 0
 408 10 510 213 525 394 c 0
 527 412 528 429 528 445 c 0
 528 557 490 626 411 626 c 2
 410 626 l 1
 308.245691093 627.849651667 236 511.408318731 236 378 c 0
 236 287 289 251 348 248 c 1
 358 248 l 2
 469 248 538 326 552 337 c 1
 550 337 569 301 567 300 c 0
 469 187 373 164 309 164 c 2
 305 164 l 1
 217 165 115 222 115 360 c 0
 115 378 117 398 121 419 c 0
 147 555 262 686 440 686 c 2
 444 686 l 1
 608 683 652 551 652 441 c 0
 652 423 651 405 649 389 c 0
 609 86 410 -71 218 -115 c 0
 192 -121 163 -126 137 -126 c 0
 128 -126 119 -125 111 -124 c 1
EndSplineSet
EndChar

StartChar: uni003D
Encoding: 608 61 393
Width: 580
VWidth: 153
Flags: HMW
LayerCount: 2
Back
SplineSet
35 228 m 5
 49 328 l 5
 242 318 374 318 546 328 c 1
 544 301 538 262 536 228 c 1
 35 228 l 5
39 403 m 1
 53 494 l 1
 246 484 378 484 550 494 c 1
 548 467 542 437 540 403 c 1
 39 403 l 1
EndSplineSet
Fore
SplineSet
71 228 m 5
 101 328 l 5
 197 323 277 320 356 320 c 0
 435 320 511 323 598 328 c 1
 592 301 579 262 572 228 c 1
 71 228 l 5
102 403 m 1
 131 494 l 1
 227 489 307 486 386 486 c 0
 465 486 541 489 628 494 c 1
 622 467 610 437 603 403 c 1
 102 403 l 1
EndSplineSet
EndChar

StartChar: uni003F
Encoding: 610 63 395
Width: 542
VWidth: 153
Flags: HMW
LayerCount: 2
Back
SplineSet
80 732 m 1xc0
 192 732 l 1
 182 697 175 627 172 592 c 1
 87 580 l 1
 79 612 75 697 80 732 c 1xc0
80 732 m 1
 133 765 220 801 307 801 c 0
 426 801 524 734 496 580 c 0
 461 393 298 345 213 318 c 1
 208 310 261 378 261 364 c 0
 261 299 276 219 280 198 c 1
 167 196 l 1
 168 233 167 340 168 364 c 1
 220 369 366 400 387 532 c 0
 404 636 356 722 232 732 c 0
 178 736 135 710 105 693 c 1
 80 732 l 1
EndSplineSet
Refer: 379 46 N 1 0 0 1 98 10 2
Fore
SplineSet
173 510 m 1
 173 548 179 628 189 662 c 1
 247 695 340 731 427 731 c 0
 522 731 597 688 597 593 c 0
 597 569 593 541 582 510 c 0
 527 354 392 298 299 269 c 1
 296 238 295 206 295 180 c 0
 295 156 296 137 296 128 c 1
 192 126 l 1
 199 163 214 270 219 294 c 1
 278 299 449 330 494 462 c 0
 503 487 507 514 507 541 c 0
 507 619 470 691 393 691 c 0
 378 691 360.392275938 689.547591445 343 682 c 0
 254.392275938 643.547591445 209 573 173 510 c 1
EndSplineSet
Refer: 379 46 S 1 0 0.157415 1 81 -90 2
EndChar

StartChar: si_MatraI.alt2
Encoding: 644 -1 396
Width: 610
VWidth: -24
Flags: HMW
LayerCount: 2
Fore
SplineSet
65 639 m 0
 65 774.528268169 182.323892108 867.309886918 413 871 c 0
 425 871 437 871 449 870 c 0
 606 863 676 776 676 679 c 0
 674.299542352 575.881908788 592.649010773 489.995665928 519 489 c 9
 508 510 l 25
 507.907965756 505.666498122 581.037583305 573.006479834 579 647 c 0
 579 704 538 762 395 770 c 0
 383 771 371 771 359 771 c 0
 241.13801939 767.633794192 132 747.69851535 132 654 c 0
 132 587 207 545 322 527 c 9
 310 478 l 17
 196 488 65 535 65 639 c 0
EndSplineSet
EndChar

StartChar: si_MatraIi.alt2
Encoding: 649 -1 397
Width: 587
VWidth: -24
Flags: HMW
LayerCount: 2
Fore
SplineSet
94 618 m 0
 94 625 94 631 95 638 c 4
 107 735 220 856 419 863 c 4
 424 863 429 863 434 863 c 0
 590 863 649 781 649 692 c 0
 649.093193252 570.788133996 549.774517671 497.822596386 470 492 c 5
 460 492 l 2
 399 492 368 530 368 576 c 0
 367.177464311 644.939044914 430.05082459 681.245019659 465 683 c 4
 473 684 482 684 491 684 c 0
 543 684 608 672 608 672 c 5
 594 639 l 5
 594 639 583 640 566 640 c 0
 517.293866611 637.659644519 430.42712313 638.941293473 437 588 c 0
 437 557 454 543 478 543 c 2
 483 543 l 5
 524 546 564 590 564 669 c 0
 564 720 515 773 390 773 c 2
 377 773 l 5
 271.478848287 767.872246961 159 724.92523136 159 621 c 0
 159 565 215 520 271 520 c 5
 260 471 l 5
 181 480 94 523 94 618 c 0
EndSplineSet
EndChar

StartChar: si_Rakar.alt1
Encoding: 645 -1 398
Width: 780
VWidth: -14
Flags: HMW
LayerCount: 2
Fore
SplineSet
49 -149 m 1
 90 -128 l 1
 90 -128 156 -182 297 -182 c 0
 319 -182 343 -181 369 -178 c 0
 578 -154 705 54 705 342 c 2
 705 347 l 5
 739 340 l 5
 745 306 748 272 748 238 c 0
 748 -30 572 -288 341 -289 c 4
 340 -289 339 -289 338 -289 c 0
 132 -289 51 -171 49 -149 c 1
EndSplineSet
EndChar

StartChar: si_MatraU.alt1
Encoding: 646 -1 399
Width: 0
VWidth: -24
Flags: HM
LayerCount: 2
Back
SplineSet
48 39 m 5
 54 -12 l 5
 96 -60 l 5
 2 -152 l 5
 -38 -228 l 5
 -56 -172 l 5
 20 -86 l 5
 -20 39 l 5
 48 39 l 5
127 8 m 5
 157 -22 l 5
 144 -40 104.65234375 -70.2509765625 111 -124 c 4
 116.765625 -172.82421875 167 -203 236 -202 c 4
 298.642578125 -201.091796875 344 -174 379 -139 c 5
 423 -228 l 4
 370 -278 290.443359375 -295.733398438 226 -294 c 4
 134.02734375 -291.526367188 52.2080078125 -256.041015625 52 -140 c 4
 51.8779296875 -71.982421875 102.4765625 -13.462890625 127 8 c 5
EndSplineSet
Fore
SplineSet
-111 -78 m 1
 -72 -31 l 1
 -40 -86 l 1
 8 49 l 1
 51 22 l 1
 -18 -167 l 1
 -60 -171 l 1
 -111 -78 l 1
-258 -296 m 0
 -261.262118241 -151.65147397 -136.54362706 -63.1764852895 -74 -32 c 1
 -58 -62 l 1
 -90 -92 -181 -142.99450566 -181 -234 c 0
 -181 -239 -182 -243 -182 -248 c 0
 -182 -324 -132 -372 -53 -372 c 2
 -49 -372 l 1
 44 -371 119 -335 178 -289 c 1
 198 -378 l 1
 123 -439 22 -464 -59 -464 c 2
 -73 -464 l 5
 -161 -461 -258 -420 -258 -296 c 0
EndSplineSet
EndChar

StartChar: i_MatraU.alt2
Encoding: 651 -1 400
Width: 1040
VWidth: -24
Flags: HMW
LayerCount: 2
Fore
SplineSet
210 -287 m 0
 211.596155041 -169.400429182 394 -117 394 -117 c 5
 405 -152 l 6
 405 -151 405 -151 404 -151 c 0
 393.561934008 -153.203461113 320.481282965 -195.732412369 325 -242 c 0
 325 -277 351 -288 403 -288 c 6
 870 -288 l 1
 935 127 l 1
 982 127 l 1
 910 -369 l 1
 910 -369 495 -372 317 -373 c 4
 244 -373 210 -333 210 -287 c 0
EndSplineSet
EndChar

StartChar: si_MatraU.alt3
Encoding: 653 -1 402
Width: 1040
VWidth: -24
Flags: HMW
LayerCount: 2
Back
SplineSet
412 -117 m 5
 428.772460938 -152 l 5
 428.76953125 -143.934570312 362.1875 -188.71875 362.190429688 -228 c 4
 362.1953125 -274.552734375 389.481445312 -288 448 -288 c 5
 915 -288 l 5
 915 127 l 5
 962 127 l 5
 968 -369 l 5
 968 -369 553.978498932 -371.4765625 376 -372.586914062 c 4
 296 -373.000000001 254.755859375 -323.6015625 254 -273 c 4
 252.37109375 -163.938476562 412 -117 412 -117 c 5
EndSplineSet
Fore
SplineSet
143 -288 m 0
 146.242698781 -175.580323639 282.285148449 -121.796617553 282 -124 c 1
 298 -152 l 1
 277.139639145 -163.598893444 233.019343417 -196.191687737 233 -243 c 0
 233 -277 261 -298 321 -298 c 2
 868 -298 l 1
 935 127 l 1
 982 127 l 1
 910 -369 l 1
 910 -369 544 -373 335 -373 c 2
 277 -373 l 2
 179 -373 143 -333 143 -288 c 0
EndSplineSet
EndChar

StartChar: i_MatraU.alt3
Encoding: 654 -1 403
Width: 0
VWidth: 0
Flags: HM
LayerCount: 2
Fore
SplineSet
-768 -283 m 0
 -765.969924113 -191.180518643 -685.44332809 -136.324037145 -619 -116 c 1
 -606 -164 l 5
 -655 -178 -681 -211 -684 -235 c 4
 -684 -238 -684 -241 -684 -244 c 0
 -684 -276 -658 -292 -614 -292 c 0
 -613 -292 -612 -292 -611 -292 c 4
 -513.767146465 -288.343122264 -412.172554237 -215.595990409 -294 -219 c 0
 -207 -219 -140 -246 -68 -275 c 1
 -5 127 l 1
 38 127 l 1
 -40 -369 l 1
 -126 -333 -191 -295 -304 -295 c 0
 -445.641739477 -295 -537.963569727 -372.495102114 -656 -374 c 0
 -743 -374 -768 -329 -768 -283 c 0
EndSplineSet
EndChar
